CrimsonText_New_Draft_39-Bold.ufo
<glyph name="percent" format="1">
  <advance width="886"/>
  <unicode hex="0025"/>
  <note>
    percent
  </note>
  <outline>
    <contour>
      <point x="220" y="-15" type="line"/>
      <point x="731" y="622" type="line"/>
      <point x="666" y="675" type="line"/>
      <point x="155" y="38" type="line"/>
    </contour>
    <contour>
      <point x="227" y="320" type="curve" smooth="yes"/>
      <point x="327" y="320"/>
      <point x="410" y="396"/>
      <point x="410" y="495" type="curve" smooth="yes"/>
      <point x="410" y="598"/>
      <point x="332" y="670"/>
      <point x="227" y="670" type="curve" smooth="yes"/>
      <point x="128" y="670"/>
      <point x="44" y="593"/>
      <point x="44" y="495" type="curve" smooth="yes"/>
      <point x="44" y="392"/>
      <point x="120" y="320"/>
    </contour>
    <contour>
      <point x="227" y="405" type="curve" smooth="yes"/>
      <point x="180" y="405"/>
      <point x="145" y="441"/>
      <point x="145" y="496" type="curve" smooth="yes"/>
      <point x="145" y="551"/>
      <point x="180" y="587"/>
      <point x="227" y="587" type="curve" smooth="yes"/>
      <point x="275" y="587"/>
      <point x="312" y="552"/>
      <point x="312" y="496" type="curve" smooth="yes"/>
      <point x="312" y="440"/>
      <point x="275" y="405"/>
    </contour>
    <contour>
      <point x="659" y="-10" type="curve" smooth="yes"/>
      <point x="759" y="-10"/>
      <point x="842" y="66"/>
      <point x="842" y="165" type="curve" smooth="yes"/>
      <point x="842" y="268"/>
      <point x="764" y="340"/>
      <point x="659" y="340" type="curve" smooth="yes"/>
      <point x="560" y="340"/>
      <point x="476" y="263"/>
      <point x="476" y="165" type="curve" smooth="yes"/>
      <point x="476" y="62"/>
      <point x="552" y="-10"/>
    </contour>
    <contour>
      <point x="659" y="75" type="curve" smooth="yes"/>
      <point x="612" y="75"/>
      <point x="577" y="111"/>
      <point x="577" y="166" type="curve" smooth="yes"/>
      <point x="577" y="221"/>
      <point x="612" y="257"/>
      <point x="659" y="257" type="curve" smooth="yes"/>
      <point x="707" y="257"/>
      <point x="744" y="222"/>
      <point x="744" y="166" type="curve" smooth="yes"/>
      <point x="744" y="110"/>
      <point x="707" y="75"/>
    </contour>
  </outline>
</glyph>
<glyph name="parenleft" format="1">
  <advance width="391"/>
  <unicode hex="0028"/>
  <note>
    parenleft
  </note>
  <outline>
    <contour>
      <point x="350" y="729" type="line"/>
      <point x="180" y="608"/>
      <point x="92" y="444"/>
      <point x="92" y="250" type="curve" smooth="yes"/>
      <point x="92" y="58"/>
      <point x="180" y="-105"/>
      <point x="350" y="-229" type="curve"/>
      <point x="391" y="-196" type="line"/>
      <point x="292" y="-97"/>
      <point x="237" y="63"/>
      <point x="237" y="250" type="curve" smooth="yes"/>
      <point x="237" y="437"/>
      <point x="292" y="597"/>
      <point x="391" y="696" type="curve"/>
    </contour>
  </outline>
</glyph>
<glyph name="parenright" format="1">
  <advance width="391"/>
  <unicode hex="0029"/>
  <note>
    parenright
  </note>
  <outline>
    <contour>
      <point x="41" y="729" type="curve"/>
      <point x="0" y="696" type="line"/>
      <point x="99" y="597"/>
      <point x="154" y="437"/>
      <point x="154" y="250" type="curve" smooth="yes"/>
      <point x="154" y="63"/>
      <point x="99" y="-97"/>
      <point x="0" y="-196" type="curve"/>
      <point x="41" y="-229" type="line"/>
      <point x="211" y="-105"/>
      <point x="299" y="58"/>
      <point x="299" y="250" type="curve" smooth="yes"/>
      <point x="299" y="444"/>
      <point x="211" y="608"/>
    </contour>
  </outline>
</glyph>
<glyph name="asterisk" format="1">
  <advance width="504"/>
  <unicode hex="002A"/>
  <note>
    asterisk
  </note>
  <outline>
    <contour>
      <point x="461" y="541" type="curve" smooth="yes"/>
      <point x="450" y="574"/>
      <point x="424" y="592"/>
      <point x="384" y="579" type="curve" smooth="yes"/>
      <point x="354" y="569"/>
      <point x="316" y="537"/>
      <point x="282" y="515" type="curve"/>
      <point x="292" y="556"/>
      <point x="312" y="604"/>
      <point x="312" y="636" type="curve" smooth="yes"/>
      <point x="312" y="679"/>
      <point x="286" y="698"/>
      <point x="252" y="698" type="curve" smooth="yes"/>
      <point x="218" y="698"/>
      <point x="192" y="679"/>
      <point x="192" y="636" type="curve" smooth="yes"/>
      <point x="192" y="604"/>
      <point x="212" y="556"/>
      <point x="222" y="515" type="curve"/>
      <point x="188" y="538"/>
      <point x="150" y="570"/>
      <point x="120" y="579" type="curve" smooth="yes"/>
      <point x="80" y="591"/>
      <point x="53" y="574"/>
      <point x="43" y="541" type="curve" smooth="yes"/>
      <point x="33" y="509"/>
      <point x="42" y="478"/>
      <point x="83" y="465" type="curve" smooth="yes"/>
      <point x="112" y="456"/>
      <point x="159" y="459"/>
      <point x="200" y="457" type="curve"/>
      <point x="168" y="430"/>
      <point x="125" y="404"/>
      <point x="106" y="378" type="curve" smooth="yes"/>
      <point x="81" y="343"/>
      <point x="91" y="313"/>
      <point x="118" y="293" type="curve" smooth="yes"/>
      <point x="146" y="273"/>
      <point x="178" y="273"/>
      <point x="203" y="308" type="curve" smooth="yes"/>
      <point x="222" y="335"/>
      <point x="235" y="389"/>
      <point x="252" y="429" type="curve"/>
      <point x="269" y="389"/>
      <point x="281" y="335"/>
      <point x="301" y="308" type="curve" smooth="yes"/>
      <point x="327" y="273"/>
      <point x="358" y="273"/>
      <point x="386" y="293" type="curve" smooth="yes"/>
      <point x="413" y="313"/>
      <point x="423" y="343"/>
      <point x="398" y="378" type="curve" smooth="yes"/>
      <point x="379" y="404"/>
      <point x="336" y="430"/>
      <point x="304" y="457" type="curve"/>
      <point x="345" y="459"/>
      <point x="392" y="455"/>
      <point x="421" y="465" type="curve" smooth="yes"/>
      <point x="462" y="479"/>
      <point x="472" y="509"/>
    </contour>
  </outline>
</glyph>
<glyph name="slash" format="1">
  <advance width="418"/>
  <unicode hex="002F"/>
  <note>
    slash
  </note>
  <outline>
    <contour>
      <point x="30" y="-180" type="line"/>
      <point x="127" y="-180" type="line"/>
      <point x="428" y="728" type="line"/>
      <point x="331" y="728" type="line"/>
    </contour>
  </outline>
</glyph>
<glyph name="zero" format="1">
  <advance width="678"/>
  <unicode hex="0030"/>
  <note>
    zero
  </note>
  <outline>
    <contour>
      <point x="345" y="-10" type="curve" smooth="yes"/>
      <point x="500" y="-10"/>
      <point x="626" y="140"/>
      <point x="626" y="337" type="curve" smooth="yes"/>
      <point x="626" y="538"/>
      <point x="511" y="670"/>
      <point x="347" y="670" type="curve" smooth="yes"/>
      <point x="176" y="670"/>
      <point x="52" y="529"/>
      <point x="52" y="323" type="curve" smooth="yes"/>
      <point x="52" y="124"/>
      <point x="175" y="-10"/>
    </contour>
    <contour>
      <point x="355" y="62" type="curve" smooth="yes"/>
      <point x="269" y="62"/>
      <point x="206" y="178"/>
      <point x="206" y="352" type="curve" smooth="yes"/>
      <point x="206" y="515"/>
      <point x="257" y="604"/>
      <point x="336" y="604" type="curve" smooth="yes"/>
      <point x="418" y="604"/>
      <point x="474" y="490"/>
      <point x="474" y="310" type="curve" smooth="yes"/>
      <point x="474" y="145"/>
      <point x="430" y="62"/>
    </contour>
  </outline>
</glyph>
<glyph name="one" format="1">
  <advance width="375"/>
  <unicode hex="0031"/>
  <note>
    one
  </note>
  <outline>
    <contour>
      <point x="268" y="239" type="curve" smooth="yes"/>
      <point x="268" y="419" type="line" smooth="yes"/>
      <point x="268" y="501"/>
      <point x="269" y="600"/>
      <point x="276" y="673" type="curve"/>
      <point x="16" y="574" type="line"/>
      <point x="20" y="513" type="line"/>
      <point x="53" y="522"/>
      <point x="106" y="532"/>
      <point x="124" y="534" type="curve"/>
      <point x="127" y="510"/>
      <point x="130" y="450"/>
      <point x="130" y="395" type="curve" smooth="yes"/>
      <point x="130" y="239" type="line" smooth="yes"/>
      <point x="130" y="133"/>
      <point x="126" y="77"/>
      <point x="122" y="69" type="curve"/>
      <point x="107" y="61"/>
      <point x="66" y="54"/>
      <point x="29" y="51" type="curve"/>
      <point x="33" y="-5" type="line"/>
      <point x="78" y="-1"/>
      <point x="145" y="2"/>
      <point x="199" y="2" type="curve" smooth="yes"/>
      <point x="253" y="2"/>
      <point x="320" y="-1"/>
      <point x="365" y="-5" type="curve"/>
      <point x="369" y="51" type="line"/>
      <point x="332" y="54"/>
      <point x="291" y="61"/>
      <point x="276" y="69" type="curve"/>
      <point x="272" y="77"/>
      <point x="268" y="133"/>
    </contour>
  </outline>
</glyph>
<glyph name="two" format="1">
  <advance width="559"/>
  <unicode hex="0032"/>
  <note>
    two
  </note>
  <outline>
    <contour>
      <point x="44" y="-3" type="line"/>
      <point x="72" y="-1"/>
      <point x="102" y="0"/>
      <point x="129" y="0" type="curve" smooth="yes"/>
      <point x="353" y="0" type="line" smooth="yes"/>
      <point x="388" y="0"/>
      <point x="458" y="-2"/>
      <point x="497" y="-5" type="curve"/>
      <point x="531" y="189" type="line"/>
      <point x="467" y="197" type="line"/>
      <point x="458" y="172"/>
      <point x="450" y="152"/>
      <point x="432" y="111" type="curve"/>
      <point x="414" y="108"/>
      <point x="400" y="107"/>
      <point x="374" y="107" type="curve" smooth="yes"/>
      <point x="170" y="107" type="line"/>
      <point x="169" y="92" type="line"/>
      <point x="358" y="215"/>
      <point x="461" y="346"/>
      <point x="461" y="468" type="curve" smooth="yes"/>
      <point x="461" y="587"/>
      <point x="372" y="670"/>
      <point x="247" y="670" type="curve" smooth="yes"/>
      <point x="142" y="670"/>
      <point x="57" y="613"/>
      <point x="15" y="513" type="curve"/>
      <point x="60" y="482" type="line"/>
      <point x="94" y="538"/>
      <point x="142" y="567"/>
      <point x="200" y="567" type="curve" smooth="yes"/>
      <point x="271" y="567"/>
      <point x="316" y="517"/>
      <point x="316" y="442" type="curve" smooth="yes"/>
      <point x="316" y="328"/>
      <point x="239" y="216"/>
      <point x="40" y="50" type="curve"/>
    </contour>
  </outline>
</glyph>
<glyph name="eight" format="1">
  <advance width="624"/>
  <unicode hex="0038"/>
  <note>
    eight
  </note>
  <outline>
    <contour>
      <point x="308" y="-10" type="curve" smooth="yes"/>
      <point x="470" y="-10"/>
      <point x="580" y="69"/>
      <point x="580" y="185" type="curve" smooth="yes"/>
      <point x="580" y="265"/>
      <point x="529" y="322"/>
      <point x="369" y="383" type="curve" smooth="yes"/>
      <point x="249" y="429"/>
      <point x="218" y="461"/>
      <point x="218" y="518" type="curve" smooth="yes"/>
      <point x="218" y="573"/>
      <point x="257" y="606"/>
      <point x="316" y="606" type="curve" smooth="yes"/>
      <point x="383" y="606"/>
      <point x="422" y="561"/>
      <point x="422" y="486" type="curve" smooth="yes"/>
      <point x="422" y="434"/>
      <point x="408" y="395"/>
      <point x="368" y="344" type="curve"/>
      <point x="383" y="330" type="line"/>
      <point x="495" y="357"/>
      <point x="555" y="416"/>
      <point x="555" y="497" type="curve" smooth="yes"/>
      <point x="555" y="598"/>
      <point x="470" y="670"/>
      <point x="329" y="670" type="curve" smooth="yes"/>
      <point x="181" y="670"/>
      <point x="79" y="592"/>
      <point x="79" y="486" type="curve" smooth="yes"/>
      <point x="79" y="392"/>
      <point x="134" y="334"/>
      <point x="294" y="274" type="curve" smooth="yes"/>
      <point x="411" y="230"/>
      <point x="439" y="200"/>
      <point x="439" y="147" type="curve" smooth="yes"/>
      <point x="439" y="94"/>
      <point x="395" y="60"/>
      <point x="326" y="60" type="curve" smooth="yes"/>
      <point x="245" y="60"/>
      <point x="194" y="106"/>
      <point x="194" y="175" type="curve" smooth="yes"/>
      <point x="194" y="223"/>
      <point x="213" y="266"/>
      <point x="264" y="312" type="curve"/>
      <point x="246" y="336" type="line"/>
      <point x="123" y="311"/>
      <point x="52" y="252"/>
      <point x="52" y="167" type="curve" smooth="yes"/>
      <point x="52" y="64"/>
      <point x="154" y="-10"/>
    </contour>
  </outline>
</glyph>
<glyph name="semicolon" format="1">
  <advance width="288"/>
  <unicode hex="003B"/>
  <note>
    semicolon
  </note>
  <outline>
    <contour>
      <point x="49" y="-212" type="line"/>
      <point x="181" y="-159"/>
      <point x="245" y="-64"/>
      <point x="245" y="45" type="curve" smooth="yes"/>
      <point x="245" y="141"/>
      <point x="191" y="177"/>
      <point x="141" y="177" type="curve" smooth="yes"/>
      <point x="88" y="177"/>
      <point x="49" y="140"/>
      <point x="49" y="93" type="curve" smooth="yes"/>
      <point x="49" y="13"/>
      <point x="136" y="19"/>
      <point x="136" y="-53" type="curve" smooth="yes"/>
      <point x="136" y="-98"/>
      <point x="108" y="-137"/>
      <point x="29" y="-170" type="curve"/>
    </contour>
    <contour>
      <point x="144" y="263" type="curve" smooth="yes"/>
      <point x="197" y="263"/>
      <point x="239" y="303"/>
      <point x="239" y="355" type="curve" smooth="yes"/>
      <point x="239" y="408"/>
      <point x="197" y="450"/>
      <point x="144" y="450" type="curve" smooth="yes"/>
      <point x="92" y="450"/>
      <point x="49" y="408"/>
      <point x="49" y="355" type="curve" smooth="yes"/>
      <point x="49" y="303"/>
      <point x="92" y="263"/>
    </contour>
  </outline>
</glyph>
<glyph name="A" format="1">
  <advance width="673"/>
  <unicode hex="0041"/>
  <note>
    A
  </note>
  <outline>
    <contour>
      <point x="-3" y="-3" type="line"/>
      <point x="31" y="0"/>
      <point x="72" y="0"/>
      <point x="102" y="0" type="curve" smooth="yes"/>
      <point x="132" y="0"/>
      <point x="174" y="0"/>
      <point x="207" y="-3" type="curve"/>
      <point x="210" y="52" type="line"/>
      <point x="182" y="55"/>
      <point x="151" y="61"/>
      <point x="137" y="64" type="curve"/>
      <point x="194" y="226" type="line"/>
      <point x="206" y="260" type="line"/>
      <point x="306" y="539" type="line"/>
      <point x="273" y="539" type="line"/>
      <point x="388" y="258" type="line"/>
      <point x="401" y="221" type="line"/>
      <point x="464" y="64" type="line"/>
      <point x="445" y="60"/>
      <point x="420" y="55"/>
      <point x="392" y="52" type="curve"/>
      <point x="395" y="-3" type="line"/>
      <point x="429" y="0"/>
      <point x="497" y="2"/>
      <point x="537" y="2" type="curve" smooth="yes"/>
      <point x="577" y="2"/>
      <point x="646" y="0"/>
      <point x="679" y="-3" type="curve"/>
      <point x="682" y="52" type="line"/>
      <point x="659" y="56"/>
      <point x="638" y="59"/>
      <point x="625" y="64" type="curve"/>
      <point x="367" y="680" type="line"/>
      <point x="281" y="632" type="line"/>
      <point x="51" y="64" type="line"/>
      <point x="39" y="59"/>
      <point x="23" y="55"/>
      <point x="-6" y="52" type="curve"/>
    </contour>
    <contour>
      <point x="171" y="197" type="line"/>
      <point x="199" y="199"/>
      <point x="238" y="201"/>
      <point x="300" y="201" type="curve" smooth="yes"/>
      <point x="361" y="201"/>
      <point x="400" y="199"/>
      <point x="428" y="197" type="curve"/>
      <point x="428" y="268" type="line"/>
      <point x="400" y="266"/>
      <point x="361" y="264"/>
      <point x="300" y="264" type="curve" smooth="yes"/>
      <point x="238" y="264"/>
      <point x="199" y="266"/>
      <point x="171" y="268" type="curve"/>
    </contour>
    <contour>
      <point x="301" y="0" type="move" name="bottom"/>
    </contour>
    <contour>
      <point x="629" y="0" type="move" name="ogonek"/>
    </contour>
    <contour>
      <point x="324" y="660" type="move" name="top"/>
    </contour>
  </outline>
</glyph>
<glyph name="C" format="1">
  <advance width="689"/>
  <unicode hex="0043"/>
  <note>
    C
  </note>
  <outline>
    <contour>
      <point x="419" y="-10" type="curve" smooth="yes"/>
      <point x="503" y="-10"/>
      <point x="588" y="15"/>
      <point x="635" y="44" type="curve"/>
      <point x="648" y="93"/>
      <point x="658" y="142"/>
      <point x="667" y="191" type="curve"/>
      <point x="596" y="198" type="line"/>
      <point x="583" y="165"/>
      <point x="571" y="131"/>
      <point x="554" y="96" type="curve"/>
      <point x="528" y="73"/>
      <point x="481" y="61"/>
      <point x="442" y="61" type="curve" smooth="yes"/>
      <point x="318" y="61"/>
      <point x="219" y="165"/>
      <point x="219" y="354" type="curve" smooth="yes"/>
      <point x="219" y="494"/>
      <point x="291" y="602"/>
      <point x="431" y="602" type="curve" smooth="yes"/>
      <point x="469" y="602"/>
      <point x="508" y="593"/>
      <point x="536" y="577" type="curve"/>
      <point x="551" y="540"/>
      <point x="563" y="501"/>
      <point x="575" y="463" type="curve"/>
      <point x="639" y="467" type="line"/>
      <point x="631" y="633" type="line"/>
      <point x="583" y="655"/>
      <point x="508" y="670"/>
      <point x="443" y="670" type="curve" smooth="yes"/>
      <point x="212" y="670"/>
      <point x="54" y="527"/>
      <point x="54" y="320" type="curve" smooth="yes"/>
      <point x="54" y="107"/>
      <point x="206" y="-10"/>
    </contour>
    <contour>
      <point x="395" y="0" type="move" name="bottom"/>
    </contour>
    <contour>
      <point x="395" y="660" type="move" name="top"/>
    </contour>
  </outline>
</glyph>
<glyph name="G" format="1">
  <advance width="731"/>
  <unicode hex="0047"/>
  <note>
    G
  </note>
  <outline>
    <contour>
      <point x="420" y="-10" type="curve" smooth="yes"/>
      <point x="495" y="-10"/>
      <point x="586" y="16"/>
      <point x="649" y="58" type="curve"/>
      <point x="647" y="99"/>
      <point x="646" y="129"/>
      <point x="646" y="161" type="curve" smooth="yes"/>
      <point x="646" y="197"/>
      <point x="646" y="233"/>
      <point x="649" y="241" type="curve"/>
      <point x="658" y="249"/>
      <point x="680" y="256"/>
      <point x="700" y="259" type="curve"/>
      <point x="697" y="313" type="line"/>
      <point x="673" y="311"/>
      <point x="620" y="309"/>
      <point x="569" y="309" type="curve" smooth="yes"/>
      <point x="517" y="309"/>
      <point x="466" y="310"/>
      <point x="430" y="312" type="curve"/>
      <point x="429" y="257" type="line"/>
      <point x="459" y="255"/>
      <point x="490" y="249"/>
      <point x="502" y="241" type="curve"/>
      <point x="506" y="233"/>
      <point x="512" y="197"/>
      <point x="512" y="121" type="curve" smooth="yes"/>
      <point x="512" y="25" type="line"/>
      <point x="533" y="85" type="line"/>
      <point x="505" y="67"/>
      <point x="469" y="59"/>
      <point x="443" y="59" type="curve" smooth="yes"/>
      <point x="317" y="59"/>
      <point x="216" y="165"/>
      <point x="216" y="355" type="curve" smooth="yes"/>
      <point x="216" y="494"/>
      <point x="292" y="602"/>
      <point x="432" y="602" type="curve" smooth="yes"/>
      <point x="462" y="602"/>
      <point x="504" y="595"/>
      <point x="536" y="577" type="curve"/>
      <point x="551" y="543"/>
      <point x="560" y="510"/>
      <point x="571" y="475" type="curve"/>
      <point x="636" y="478" type="line"/>
      <point x="630" y="633" type="line"/>
      <point x="583" y="655"/>
      <point x="508" y="670"/>
      <point x="444" y="670" type="curve" smooth="yes"/>
      <point x="214" y="670"/>
      <point x="52" y="527"/>
      <point x="52" y="318" type="curve" smooth="yes"/>
      <point x="52" y="107"/>
      <point x="206" y="-10"/>
    </contour>
    <contour>
      <point x="396" y="0" type="move" name="bottom"/>
    </contour>
    <contour>
      <point x="396" y="660" type="move" name="top"/>
    </contour>
  </outline>
</glyph>
<glyph name="H" format="1">
  <advance width="750"/>
  <unicode hex="0048"/>
  <note>
    H
  </note>
  <outline>
    <contour>
      <point x="429" y="-5" type="line"/>
      <point x="463" y="-1"/>
      <point x="518" y="2"/>
      <point x="572" y="2" type="curve" smooth="yes"/>
      <point x="626" y="2"/>
      <point x="683" y="-1"/>
      <point x="717" y="-5" type="curve"/>
      <point x="720" y="51" type="line"/>
      <point x="692" y="54"/>
      <point x="660" y="61"/>
      <point x="649" y="69" type="curve"/>
      <point x="645" y="77"/>
      <point x="641" y="133"/>
      <point x="641" y="239" type="curve" smooth="yes"/>
      <point x="641" y="421" type="line" smooth="yes"/>
      <point x="641" y="527"/>
      <point x="645" y="583"/>
      <point x="649" y="591" type="curve"/>
      <point x="660" y="599"/>
      <point x="692" y="606"/>
      <point x="720" y="607" type="curve"/>
      <point x="717" y="663" type="line"/>
      <point x="683" y="661"/>
      <point x="626" y="658"/>
      <point x="572" y="658" type="curve" smooth="yes"/>
      <point x="518" y="658"/>
      <point x="463" y="661"/>
      <point x="429" y="663" type="curve"/>
      <point x="426" y="607" type="line"/>
      <point x="454" y="606"/>
      <point x="484" y="599"/>
      <point x="495" y="591" type="curve"/>
      <point x="499" y="583"/>
      <point x="503" y="527"/>
      <point x="503" y="421" type="curve" smooth="yes"/>
      <point x="503" y="239" type="line" smooth="yes"/>
      <point x="503" y="133"/>
      <point x="499" y="77"/>
      <point x="495" y="69" type="curve"/>
      <point x="484" y="61"/>
      <point x="454" y="54"/>
      <point x="426" y="51" type="curve"/>
    </contour>
    <contour>
      <point x="33" y="-5" type="line"/>
      <point x="67" y="-1"/>
      <point x="124" y="2"/>
      <point x="178" y="2" type="curve" smooth="yes"/>
      <point x="232" y="2"/>
      <point x="287" y="-1"/>
      <point x="321" y="-5" type="curve"/>
      <point x="324" y="51" type="line"/>
      <point x="296" y="54"/>
      <point x="266" y="61"/>
      <point x="255" y="69" type="curve"/>
      <point x="251" y="77"/>
      <point x="247" y="133"/>
      <point x="247" y="239" type="curve" smooth="yes"/>
      <point x="247" y="421" type="line" smooth="yes"/>
      <point x="247" y="527"/>
      <point x="251" y="583"/>
      <point x="255" y="591" type="curve"/>
      <point x="266" y="599"/>
      <point x="296" y="606"/>
      <point x="324" y="607" type="curve"/>
      <point x="321" y="663" type="line"/>
      <point x="287" y="661"/>
      <point x="232" y="658"/>
      <point x="178" y="658" type="curve" smooth="yes"/>
      <point x="124" y="658"/>
      <point x="67" y="661"/>
      <point x="33" y="663" type="curve"/>
      <point x="30" y="607" type="line"/>
      <point x="58" y="606"/>
      <point x="90" y="599"/>
      <point x="101" y="591" type="curve"/>
      <point x="105" y="583"/>
      <point x="109" y="527"/>
      <point x="109" y="421" type="curve" smooth="yes"/>
      <point x="109" y="239" type="line" smooth="yes"/>
      <point x="109" y="133"/>
      <point x="105" y="77"/>
      <point x="101" y="69" type="curve"/>
      <point x="90" y="61"/>
      <point x="58" y="54"/>
      <point x="30" y="51" type="curve"/>
    </contour>
    <contour>
      <point x="225" y="298" type="line"/>
      <point x="257" y="300"/>
      <point x="303" y="302"/>
      <point x="375" y="302" type="curve" smooth="yes"/>
      <point x="447" y="302"/>
      <point x="493" y="300"/>
      <point x="525" y="298" type="curve"/>
      <point x="525" y="376" type="line"/>
      <point x="493" y="374"/>
      <point x="447" y="372"/>
      <point x="375" y="372" type="curve" smooth="yes"/>
      <point x="303" y="372"/>
      <point x="257" y="374"/>
      <point x="225" y="376" type="curve"/>
    </contour>
    <contour>
      <point x="375" y="0" type="move" name="bottom"/>
    </contour>
    <contour>
      <point x="375" y="488" type="move" name="center"/>
    </contour>
    <contour>
      <point x="375" y="660" type="move" name="top"/>
    </contour>
    <contour>
      <point x="20" y="660" type="move" name="topleft"/>
    </contour>
  </outline>
</glyph>
<glyph name="K" format="1">
  <advance width="714"/>
  <unicode hex="004B"/>
  <note>
    K
  </note>
  <outline>
    <contour>
      <point x="402" y="-5" type="line"/>
      <point x="433" y="-2"/>
      <point x="507" y="2"/>
      <point x="561" y="2" type="curve" smooth="yes"/>
      <point x="615" y="2"/>
      <point x="681" y="1"/>
      <point x="717" y="-2" type="curve"/>
      <point x="717" y="53" type="line"/>
      <point x="698" y="55"/>
      <point x="678" y="59"/>
      <point x="662" y="63" type="curve"/>
      <point x="649" y="75"/>
      <point x="628" y="96"/>
      <point x="581" y="152" type="curve" smooth="yes"/>
      <point x="366" y="405" type="line"/>
      <point x="366" y="360" type="line"/>
      <point x="619" y="594" type="line"/>
      <point x="641" y="599"/>
      <point x="668" y="603"/>
      <point x="692" y="605" type="curve"/>
      <point x="689" y="661" type="line"/>
      <point x="661" y="660"/>
      <point x="600" y="659"/>
      <point x="565" y="659" type="curve" smooth="yes"/>
      <point x="530" y="659"/>
      <point x="474" y="659"/>
      <point x="441" y="660" type="curve"/>
      <point x="440" y="604" type="line"/>
      <point x="456" y="603"/>
      <point x="491" y="600"/>
      <point x="511" y="595" type="curve"/>
      <point x="279" y="357" type="line"/>
      <point x="237" y="346" type="line"/>
      <point x="237" y="296" type="line"/>
      <point x="270" y="296" type="line"/>
      <point x="420" y="117" type="line" smooth="yes"/>
      <point x="439" y="94"/>
      <point x="450" y="79"/>
      <point x="460" y="62" type="curve"/>
      <point x="447" y="58"/>
      <point x="419" y="53"/>
      <point x="399" y="51" type="curve"/>
    </contour>
    <contour>
      <point x="36" y="-5" type="line"/>
      <point x="69" y="-1"/>
      <point x="124" y="2"/>
      <point x="178" y="2" type="curve" smooth="yes"/>
      <point x="232" y="2"/>
      <point x="284" y="-1"/>
      <point x="312" y="-5" type="curve"/>
      <point x="315" y="51" type="line"/>
      <point x="292" y="54"/>
      <point x="263" y="61"/>
      <point x="252" y="69" type="curve"/>
      <point x="249" y="77"/>
      <point x="247" y="133"/>
      <point x="247" y="239" type="curve" smooth="yes"/>
      <point x="247" y="421" type="line" smooth="yes"/>
      <point x="247" y="527"/>
      <point x="251" y="583"/>
      <point x="255" y="591" type="curve"/>
      <point x="266" y="599"/>
      <point x="298" y="606"/>
      <point x="326" y="607" type="curve"/>
      <point x="323" y="663" type="line"/>
      <point x="289" y="661"/>
      <point x="232" y="658"/>
      <point x="178" y="658" type="curve" smooth="yes"/>
      <point x="124" y="658"/>
      <point x="67" y="661"/>
      <point x="33" y="663" type="curve"/>
      <point x="30" y="607" type="line"/>
      <point x="58" y="606"/>
      <point x="90" y="599"/>
      <point x="101" y="591" type="curve"/>
      <point x="105" y="583"/>
      <point x="109" y="527"/>
      <point x="109" y="421" type="curve" smooth="yes"/>
      <point x="109" y="239" type="line" smooth="yes"/>
      <point x="109" y="133"/>
      <point x="106" y="77"/>
      <point x="103" y="69" type="curve"/>
      <point x="91" y="61"/>
      <point x="60" y="54"/>
      <point x="33" y="51" type="curve"/>
    </contour>
    <contour>
      <point x="356" y="0" type="move" name="bottom"/>
    </contour>
    <contour>
      <point x="356" y="660" type="move" name="top"/>
    </contour>
  </outline>
</glyph>
<glyph name="L" format="1">
  <advance width="594"/>
  <unicode hex="004C"/>
  <note>
    L
  </note>
  <outline>
    <contour>
      <point x="542" y="-7" type="curve"/>
      <point x="595" y="183" type="line"/>
      <point x="530" y="198" type="line"/>
      <point x="507" y="150"/>
      <point x="488" y="109"/>
      <point x="469" y="80" type="curve"/>
      <point x="450" y="77"/>
      <point x="437" y="74"/>
      <point x="389" y="74" type="curve" smooth="yes"/>
      <point x="344" y="74" type="line" smooth="yes"/>
      <point x="302" y="74"/>
      <point x="278" y="76"/>
      <point x="254" y="79" type="curve"/>
      <point x="252" y="94"/>
      <point x="250" y="144"/>
      <point x="250" y="239" type="curve" smooth="yes"/>
      <point x="250" y="421" type="line" smooth="yes"/>
      <point x="250" y="527"/>
      <point x="254" y="582"/>
      <point x="258" y="590" type="curve"/>
      <point x="269" y="598"/>
      <point x="301" y="604"/>
      <point x="355" y="607" type="curve"/>
      <point x="352" y="664" type="line"/>
      <point x="291" y="661"/>
      <point x="249" y="659"/>
      <point x="194" y="659" type="curve" smooth="yes"/>
      <point x="149" y="659"/>
      <point x="70" y="661"/>
      <point x="36" y="663" type="curve"/>
      <point x="33" y="607" type="line"/>
      <point x="61" y="606"/>
      <point x="93" y="599"/>
      <point x="104" y="591" type="curve"/>
      <point x="108" y="583"/>
      <point x="112" y="527"/>
      <point x="112" y="421" type="curve" smooth="yes"/>
      <point x="112" y="239" type="line" smooth="yes"/>
      <point x="112" y="133"/>
      <point x="108" y="77"/>
      <point x="104" y="69" type="curve"/>
      <point x="93" y="61"/>
      <point x="61" y="54"/>
      <point x="33" y="51" type="curve"/>
      <point x="36" y="-5" type="line"/>
      <point x="70" y="-1"/>
      <point x="136" y="0"/>
      <point x="181" y="0" type="curve" smooth="yes"/>
      <point x="383" y="0" type="line" smooth="yes"/>
      <point x="427" y="0"/>
      <point x="504" y="-3"/>
    </contour>
    <contour>
      <point x="320" y="0" type="move" name="bottom"/>
    </contour>
    <contour>
      <point x="216" y="340" type="move" name="center"/>
    </contour>
    <contour>
      <point x="414" y="360" type="move" name="dotacc"/>
    </contour>
    <contour>
      <point x="181" y="660" type="move" name="top"/>
    </contour>
    <contour>
      <point x="416" y="660" type="move" name="topright"/>
    </contour>
  </outline>
</glyph>
<glyph name="R" format="1">
  <advance width="678"/>
  <unicode hex="0052"/>
  <note>
    R
  </note>
  <outline>
    <contour>
      <point x="36" y="-5" type="line"/>
      <point x="69" y="-1"/>
      <point x="124" y="2"/>
      <point x="178" y="2" type="curve" smooth="yes"/>
      <point x="232" y="2"/>
      <point x="285" y="-1"/>
      <point x="313" y="-5" type="curve"/>
      <point x="316" y="51" type="line"/>
      <point x="293" y="54"/>
      <point x="263" y="61"/>
      <point x="251" y="69" type="curve"/>
      <point x="250" y="79"/>
      <point x="247" y="133"/>
      <point x="247" y="239" type="curve" smooth="yes"/>
      <point x="247" y="432" type="line" smooth="yes"/>
      <point x="247" y="532"/>
      <point x="249" y="594"/>
      <point x="251" y="601" type="curve"/>
      <point x="262" y="604"/>
      <point x="279" y="607"/>
      <point x="298" y="607" type="curve" smooth="yes"/>
      <point x="364" y="607"/>
      <point x="414" y="571"/>
      <point x="414" y="490" type="curve" smooth="yes"/>
      <point x="414" y="405"/>
      <point x="354" y="363"/>
      <point x="283" y="363" type="curve" smooth="yes"/>
      <point x="270" y="363"/>
      <point x="254" y="363"/>
      <point x="236" y="364" type="curve"/>
      <point x="236" y="304" type="line"/>
      <point x="302" y="304" type="line" smooth="yes"/>
      <point x="450" y="303"/>
      <point x="559" y="384"/>
      <point x="559" y="494" type="curve" smooth="yes"/>
      <point x="559" y="611"/>
      <point x="469" y="663"/>
      <point x="315" y="663" type="curve" smooth="yes"/>
      <point x="266" y="663"/>
      <point x="214" y="659"/>
      <point x="178" y="659" type="curve" smooth="yes"/>
      <point x="133" y="659"/>
      <point x="86" y="659"/>
      <point x="33" y="661" type="curve"/>
      <point x="30" y="605" type="line"/>
      <point x="58" y="605"/>
      <point x="90" y="599"/>
      <point x="101" y="591" type="curve"/>
      <point x="105" y="583"/>
      <point x="109" y="527"/>
      <point x="109" y="421" type="curve" smooth="yes"/>
      <point x="109" y="239" type="line" smooth="yes"/>
      <point x="109" y="133"/>
      <point x="106" y="77"/>
      <point x="103" y="69" type="curve"/>
      <point x="91" y="61"/>
      <point x="60" y="54"/>
      <point x="33" y="51" type="curve"/>
    </contour>
    <contour>
      <point x="612" y="-13" type="curve" smooth="yes"/>
      <point x="633" y="-13"/>
      <point x="655" y="-11"/>
      <point x="677" y="-7" type="curve"/>
      <point x="678" y="41" type="line"/>
      <point x="625" y="52"/>
      <point x="578" y="91"/>
      <point x="528" y="162" type="curve" smooth="yes"/>
      <point x="398" y="345" type="line"/>
      <point x="284" y="320" type="line"/>
      <point x="351" y="181" type="line" smooth="yes"/>
      <point x="417" y="43"/>
      <point x="491" y="-13"/>
    </contour>
    <contour>
      <point x="359" y="0" type="move" name="bottom"/>
    </contour>
    <contour>
      <point x="319" y="660" type="move" name="top"/>
    </contour>
  </outline>
</glyph>
<glyph name="S" format="1">
  <advance width="546"/>
  <unicode hex="0053"/>
  <note>
    S
  </note>
  <outline>
    <contour>
      <point x="256" y="-10" type="curve" smooth="yes"/>
      <point x="416" y="-10"/>
      <point x="526" y="72"/>
      <point x="526" y="189" type="curve" smooth="yes"/>
      <point x="526" y="273"/>
      <point x="478" y="327"/>
      <point x="354" y="376" type="curve" smooth="yes"/>
      <point x="239" y="421"/>
      <point x="200" y="455"/>
      <point x="200" y="514" type="curve" smooth="yes"/>
      <point x="200" y="572"/>
      <point x="246" y="607"/>
      <point x="309" y="607" type="curve" smooth="yes"/>
      <point x="337" y="607"/>
      <point x="363" y="602"/>
      <point x="390" y="588" type="curve"/>
      <point x="403" y="560"/>
      <point x="415" y="523"/>
      <point x="425" y="482" type="curve"/>
      <point x="490" y="488" type="line"/>
      <point x="478" y="643" type="line"/>
      <point x="437" y="660"/>
      <point x="372" y="671"/>
      <point x="320" y="671" type="curve" smooth="yes"/>
      <point x="161" y="671"/>
      <point x="55" y="592"/>
      <point x="55" y="476" type="curve" smooth="yes"/>
      <point x="55" y="387"/>
      <point x="107" y="331"/>
      <point x="237" y="276" type="curve" smooth="yes"/>
      <point x="350" y="228"/>
      <point x="378" y="199"/>
      <point x="378" y="143" type="curve" smooth="yes"/>
      <point x="378" y="89"/>
      <point x="338" y="57"/>
      <point x="270" y="57" type="curve" smooth="yes"/>
      <point x="234" y="57"/>
      <point x="188" y="68"/>
      <point x="155" y="90" type="curve"/>
      <point x="141" y="125"/>
      <point x="129" y="162"/>
      <point x="119" y="202" type="curve"/>
      <point x="52" y="196" type="line"/>
      <point x="51" y="148"/>
      <point x="53" y="97"/>
      <point x="57" y="38" type="curve"/>
      <point x="109" y="9"/>
      <point x="191" y="-10"/>
    </contour>
    <contour>
      <point x="283" y="0" type="move" name="bottom"/>
    </contour>
    <contour>
      <point x="283" y="660" type="move" name="top"/>
    </contour>
  </outline>
</glyph>
<glyph name="Z" format="1">
  <advance width="599"/>
  <unicode hex="005A"/>
  <note>
    Z
  </note>
  <outline>
    <contour>
      <point x="564" y="-5" type="curve"/>
      <point x="598" y="189" type="line"/>
      <point x="534" y="197" type="line"/>
      <point x="514" y="138"/>
      <point x="499" y="98"/>
      <point x="485" y="68" type="curve"/>
      <point x="467" y="65"/>
      <point x="453" y="64"/>
      <point x="436" y="64" type="curve" smooth="yes"/>
      <point x="204" y="64" type="line"/>
      <point x="204" y="23" type="line"/>
      <point x="553" y="610" type="line"/>
      <point x="553" y="662" type="line"/>
      <point x="524" y="661"/>
      <point x="494" y="660"/>
      <point x="465" y="660" type="curve" smooth="yes"/>
      <point x="149" y="660" type="line" smooth="yes"/>
      <point x="121" y="660"/>
      <point x="78" y="660"/>
      <point x="43" y="662" type="curve"/>
      <point x="45" y="478" type="line"/>
      <point x="109" y="478" type="line"/>
      <point x="116" y="531"/>
      <point x="122" y="563"/>
      <point x="129" y="593" type="curve"/>
      <point x="151" y="596"/>
      <point x="174" y="598"/>
      <point x="216" y="598" type="curve" smooth="yes"/>
      <point x="416" y="598" type="line"/>
      <point x="416" y="642" type="line"/>
      <point x="62" y="49" type="line"/>
      <point x="62" y="-3" type="line"/>
      <point x="91" y="-1"/>
      <point x="121" y="0"/>
      <point x="150" y="0" type="curve" smooth="yes"/>
      <point x="421" y="0" type="line" smooth="yes"/>
      <point x="460" y="0"/>
      <point x="531" y="-3"/>
    </contour>
    <contour>
      <point x="300" y="0" type="move" name="bottom"/>
    </contour>
    <contour>
      <point x="300" y="660" type="move" name="top"/>
    </contour>
  </outline>
</glyph>
<glyph name="bracketleft" format="1">
  <advance width="348"/>
  <unicode hex="005B"/>
  <note>
    bracketleft
  </note>
  <outline>
    <contour>
      <point x="318" y="-220" type="line"/>
      <point x="318" y="-160" type="line"/>
      <point x="218" y="-160" type="line"/>
      <point x="218" y="662" type="line"/>
      <point x="318" y="662" type="line"/>
      <point x="318" y="722" type="line"/>
      <point x="90" y="722" type="line"/>
      <point x="90" y="-220" type="line"/>
    </contour>
  </outline>
</glyph>
<glyph name="asciicircum" format="1">
  <advance width="600"/>
  <unicode hex="005E"/>
  <outline>
    <contour>
      <point x="347" y="630" type="line"/>
      <point x="253" y="630" type="line"/>
      <point x="46" y="142" type="line"/>
      <point x="142" y="142" type="line"/>
      <point x="331" y="592" type="line"/>
      <point x="269" y="592" type="line"/>
      <point x="458" y="142" type="line"/>
      <point x="554" y="142" type="line"/>
    </contour>
  </outline>
</glyph>
<glyph name="underscore" format="1">
  <advance width="485"/>
  <unicode hex="005F"/>
  <note>
    underscore
  </note>
  <outline>
    <contour>
      <point x="30" y="-74" type="line"/>
      <point x="455" y="-74" type="line"/>
      <point x="455" y="0" type="line"/>
      <point x="30" y="0" type="line"/>
    </contour>
  </outline>
</glyph>
<glyph name="b" format="1">
  <advance width="574"/>
  <unicode hex="0062"/>
  <note>
    b
  </note>
  <outline>
    <contour>
      <point x="78" y="29" type="curve"/>
      <point x="140" y="4"/>
      <point x="199" y="-8"/>
      <point x="263" y="-8" type="curve" smooth="yes"/>
      <point x="431" y="-8"/>
      <point x="536" y="106"/>
      <point x="536" y="243" type="curve" smooth="yes"/>
      <point x="536" y="372"/>
      <point x="447" y="448"/>
      <point x="348" y="448" type="curve" smooth="yes"/>
      <point x="294" y="448"/>
      <point x="240" y="414"/>
      <point x="213" y="375" type="curve"/>
      <point x="210" y="376" type="line"/>
      <point x="213" y="532"/>
      <point x="215" y="597"/>
      <point x="220" y="680" type="curve"/>
      <point x="192" y="698" type="line"/>
      <point x="136" y="674"/>
      <point x="70" y="655"/>
      <point x="5" y="642" type="curve"/>
      <point x="7" y="594" type="line"/>
      <point x="25" y="594"/>
      <point x="52" y="592"/>
      <point x="77" y="589" type="curve"/>
      <point x="79" y="559"/>
      <point x="82" y="485"/>
      <point x="82" y="361" type="curve"/>
      <point x="82" y="242" type="line"/>
      <point x="82" y="169"/>
      <point x="81" y="95"/>
    </contour>
    <contour>
      <point x="288" y="71" type="curve" smooth="yes"/>
      <point x="260" y="71"/>
      <point x="232" y="80"/>
      <point x="212" y="95" type="curve"/>
      <point x="212" y="318" type="line"/>
      <point x="231" y="339"/>
      <point x="259" y="352"/>
      <point x="289" y="352" type="curve" smooth="yes"/>
      <point x="344" y="352"/>
      <point x="394" y="312"/>
      <point x="394" y="214" type="curve" smooth="yes"/>
      <point x="394" y="112"/>
      <point x="348" y="71"/>
    </contour>
    <contour>
      <point x="289" y="0" type="move" name="bottom"/>
    </contour>
    <contour>
      <point x="289" y="660" type="move" name="top"/>
    </contour>
  </outline>
</glyph>
<glyph name="d" format="1">
  <advance width="570"/>
  <unicode hex="0064"/>
  <note>
    d
  </note>
  <outline>
    <contour>
      <point x="384" y="-13" type="line"/>
      <point x="428" y="4"/>
      <point x="491" y="22"/>
      <point x="558" y="33" type="curve"/>
      <point x="558" y="77" type="line"/>
      <point x="535" y="80"/>
      <point x="509" y="84"/>
      <point x="489" y="91" type="curve"/>
      <point x="486" y="121"/>
      <point x="482" y="158"/>
      <point x="482" y="224" type="curve"/>
      <point x="483" y="457" type="line" smooth="yes"/>
      <point x="483" y="532"/>
      <point x="485" y="597"/>
      <point x="489" y="680" type="curve"/>
      <point x="461" y="698" type="line"/>
      <point x="405" y="674"/>
      <point x="339" y="655"/>
      <point x="274" y="642" type="curve"/>
      <point x="276" y="594" type="line"/>
      <point x="294" y="594"/>
      <point x="321" y="592"/>
      <point x="345" y="589" type="curve"/>
      <point x="349" y="559"/>
      <point x="352" y="486"/>
      <point x="352" y="435" type="curve"/>
      <point x="336" y="442"/>
      <point x="307" y="447"/>
      <point x="283" y="447" type="curve" smooth="yes"/>
      <point x="161" y="447"/>
      <point x="37" y="355"/>
      <point x="37" y="205" type="curve" smooth="yes"/>
      <point x="37" y="76"/>
      <point x="128" y="-10"/>
      <point x="234" y="-10" type="curve" smooth="yes"/>
      <point x="278" y="-10"/>
      <point x="321" y="10"/>
      <point x="354" y="67" type="curve"/>
      <point x="357" y="65" type="line"/>
      <point x="356" y="2" type="line"/>
    </contour>
    <contour>
      <point x="283" y="88" type="curve" smooth="yes"/>
      <point x="226" y="88"/>
      <point x="178" y="142"/>
      <point x="178" y="241" type="curve" smooth="yes"/>
      <point x="178" y="332"/>
      <point x="223" y="387"/>
      <point x="284" y="387" type="curve" smooth="yes"/>
      <point x="309" y="387"/>
      <point x="335" y="378"/>
      <point x="353" y="354" type="curve"/>
      <point x="353" y="130" type="line"/>
      <point x="334" y="100"/>
      <point x="304" y="88"/>
    </contour>
    <contour>
      <point x="302" y="0" type="move" name="bottom"/>
    </contour>
    <contour>
      <point x="285" y="220" type="move" name="center"/>
    </contour>
    <contour>
      <point x="363" y="518" type="move" name="stroke"/>
    </contour>
    <contour>
      <point x="285" y="688" type="move" name="top"/>
    </contour>
    <contour>
      <point x="522" y="688" type="move" name="topright"/>
    </contour>
  </outline>
</glyph>
<glyph name="f" format="1">
  <advance width="326"/>
  <unicode hex="0066"/>
  <note>
    f
  </note>
  <outline>
    <contour>
      <point x="302" y="-5" type="curve"/>
      <point x="304" y="45" type="line"/>
      <point x="279" y="48"/>
      <point x="241" y="56"/>
      <point x="219" y="63" type="curve"/>
      <point x="217" y="73"/>
      <point x="216" y="113"/>
      <point x="214" y="235" type="curve" smooth="yes"/>
      <point x="212" y="374" type="line"/>
      <point x="210" y="438" type="line"/>
      <point x="210" y="514" type="line" smooth="yes"/>
      <point x="210" y="624"/>
      <point x="240" y="652"/>
      <point x="270" y="652" type="curve"/>
      <point x="225" y="658" type="line"/>
      <point x="283" y="605" type="line" smooth="yes"/>
      <point x="302" y="587"/>
      <point x="319" y="579"/>
      <point x="342" y="579" type="curve" smooth="yes"/>
      <point x="370" y="579"/>
      <point x="389" y="594"/>
      <point x="389" y="623" type="curve" smooth="yes"/>
      <point x="389" y="667"/>
      <point x="340" y="698"/>
      <point x="273" y="698" type="curve" smooth="yes"/>
      <point x="166" y="698"/>
      <point x="80" y="606"/>
      <point x="80" y="468" type="curve" smooth="yes"/>
      <point x="80" y="374" type="line"/>
      <point x="82" y="204" type="line" smooth="yes"/>
      <point x="83" y="113"/>
      <point x="78" y="71"/>
      <point x="77" y="64" type="curve"/>
      <point x="65" y="56"/>
      <point x="38" y="49"/>
      <point x="14" y="46" type="curve"/>
      <point x="18" y="-3" type="line"/>
      <point x="50" y="0"/>
      <point x="105" y="2"/>
      <point x="158" y="2" type="curve" smooth="yes"/>
      <point x="206" y="2"/>
      <point x="255" y="-1"/>
    </contour>
    <contour>
      <point x="6" y="374" type="line"/>
      <point x="317" y="374" type="line"/>
      <point x="317" y="438" type="line"/>
      <point x="139" y="438" type="line"/>
      <point x="80" y="442" type="line"/>
      <point x="55" y="432"/>
      <point x="31" y="425"/>
      <point x="6" y="421" type="curve"/>
    </contour>
  </outline>
</glyph>
<glyph name="k" format="1">
  <advance width="558"/>
  <unicode hex="006B"/>
  <note>
    k
  </note>
  <outline>
    <contour>
      <point x="25" y="-3" type="line"/>
      <point x="59" y="0"/>
      <point x="109" y="2"/>
      <point x="149" y="2" type="curve" smooth="yes"/>
      <point x="189" y="2"/>
      <point x="234" y="0"/>
      <point x="268" y="-3" type="curve"/>
      <point x="272" y="46" type="line"/>
      <point x="256" y="48"/>
      <point x="230" y="56"/>
      <point x="217" y="63" type="curve"/>
      <point x="216" y="72"/>
      <point x="214" y="111"/>
      <point x="214" y="162" type="curve"/>
      <point x="215" y="387" type="line"/>
      <point x="215" y="532"/>
      <point x="216" y="597"/>
      <point x="221" y="680" type="curve"/>
      <point x="193" y="698" type="line"/>
      <point x="137" y="674"/>
      <point x="71" y="655"/>
      <point x="6" y="642" type="curve"/>
      <point x="8" y="594" type="line"/>
      <point x="26" y="594"/>
      <point x="53" y="592"/>
      <point x="78" y="589" type="curve"/>
      <point x="80" y="559"/>
      <point x="83" y="485"/>
      <point x="83" y="361" type="curve" smooth="yes"/>
      <point x="83" y="234" type="line" smooth="yes"/>
      <point x="83" y="123"/>
      <point x="78" y="71"/>
      <point x="77" y="63" type="curve"/>
      <point x="64" y="56"/>
      <point x="37" y="48"/>
      <point x="21" y="46" type="curve"/>
    </contour>
    <contour>
      <point x="555" y="-2" type="curve"/>
      <point x="557" y="47" type="line"/>
      <point x="544" y="48"/>
      <point x="530" y="51"/>
      <point x="520" y="54" type="curve"/>
      <point x="510" y="62"/>
      <point x="493" y="83"/>
      <point x="468" y="113" type="curve" smooth="yes"/>
      <point x="322" y="290" type="line"/>
      <point x="308" y="244" type="line"/>
      <point x="472" y="381" type="line"/>
      <point x="490" y="386"/>
      <point x="516" y="390"/>
      <point x="541" y="393" type="curve"/>
      <point x="538" y="441" type="line"/>
      <point x="508" y="440"/>
      <point x="459" y="439"/>
      <point x="427" y="439" type="curve" smooth="yes"/>
      <point x="395" y="439"/>
      <point x="343" y="439"/>
      <point x="313" y="440" type="curve"/>
      <point x="311" y="391" type="line"/>
      <point x="325" y="390"/>
      <point x="356" y="387"/>
      <point x="375" y="382" type="curve"/>
      <point x="231" y="242" type="line"/>
      <point x="201" y="235" type="line"/>
      <point x="201" y="197" type="line"/>
      <point x="225" y="197" type="line"/>
      <point x="333" y="67" type="line" smooth="yes"/>
      <point x="351" y="45"/>
      <point x="367" y="22"/>
      <point x="383" y="0" type="curve"/>
      <point x="435" y="0"/>
      <point x="509" y="0"/>
    </contour>
    <contour>
      <point x="289" y="0" type="move" name="bottom"/>
    </contour>
    <contour>
      <point x="149" y="660" type="move" name="top"/>
    </contour>
  </outline>
</glyph>
<glyph name="m" format="1">
  <advance width="870"/>
  <unicode hex="006D"/>
  <note>
    m
  </note>
  <outline>
    <contour>
      <point x="19" y="-3" type="line"/>
      <point x="53" y="1"/>
      <point x="110" y="2"/>
      <point x="150" y="2" type="curve" smooth="yes"/>
      <point x="190" y="2"/>
      <point x="247" y="0"/>
      <point x="274" y="-3" type="curve"/>
      <point x="278" y="46" type="line"/>
      <point x="260" y="50"/>
      <point x="232" y="56"/>
      <point x="220" y="64" type="curve"/>
      <point x="218" y="73"/>
      <point x="215" y="113"/>
      <point x="215" y="164" type="curve" smooth="yes"/>
      <point x="215" y="311" type="line"/>
      <point x="234" y="338"/>
      <point x="266" y="354"/>
      <point x="295" y="354" type="curve" smooth="yes"/>
      <point x="339" y="354"/>
      <point x="373" y="328"/>
      <point x="373" y="258" type="curve"/>
      <point x="374" y="164" type="line"/>
      <point x="373" y="113"/>
      <point x="371" y="71"/>
      <point x="371" y="64" type="curve"/>
      <point x="358" y="56"/>
      <point x="333" y="50"/>
      <point x="317" y="46" type="curve"/>
      <point x="321" y="-3" type="line"/>
      <point x="352" y="0"/>
      <point x="400" y="2"/>
      <point x="440" y="2" type="curve" smooth="yes"/>
      <point x="480" y="2"/>
      <point x="531" y="0"/>
      <point x="562" y="-3" type="curve"/>
      <point x="566" y="46" type="line"/>
      <point x="545" y="50"/>
      <point x="521" y="56"/>
      <point x="509" y="64" type="curve"/>
      <point x="507" y="73"/>
      <point x="504" y="113"/>
      <point x="504" y="164" type="curve"/>
      <point x="503" y="268" type="line"/>
      <point x="503" y="391"/>
      <point x="432" y="448"/>
      <point x="354" y="448" type="curve" smooth="yes"/>
      <point x="303" y="448"/>
      <point x="256" y="424"/>
      <point x="214" y="372" type="curve"/>
      <point x="211" y="373" type="line"/>
      <point x="217" y="429" type="line"/>
      <point x="189" y="446" type="line"/>
      <point x="143" y="429"/>
      <point x="77" y="411"/>
      <point x="9" y="400" type="curve"/>
      <point x="9" y="355" type="line"/>
      <point x="32" y="352"/>
      <point x="57" y="348"/>
      <point x="76" y="341" type="curve"/>
      <point x="81" y="311"/>
      <point x="84" y="284"/>
      <point x="84" y="239" type="curve"/>
      <point x="83" y="164" type="line" smooth="yes"/>
      <point x="82" y="113"/>
      <point x="79" y="71"/>
      <point x="78" y="64" type="curve"/>
      <point x="66" y="56"/>
      <point x="39" y="49"/>
      <point x="15" y="46" type="curve"/>
    </contour>
    <contour>
      <point x="608" y="-3" type="line"/>
      <point x="639" y="0"/>
      <point x="687" y="2"/>
      <point x="727" y="2" type="curve" smooth="yes"/>
      <point x="767" y="2"/>
      <point x="823" y="0"/>
      <point x="857" y="-3" type="curve"/>
      <point x="861" y="46" type="line"/>
      <point x="839" y="49"/>
      <point x="808" y="56"/>
      <point x="796" y="64" type="curve"/>
      <point x="794" y="73"/>
      <point x="791" y="113"/>
      <point x="791" y="164" type="curve"/>
      <point x="789" y="268" type="line"/>
      <point x="789" y="382"/>
      <point x="724" y="448"/>
      <point x="628" y="448" type="curve" smooth="yes"/>
      <point x="565" y="448"/>
      <point x="511" y="415"/>
      <point x="464" y="352" type="curve"/>
      <point x="493" y="313" type="line"/>
      <point x="513" y="339"/>
      <point x="545" y="354"/>
      <point x="577" y="354" type="curve" smooth="yes"/>
      <point x="623" y="354"/>
      <point x="659" y="326"/>
      <point x="659" y="248" type="curve"/>
      <point x="661" y="164" type="line"/>
      <point x="661" y="113"/>
      <point x="657" y="72"/>
      <point x="656" y="64" type="curve"/>
      <point x="642" y="56"/>
      <point x="620" y="50"/>
      <point x="604" y="46" type="curve"/>
    </contour>
    <contour>
      <point x="438" y="0" type="move" name="bottom"/>
    </contour>
    <contour>
      <point x="438" y="440" type="move" name="top"/>
    </contour>
  </outline>
</glyph>
<glyph name="o" format="1">
  <advance width="542"/>
  <unicode hex="006F"/>
  <note>
    o
  </note>
  <outline>
    <contour>
      <point x="275" y="-8" type="curve" smooth="yes"/>
      <point x="402" y="-8"/>
      <point x="504" y="94"/>
      <point x="504" y="225" type="curve" smooth="yes"/>
      <point x="504" y="356"/>
      <point x="412" y="448"/>
      <point x="279" y="448" type="curve" smooth="yes"/>
      <point x="154" y="448"/>
      <point x="38" y="363"/>
      <point x="38" y="215" type="curve" smooth="yes"/>
      <point x="38" y="84"/>
      <point x="135" y="-8"/>
    </contour>
    <contour>
      <point x="285" y="57" type="curve" smooth="yes"/>
      <point x="226" y="57"/>
      <point x="182" y="137"/>
      <point x="182" y="245" type="curve" smooth="yes"/>
      <point x="182" y="333"/>
      <point x="213" y="387"/>
      <point x="263" y="387" type="curve" smooth="yes"/>
      <point x="322" y="387"/>
      <point x="362" y="309"/>
      <point x="362" y="193" type="curve" smooth="yes"/>
      <point x="362" y="107"/>
      <point x="334" y="57"/>
    </contour>
    <contour>
      <point x="271" y="0" type="move" name="bottom"/>
    </contour>
    <contour>
      <point x="271" y="220" type="move" name="center"/>
    </contour>
    <contour>
      <point x="343" y="0" type="move" name="ogonek"/>
    </contour>
    <contour>
      <point x="271" y="440" type="move" name="top"/>
    </contour>
    <contour>
      <point x="522" y="440" type="move" name="topright"/>
    </contour>
  </outline>
</glyph>
<glyph name="p" format="1">
  <advance width="569"/>
  <unicode hex="0070"/>
  <note>
    p
  </note>
  <outline>
    <contour>
      <point x="17" y="-227" type="line"/>
      <point x="49" y="-223"/>
      <point x="96" y="-220"/>
      <point x="146" y="-220" type="curve" smooth="yes"/>
      <point x="196" y="-220"/>
      <point x="247" y="-223"/>
      <point x="284" y="-227" type="curve"/>
      <point x="288" y="-176" type="line"/>
      <point x="260" y="-173"/>
      <point x="229" y="-166"/>
      <point x="217" y="-158" type="curve"/>
      <point x="215" y="-149"/>
      <point x="212" y="-109"/>
      <point x="212" y="-58" type="curve" smooth="yes"/>
      <point x="212" y="4" type="line"/>
      <point x="236" y="-3"/>
      <point x="261" y="-7"/>
      <point x="282" y="-7" type="curve" smooth="yes"/>
      <point x="434" y="-7"/>
      <point x="530" y="108"/>
      <point x="530" y="238" type="curve" smooth="yes"/>
      <point x="530" y="372"/>
      <point x="442" y="448"/>
      <point x="346" y="448" type="curve" smooth="yes"/>
      <point x="293" y="448"/>
      <point x="242" y="416"/>
      <point x="211" y="368" type="curve"/>
      <point x="208" y="370" type="line"/>
      <point x="214" y="429" type="line"/>
      <point x="186" y="446" type="line"/>
      <point x="141" y="429"/>
      <point x="75" y="411"/>
      <point x="7" y="400" type="curve"/>
      <point x="7" y="355" type="line"/>
      <point x="30" y="352"/>
      <point x="55" y="348"/>
      <point x="74" y="341" type="curve"/>
      <point x="79" y="311"/>
      <point x="82" y="284"/>
      <point x="82" y="239" type="curve" smooth="yes"/>
      <point x="80" y="42" type="line" smooth="yes"/>
      <point x="78" y="-109"/>
      <point x="75" y="-151"/>
      <point x="74" y="-158" type="curve"/>
      <point x="62" y="-166"/>
      <point x="35" y="-173"/>
      <point x="13" y="-176" type="curve"/>
    </contour>
    <contour>
      <point x="284" y="65" type="curve" smooth="yes"/>
      <point x="258" y="65"/>
      <point x="232" y="73"/>
      <point x="212" y="85" type="curve"/>
      <point x="212" y="313" type="line"/>
      <point x="231" y="337"/>
      <point x="259" y="352"/>
      <point x="287" y="352" type="curve" smooth="yes"/>
      <point x="339" y="352"/>
      <point x="388" y="311"/>
      <point x="388" y="207" type="curve" smooth="yes"/>
      <point x="388" y="106"/>
      <point x="344" y="65"/>
    </contour>
    <contour>
      <point x="285" y="440" type="move" name="top"/>
    </contour>
  </outline>
</glyph>
<glyph name="w" format="1">
  <advance width="829"/>
  <unicode hex="0077"/>
  <note>
    w
  </note>
  <outline>
    <contour>
      <point x="547" y="-4" type="line"/>
      <point x="591" y="-4" type="line"/>
      <point x="784" y="379" type="line"/>
      <point x="795" y="384"/>
      <point x="812" y="389"/>
      <point x="829" y="393" type="curve"/>
      <point x="827" y="440" type="line"/>
      <point x="806" y="440"/>
      <point x="767" y="439"/>
      <point x="735" y="439" type="curve" smooth="yes"/>
      <point x="707" y="439"/>
      <point x="679" y="439"/>
      <point x="653" y="440" type="curve"/>
      <point x="651" y="391" type="line"/>
      <point x="680" y="388"/>
      <point x="689" y="384"/>
      <point x="706" y="379" type="curve"/>
      <point x="600" y="135" type="line"/>
      <point x="626" y="135" type="line"/>
      <point x="524" y="379" type="line"/>
      <point x="537" y="384"/>
      <point x="550" y="388"/>
      <point x="570" y="391" type="curve"/>
      <point x="568" y="440" type="line"/>
      <point x="550" y="439"/>
      <point x="484" y="439"/>
      <point x="464" y="439" type="curve" smooth="yes"/>
      <point x="433" y="439"/>
      <point x="350" y="439"/>
      <point x="332" y="440" type="curve"/>
      <point x="330" y="391" type="line"/>
      <point x="350" y="388"/>
      <point x="359" y="384"/>
      <point x="372" y="379" type="curve"/>
    </contour>
    <contour>
      <point x="229" y="-4" type="line"/>
      <point x="273" y="-4" type="line"/>
      <point x="434" y="311" type="line"/>
      <point x="397" y="378" type="line"/>
      <point x="282" y="135" type="line"/>
      <point x="311" y="135" type="line"/>
      <point x="204" y="379" type="line"/>
      <point x="217" y="384"/>
      <point x="229" y="388"/>
      <point x="249" y="391" type="curve"/>
      <point x="247" y="440" type="line"/>
      <point x="229" y="439"/>
      <point x="144" y="439"/>
      <point x="124" y="439" type="curve" smooth="yes"/>
      <point x="93" y="439"/>
      <point x="24" y="440"/>
      <point x="0" y="440" type="curve"/>
      <point x="-3" y="393" type="line"/>
      <point x="17" y="389"/>
      <point x="36" y="384"/>
      <point x="49" y="379" type="curve"/>
    </contour>
    <contour>
      <point x="410" y="0" type="move" name="bottom"/>
    </contour>
    <contour>
      <point x="448" y="440" type="move" name="top"/>
    </contour>
  </outline>
</glyph>
<glyph name="x" format="1">
  <advance width="515"/>
  <unicode hex="0078"/>
  <note>
    x
  </note>
  <outline>
    <contour>
      <point x="505" y="-3" type="curve"/>
      <point x="507" y="49" type="line"/>
      <point x="496" y="52"/>
      <point x="474" y="57"/>
      <point x="460" y="62" type="curve"/>
      <point x="319" y="244" type="line"/>
      <point x="285" y="288" type="line"/>
      <point x="212" y="382" type="line"/>
      <point x="227" y="387"/>
      <point x="242" y="391"/>
      <point x="257" y="393" type="curve"/>
      <point x="255" y="440" type="line"/>
      <point x="225" y="439"/>
      <point x="164" y="439"/>
      <point x="134" y="439" type="curve" smooth="yes"/>
      <point x="104" y="439"/>
      <point x="43" y="440"/>
      <point x="13" y="440" type="curve"/>
      <point x="10" y="394" type="line"/>
      <point x="23" y="392"/>
      <point x="41" y="387"/>
      <point x="55" y="382" type="curve"/>
      <point x="187" y="214" type="line"/>
      <point x="221" y="170" type="line"/>
      <point x="304" y="62" type="line"/>
      <point x="291" y="57"/>
      <point x="273" y="54"/>
      <point x="259" y="51" type="curve"/>
      <point x="260" y="-2" type="line"/>
      <point x="290" y="0"/>
      <point x="352" y="2"/>
      <point x="382" y="2" type="curve" smooth="yes"/>
      <point x="412" y="2"/>
      <point x="475" y="-1"/>
    </contour>
    <contour>
      <point x="354" y="382" type="curve"/>
      <point x="285" y="288" type="line"/>
      <point x="187" y="214" type="line"/>
      <point x="54" y="62" type="line"/>
      <point x="40" y="57"/>
      <point x="18" y="52"/>
      <point x="7" y="49" type="curve"/>
      <point x="9" y="-3" type="line"/>
      <point x="29" y="-1"/>
      <point x="70" y="2"/>
      <point x="96" y="2" type="curve" smooth="yes"/>
      <point x="118" y="2"/>
      <point x="163" y="0"/>
      <point x="183" y="-2" type="curve"/>
      <point x="184" y="50" type="line"/>
      <point x="171" y="53"/>
      <point x="152" y="57"/>
      <point x="139" y="62" type="curve"/>
      <point x="221" y="170" type="line"/>
      <point x="319" y="244" type="line"/>
      <point x="438" y="382" type="line"/>
      <point x="453" y="387"/>
      <point x="469" y="392"/>
      <point x="482" y="394" type="curve"/>
      <point x="480" y="440" type="line"/>
      <point x="460" y="440"/>
      <point x="420" y="439"/>
      <point x="394" y="439" type="curve" smooth="yes"/>
      <point x="369" y="439"/>
      <point x="331" y="439"/>
      <point x="311" y="440" type="curve"/>
      <point x="309" y="393" type="line"/>
      <point x="324" y="391"/>
      <point x="339" y="387"/>
    </contour>
    <contour>
      <point x="258" y="0" type="move" name="bottom"/>
    </contour>
    <contour>
      <point x="258" y="440" type="move" name="top"/>
    </contour>
  </outline>
</glyph>
<glyph name="asciitilde" format="1">
  <advance width="600"/>
  <unicode hex="007E"/>
  <outline>
    <contour>
      <point x="500" y="344" type="line"/>
      <point x="482" y="309"/>
      <point x="457" y="290"/>
      <point x="425" y="290" type="curve" smooth="yes"/>
      <point x="371" y="290"/>
      <point x="273" y="366"/>
      <point x="190" y="366" type="curve" smooth="yes"/>
      <point x="130" y="366"/>
      <point x="79" y="325"/>
      <point x="56" y="256" type="curve"/>
      <point x="100" y="228" type="line"/>
      <point x="119" y="264"/>
      <point x="144" y="283"/>
      <point x="175" y="283" type="curve" smooth="yes"/>
      <point x="229" y="283"/>
      <point x="327" y="206"/>
      <point x="410" y="206" type="curve" smooth="yes"/>
      <point x="470" y="206"/>
      <point x="521" y="248"/>
      <point x="544" y="316" type="curve"/>
    </contour>
  </outline>
</glyph>
<glyph name="exclamdown" format="1">
  <advance width="296"/>
  <unicode hex="00A1"/>
  <note>
    exclamdown
  </note>
  <outline>
    <contour>
      <point x="119" y="211" type="line"/>
      <point x="106" y="81"/>
      <point x="55" y="-37"/>
      <point x="55" y="-126" type="curve" smooth="yes"/>
      <point x="55" y="-191"/>
      <point x="97" y="-228"/>
      <point x="148" y="-228" type="curve" smooth="yes"/>
      <point x="199" y="-228"/>
      <point x="241" y="-191"/>
      <point x="241" y="-126" type="curve" smooth="yes"/>
      <point x="241" y="-37"/>
      <point x="190" y="81"/>
      <point x="177" y="211" type="curve"/>
    </contour>
    <contour>
      <point x="148" y="448" type="curve" smooth="yes"/>
      <point x="96" y="448"/>
      <point x="53" y="408"/>
      <point x="53" y="356" type="curve" smooth="yes"/>
      <point x="53" y="303"/>
      <point x="96" y="261"/>
      <point x="148" y="261" type="curve" smooth="yes"/>
      <point x="201" y="261"/>
      <point x="243" y="303"/>
      <point x="243" y="356" type="curve" smooth="yes"/>
      <point x="243" y="408"/>
      <point x="201" y="448"/>
    </contour>
  </outline>
</glyph>
<glyph name="currency" format="1">
  <advance width="600"/>
  <unicode hex="00A4"/>
  <note>
    currency
  </note>
  <outline>
    <contour>
      <point x="298" y="81" type="curve" smooth="yes"/>
      <point x="432" y="81"/>
      <point x="540" y="192"/>
      <point x="540" y="329" type="curve" smooth="yes"/>
      <point x="540" y="466"/>
      <point x="432" y="577"/>
      <point x="298" y="577" type="curve" smooth="yes"/>
      <point x="163" y="577"/>
      <point x="55" y="466"/>
      <point x="55" y="329" type="curve" smooth="yes"/>
      <point x="55" y="192"/>
      <point x="163" y="81"/>
    </contour>
    <contour>
      <point x="74" y="42" type="line"/>
      <point x="206" y="176" type="line"/>
      <point x="149" y="233" type="line"/>
      <point x="18" y="98" type="line"/>
    </contour>
    <contour>
      <point x="523" y="43" type="line"/>
      <point x="579" y="98" type="line"/>
      <point x="438" y="243" type="line"/>
      <point x="386" y="183" type="line"/>
    </contour>
    <contour>
      <point x="298" y="142" type="curve" smooth="yes"/>
      <point x="241" y="142"/>
      <point x="197" y="226"/>
      <point x="197" y="329" type="curve" smooth="yes"/>
      <point x="197" y="432"/>
      <point x="242" y="517"/>
      <point x="298" y="516" type="curve" smooth="yes"/>
      <point x="353" y="515"/>
      <point x="398" y="432"/>
      <point x="398" y="329" type="curve" smooth="yes"/>
      <point x="398" y="226"/>
      <point x="353" y="142"/>
    </contour>
    <contour>
      <point x="132" y="443" type="line"/>
      <point x="192" y="497" type="line"/>
      <point x="75" y="617" type="line"/>
      <point x="18" y="560" type="line"/>
    </contour>
    <contour>
      <point x="458" y="433" type="line"/>
      <point x="581" y="558" type="line"/>
      <point x="520" y="619" type="line"/>
      <point x="397" y="492" type="line"/>
    </contour>
  </outline>
</glyph>
<glyph name="logicalnot" format="1">
  <advance width="600"/>
  <unicode hex="00AC"/>
  <outline>
    <contour>
      <point x="544" y="431" type="line"/>
      <point x="56" y="431" type="line"/>
      <point x="56" y="344" type="line"/>
      <point x="455" y="344" type="line"/>
      <point x="455" y="140" type="line"/>
      <point x="544" y="140" type="line"/>
    </contour>
  </outline>
</glyph>
<glyph name="threesuperior" format="1">
  <advance width="298"/>
  <unicode hex="00B3"/>
  <note>
    uni00B3
  </note>
  <outline>
    <contour>
      <point x="102" y="246" type="curve" smooth="yes"/>
      <point x="191" y="246"/>
      <point x="273" y="295"/>
      <point x="273" y="382" type="curve" smooth="yes"/>
      <point x="273" y="443"/>
      <point x="209" y="472"/>
      <point x="169" y="472" type="curve"/>
      <point x="202" y="489"/>
      <point x="241" y="530"/>
      <point x="241" y="574" type="curve" smooth="yes"/>
      <point x="241" y="621"/>
      <point x="196" y="645"/>
      <point x="159" y="645" type="curve" smooth="yes"/>
      <point x="112" y="645"/>
      <point x="59" y="613"/>
      <point x="38" y="580" type="curve"/>
      <point x="34" y="575"/>
      <point x="49" y="559"/>
      <point x="58" y="559" type="curve" smooth="yes"/>
      <point x="59" y="559"/>
      <point x="67" y="565"/>
      <point x="82" y="578" type="curve" smooth="yes"/>
      <point x="97" y="590"/>
      <point x="110" y="596"/>
      <point x="123" y="596" type="curve" smooth="yes"/>
      <point x="140" y="596"/>
      <point x="159" y="581"/>
      <point x="159" y="554" type="curve" smooth="yes"/>
      <point x="159" y="509"/>
      <point x="134" y="481"/>
      <point x="83" y="470" type="curve"/>
      <point x="82" y="466"/>
      <point x="81" y="461"/>
      <point x="81" y="456" type="curve" smooth="yes"/>
      <point x="81" y="451"/>
      <point x="83" y="446"/>
      <point x="87" y="440" type="curve"/>
      <point x="110" y="440" type="line" smooth="yes"/>
      <point x="212" y="440"/>
      <point x="218" y="282"/>
      <point x="123" y="282" type="curve" smooth="yes"/>
      <point x="77" y="282"/>
      <point x="26" y="344"/>
      <point x="26" y="284" type="curve" smooth="yes"/>
      <point x="26" y="275"/>
      <point x="27" y="269"/>
      <point x="29" y="266" type="curve"/>
      <point x="45" y="253"/>
      <point x="69" y="246"/>
    </contour>
  </outline>
</glyph>
<glyph name="ordmasculine" format="1">
  <advance width="370"/>
  <unicode hex="00BA"/>
  <note>
    ordmasculine
  </note>
  <outline>
    <contour>
      <point x="185" y="247" type="curve" smooth="yes"/>
      <point x="396" y="247"/>
      <point x="393" y="554"/>
      <point x="185" y="554" type="curve" smooth="yes"/>
      <point x="-23" y="554"/>
      <point x="-24" y="247"/>
    </contour>
    <contour>
      <point x="192" y="284" type="curve" smooth="yes"/>
      <point x="146" y="284"/>
      <point x="123" y="330"/>
      <point x="123" y="421" type="curve" smooth="yes"/>
      <point x="123" y="473"/>
      <point x="139" y="517"/>
      <point x="176" y="517" type="curve" smooth="yes"/>
      <point x="223" y="517"/>
      <point x="247" y="470"/>
      <point x="247" y="377" type="curve" smooth="yes"/>
      <point x="247" y="328"/>
      <point x="231" y="284"/>
    </contour>
  </outline>
</glyph>
<glyph name="questiondown" format="1">
  <advance width="381"/>
  <unicode hex="00BF"/>
  <note>
    questiondown
  </note>
  <outline>
    <contour>
      <point x="275" y="211" type="curve"/>
      <point x="215" y="211" type="line"/>
      <point x="217" y="189"/>
      <point x="218" y="182"/>
      <point x="218" y="175" type="curve" smooth="yes"/>
      <point x="218" y="103"/>
      <point x="37" y="115"/>
      <point x="37" y="-14" type="curve" smooth="yes"/>
      <point x="37" y="-130"/>
      <point x="153" y="-230"/>
      <point x="286" y="-230" type="curve" smooth="yes"/>
      <point x="342" y="-230"/>
      <point x="375" y="-203"/>
      <point x="375" y="-164" type="curve" smooth="yes"/>
      <point x="375" y="-125"/>
      <point x="341" y="-96"/>
      <point x="292" y="-96" type="curve" smooth="yes"/>
      <point x="256" y="-96"/>
      <point x="225" y="-113"/>
      <point x="192" y="-113" type="curve" smooth="yes"/>
      <point x="154" y="-113"/>
      <point x="132" y="-95"/>
      <point x="132" y="-69" type="curve" smooth="yes"/>
      <point x="132" y="-5"/>
      <point x="298" y="19"/>
      <point x="298" y="117" type="curve" smooth="yes"/>
      <point x="298" y="147"/>
      <point x="291" y="174"/>
    </contour>
    <contour>
      <point x="245" y="448" type="curve" smooth="yes"/>
      <point x="192" y="448"/>
      <point x="150" y="408"/>
      <point x="150" y="356" type="curve" smooth="yes"/>
      <point x="150" y="303"/>
      <point x="192" y="261"/>
      <point x="245" y="261" type="curve" smooth="yes"/>
      <point x="297" y="261"/>
      <point x="340" y="303"/>
      <point x="340" y="356" type="curve" smooth="yes"/>
      <point x="340" y="407"/>
      <point x="298" y="448"/>
    </contour>
  </outline>
</glyph>
<glyph name="AE" format="1">
  <advance width="921"/>
  <unicode hex="00C6"/>
  <note>
    AE
  </note>
  <outline>
    <contour>
      <point x="718" y="226" type="curve"/>
      <point x="777" y="226" type="line"/>
      <point x="776" y="263"/>
      <point x="774" y="304"/>
      <point x="774" y="339" type="curve" smooth="yes"/>
      <point x="774" y="374"/>
      <point x="776" y="412"/>
      <point x="777" y="449" type="curve"/>
      <point x="718" y="449" type="line"/>
      <point x="715" y="426"/>
      <point x="709" y="387"/>
      <point x="705" y="374" type="curve"/>
      <point x="696" y="373"/>
      <point x="673" y="371"/>
      <point x="645" y="371" type="curve" smooth="yes"/>
      <point x="589" y="371" type="line" smooth="yes"/>
      <point x="564" y="371"/>
      <point x="541" y="373"/>
      <point x="525" y="374" type="curve"/>
      <point x="525" y="303" type="line"/>
      <point x="541" y="304"/>
      <point x="564" y="306"/>
      <point x="589" y="306" type="curve" smooth="yes"/>
      <point x="645" y="306" type="line" smooth="yes"/>
      <point x="673" y="306"/>
      <point x="696" y="304"/>
      <point x="705" y="303" type="curve"/>
      <point x="709" y="290"/>
      <point x="715" y="249"/>
    </contour>
    <contour>
      <point x="173" y="190" type="line"/>
      <point x="201" y="192"/>
      <point x="240" y="194"/>
      <point x="302" y="194" type="curve" smooth="yes"/>
      <point x="363" y="194"/>
      <point x="402" y="192"/>
      <point x="430" y="190" type="curve"/>
      <point x="430" y="260" type="line"/>
      <point x="402" y="258"/>
      <point x="363" y="256"/>
      <point x="302" y="256" type="curve" smooth="yes"/>
      <point x="240" y="256"/>
      <point x="221" y="258"/>
      <point x="193" y="260" type="curve"/>
    </contour>
    <contour>
      <point x="845" y="181" type="line"/>
      <point x="822" y="134"/>
      <point x="803" y="95"/>
      <point x="784" y="66" type="curve"/>
      <point x="765" y="63"/>
      <point x="752" y="62"/>
      <point x="704" y="62" type="curve" smooth="yes"/>
      <point x="642" y="62" type="line" smooth="yes"/>
      <point x="600" y="62"/>
      <point x="576" y="64"/>
      <point x="551" y="67" type="curve"/>
      <point x="549" y="83"/>
      <point x="548" y="133"/>
      <point x="548" y="199" type="curve" smooth="yes"/>
      <point x="548" y="461" type="line" smooth="yes"/>
      <point x="548" y="527"/>
      <point x="549" y="583"/>
      <point x="551" y="598" type="curve"/>
      <point x="570" y="601"/>
      <point x="598" y="602"/>
      <point x="623" y="602" type="curve" smooth="yes"/>
      <point x="708" y="602" type="line" smooth="yes"/>
      <point x="725" y="602"/>
      <point x="739" y="601"/>
      <point x="757" y="598" type="curve"/>
      <point x="772" y="569"/>
      <point x="782" y="538"/>
      <point x="798" y="497" type="curve"/>
      <point x="860" y="505" type="line"/>
      <point x="831" y="665" type="line"/>
      <point x="793" y="663"/>
      <point x="719" y="660"/>
      <point x="675" y="660" type="curve" smooth="yes"/>
      <point x="480" y="660" type="line" smooth="yes"/>
      <point x="435" y="660"/>
      <point x="349" y="661"/>
      <point x="315" y="663" type="curve"/>
      <point x="312" y="607" type="line"/>
      <point x="340" y="606"/>
      <point x="386" y="599"/>
      <point x="397" y="591" type="curve"/>
      <point x="405" y="633" type="line"/>
      <point x="30" y="64" type="line"/>
      <point x="18" y="59"/>
      <point x="5" y="55"/>
      <point x="-24" y="52" type="curve"/>
      <point x="-21" y="-3" type="line"/>
      <point x="13" y="0"/>
      <point x="52" y="0"/>
      <point x="82" y="0" type="curve" smooth="yes"/>
      <point x="112" y="0"/>
      <point x="153" y="0"/>
      <point x="186" y="-3" type="curve"/>
      <point x="189" y="52" type="line"/>
      <point x="161" y="55"/>
      <point x="131" y="61"/>
      <point x="117" y="64" type="curve"/>
      <point x="448" y="588" type="line"/>
      <point x="411" y="572" type="line"/>
      <point x="411" y="239" type="line"/>
      <point x="411" y="133"/>
      <point x="411" y="77"/>
      <point x="409" y="69" type="curve"/>
      <point x="396" y="61"/>
      <point x="363" y="54"/>
      <point x="335" y="51" type="curve"/>
      <point x="338" y="-5" type="line"/>
      <point x="372" y="-1"/>
      <point x="435" y="0"/>
      <point x="480" y="0" type="curve" smooth="yes"/>
      <point x="713" y="0" type="line" smooth="yes"/>
      <point x="757" y="0"/>
      <point x="818" y="-3"/>
      <point x="856" y="-6" type="curve"/>
      <point x="905" y="169" type="line"/>
    </contour>
    <contour>
      <point x="480" y="0" type="move" name="bottom"/>
    </contour>
    <contour>
      <point x="480" y="660" type="move" name="top"/>
    </contour>
  </outline>
</glyph>
<glyph name="Thorn" format="1">
  <advance width="604"/>
  <unicode hex="00DE"/>
  <note>
    Thorn
  </note>
  <outline>
    <contour>
      <point x="33" y="-5" type="line"/>
      <point x="67" y="-1"/>
      <point x="124" y="2"/>
      <point x="178" y="2" type="curve" smooth="yes"/>
      <point x="232" y="2"/>
      <point x="289" y="-1"/>
      <point x="335" y="-5" type="curve"/>
      <point x="338" y="52" type="line"/>
      <point x="298" y="55"/>
      <point x="264" y="61"/>
      <point x="250" y="69" type="curve"/>
      <point x="249" y="77"/>
      <point x="247" y="103"/>
      <point x="247" y="139" type="curve" smooth="yes"/>
      <point x="247" y="483" type="line"/>
      <point x="262" y="486"/>
      <point x="276" y="487"/>
      <point x="288" y="487" type="curve" smooth="yes"/>
      <point x="377" y="487"/>
      <point x="427" y="431"/>
      <point x="427" y="334" type="curve" smooth="yes"/>
      <point x="427" y="251"/>
      <point x="384" y="206"/>
      <point x="308" y="206" type="curve" smooth="yes"/>
      <point x="278" y="206"/>
      <point x="251" y="210"/>
      <point x="230" y="218" type="curve"/>
      <point x="230" y="155" type="line"/>
      <point x="252" y="148"/>
      <point x="279" y="143"/>
      <point x="304" y="143" type="curve" smooth="yes"/>
      <point x="466" y="143"/>
      <point x="573" y="229"/>
      <point x="573" y="350" type="curve" smooth="yes"/>
      <point x="573" y="477"/>
      <point x="477" y="546"/>
      <point x="306" y="546" type="curve" smooth="yes"/>
      <point x="267" y="546"/>
      <point x="236" y="543"/>
      <point x="214" y="539" type="curve"/>
      <point x="247" y="496" type="line"/>
      <point x="247" y="553" type="line" smooth="yes"/>
      <point x="247" y="573"/>
      <point x="249" y="584"/>
      <point x="251" y="591" type="curve"/>
      <point x="264" y="599"/>
      <point x="295" y="606"/>
      <point x="322" y="607" type="curve"/>
      <point x="319" y="663" type="line"/>
      <point x="286" y="661"/>
      <point x="232" y="658"/>
      <point x="178" y="658" type="curve" smooth="yes"/>
      <point x="124" y="658"/>
      <point x="67" y="661"/>
      <point x="33" y="663" type="curve"/>
      <point x="30" y="607" type="line"/>
      <point x="58" y="606"/>
      <point x="90" y="599"/>
      <point x="101" y="591" type="curve"/>
      <point x="105" y="583"/>
      <point x="109" y="527"/>
      <point x="109" y="421" type="curve" smooth="yes"/>
      <point x="109" y="239" type="line" smooth="yes"/>
      <point x="109" y="133"/>
      <point x="105" y="77"/>
      <point x="101" y="69" type="curve"/>
      <point x="90" y="61"/>
      <point x="58" y="54"/>
      <point x="30" y="51" type="curve"/>
    </contour>
  </outline>
</glyph>
<glyph name="eth" format="1">
  <advance width="536"/>
  <unicode hex="00F0"/>
  <note>
    eth
  </note>
  <outline>
    <contour>
      <point x="396" y="368" type="curve"/>
      <point x="417" y="429" type="line"/>
      <point x="382" y="440"/>
      <point x="339" y="447"/>
      <point x="306" y="447" type="curve" smooth="yes"/>
      <point x="148" y="447"/>
      <point x="41" y="363"/>
      <point x="41" y="217" type="curve" smooth="yes"/>
      <point x="41" y="85"/>
      <point x="142" y="-8"/>
      <point x="274" y="-8" type="curve" smooth="yes"/>
      <point x="407" y="-8"/>
      <point x="497" y="91"/>
      <point x="497" y="274" type="curve" smooth="yes"/>
      <point x="497" y="461"/>
      <point x="366" y="644"/>
      <point x="192" y="688" type="curve"/>
      <point x="41" y="688" type="line"/>
      <point x="39" y="640" type="line"/>
      <point x="258" y="581"/>
      <point x="361" y="449"/>
      <point x="361" y="228" type="curve" smooth="yes"/>
      <point x="361" y="105"/>
      <point x="337" y="57"/>
      <point x="291" y="57" type="curve" smooth="yes"/>
      <point x="237" y="57"/>
      <point x="184" y="112"/>
      <point x="184" y="233" type="curve" smooth="yes"/>
      <point x="184" y="329"/>
      <point x="229" y="385"/>
      <point x="305" y="385" type="curve" smooth="yes"/>
      <point x="332" y="385"/>
      <point x="367" y="380"/>
    </contour>
    <contour>
      <point x="86" y="478" type="line"/>
      <point x="444" y="642" type="line"/>
      <point x="418" y="698" type="line"/>
      <point x="60" y="534" type="line"/>
    </contour>
  </outline>
</glyph>
<glyph name="oslash" format="1">
  <advance width="542"/>
  <unicode hex="00F8"/>
  <note>
    oslash
  </note>
  <outline>
    <component base="o"/>
    <component base="slashlongcomb" xOffset="-29"/>
    <contour>
      <point x="271" y="440" type="move" name="top"/>
    </contour>
  </outline>
</glyph>
<glyph name="iogonek" format="1">
  <advance width="300"/>
  <unicode hex="012F"/>
  <note>
    iogonek
  </note>
  <outline>
    <contour>
      <point x="286" y="-3" type="curve"/>
      <point x="290" y="46" type="line"/>
      <point x="265" y="49"/>
      <point x="235" y="56"/>
      <point x="223" y="64" type="curve"/>
      <point x="221" y="73"/>
      <point x="218" y="113"/>
      <point x="218" y="164" type="curve" smooth="yes"/>
      <point x="218" y="291" type="line" smooth="yes"/>
      <point x="218" y="350"/>
      <point x="220" y="390"/>
      <point x="224" y="429" type="curve"/>
      <point x="196" y="446" type="line"/>
      <point x="149" y="429"/>
      <point x="78" y="411"/>
      <point x="10" y="400" type="curve"/>
      <point x="10" y="355" type="line"/>
      <point x="33" y="352"/>
      <point x="58" y="348"/>
      <point x="77" y="341" type="curve"/>
      <point x="82" y="311"/>
      <point x="85" y="284"/>
      <point x="85" y="239" type="curve" smooth="yes"/>
      <point x="84" y="164" type="line" smooth="yes"/>
      <point x="83" y="113"/>
      <point x="80" y="71"/>
      <point x="79" y="64" type="curve"/>
      <point x="67" y="56"/>
      <point x="41" y="49"/>
      <point x="13" y="46" type="curve"/>
      <point x="17" y="-3" type="line"/>
      <point x="54" y="0"/>
      <point x="111" y="2"/>
      <point x="152" y="2" type="curve" smooth="yes"/>
      <point x="207" y="2" type="line"/>
      <point x="207" y="15" type="line"/>
      <point x="85" y="-7"/>
      <point x="25" y="-65"/>
      <point x="25" y="-122" type="curve" smooth="yes"/>
      <point x="25" y="-181"/>
      <point x="83" y="-223"/>
      <point x="155" y="-223" type="curve" smooth="yes"/>
      <point x="202" y="-223"/>
      <point x="241" y="-205"/>
      <point x="270" y="-173" type="curve"/>
      <point x="242" y="-134" type="line"/>
      <point x="218" y="-157"/>
      <point x="196" y="-168"/>
      <point x="174" y="-168" type="curve" smooth="yes"/>
      <point x="144" y="-168"/>
      <point x="122" y="-148"/>
      <point x="122" y="-113" type="curve" smooth="yes"/>
      <point x="122" y="-75"/>
      <point x="155" y="-3"/>
    </contour>
    <component base="dotaccentcomb.i" xOffset="-149"/>
  </outline>
</glyph>
<glyph name="idotless" format="1">
  <advance width="300"/>
  <unicode hex="0131"/>
  <note>
    dotlessi
  </note>
  <outline>
    <contour>
      <point x="17" y="-3" type="line"/>
      <point x="54" y="0"/>
      <point x="111" y="2"/>
      <point x="152" y="2" type="curve" smooth="yes"/>
      <point x="193" y="2"/>
      <point x="250" y="0"/>
      <point x="286" y="-3" type="curve"/>
      <point x="290" y="46" type="line"/>
      <point x="265" y="49"/>
      <point x="235" y="56"/>
      <point x="223" y="64" type="curve"/>
      <point x="221" y="73"/>
      <point x="218" y="113"/>
      <point x="218" y="164" type="curve" smooth="yes"/>
      <point x="218" y="291" type="line" smooth="yes"/>
      <point x="218" y="350"/>
      <point x="220" y="390"/>
      <point x="224" y="429" type="curve"/>
      <point x="196" y="446" type="line"/>
      <point x="149" y="429"/>
      <point x="78" y="411"/>
      <point x="10" y="400" type="curve"/>
      <point x="10" y="355" type="line"/>
      <point x="33" y="352"/>
      <point x="58" y="348"/>
      <point x="77" y="341" type="curve"/>
      <point x="82" y="311"/>
      <point x="85" y="284"/>
      <point x="85" y="239" type="curve"/>
      <point x="84" y="164" type="line" smooth="yes"/>
      <point x="83" y="113"/>
      <point x="80" y="71"/>
      <point x="79" y="64" type="curve"/>
      <point x="67" y="56"/>
      <point x="41" y="49"/>
      <point x="13" y="46" type="curve"/>
    </contour>
    <contour>
      <point x="151" y="0" type="move" name="bottom"/>
    </contour>
    <contour>
      <point x="209" y="0" type="move" name="ogonek"/>
    </contour>
    <contour>
      <point x="151" y="440" type="move" name="top"/>
    </contour>
  </outline>
</glyph>
<glyph name="Eng" format="1">
  <advance width="750"/>
  <unicode hex="014A"/>
  <note>
    Eng
  </note>
  <outline>
    <contour>
      <point x="467" y="-228" type="curve" smooth="yes"/>
      <point x="581" y="-228"/>
      <point x="641" y="-147"/>
      <point x="641" y="22" type="curve" smooth="yes"/>
      <point x="641" y="393" type="line" smooth="yes"/>
      <point x="641" y="527"/>
      <point x="645" y="583"/>
      <point x="649" y="591" type="curve"/>
      <point x="660" y="599"/>
      <point x="694" y="605"/>
      <point x="725" y="607" type="curve"/>
      <point x="722" y="663" type="line"/>
      <point x="685" y="660"/>
      <point x="643" y="659"/>
      <point x="608" y="659" type="curve" smooth="yes"/>
      <point x="575" y="659"/>
      <point x="521" y="660"/>
      <point x="484" y="663" type="curve"/>
      <point x="481" y="607" type="line"/>
      <point x="512" y="605"/>
      <point x="546" y="599"/>
      <point x="557" y="591" type="curve"/>
      <point x="561" y="583"/>
      <point x="565" y="527"/>
      <point x="565" y="393" type="curve" smooth="yes"/>
      <point x="565" y="191" type="line"/>
      <point x="604" y="191" type="line"/>
      <point x="207" y="661" type="line"/>
      <point x="188" y="660"/>
      <point x="150" y="659"/>
      <point x="125" y="659" type="curve" smooth="yes"/>
      <point x="100" y="659"/>
      <point x="68" y="660"/>
      <point x="33" y="662" type="curve"/>
      <point x="30" y="607" type="line"/>
      <point x="58" y="606"/>
      <point x="90" y="599"/>
      <point x="101" y="591" type="curve"/>
      <point x="105" y="583"/>
      <point x="109" y="527"/>
      <point x="109" y="442" type="curve" smooth="yes"/>
      <point x="109" y="277" type="line" smooth="yes"/>
      <point x="109" y="133"/>
      <point x="105" y="77"/>
      <point x="101" y="69" type="curve"/>
      <point x="90" y="61"/>
      <point x="56" y="54"/>
      <point x="25" y="51" type="curve"/>
      <point x="28" y="-5" type="line"/>
      <point x="65" y="-1"/>
      <point x="113" y="2"/>
      <point x="145" y="2" type="curve" smooth="yes"/>
      <point x="177" y="2"/>
      <point x="234" y="-1"/>
      <point x="271" y="-5" type="curve"/>
      <point x="274" y="51" type="line"/>
      <point x="243" y="54"/>
      <point x="209" y="61"/>
      <point x="198" y="69" type="curve"/>
      <point x="194" y="77"/>
      <point x="188" y="133"/>
      <point x="189" y="277" type="curve" smooth="yes"/>
      <point x="190" y="529" type="line"/>
      <point x="138" y="529" type="line"/>
      <point x="579" y="-5" type="line"/>
      <point x="564" y="66" type="line"/>
      <point x="564" y="-30" type="line" smooth="yes"/>
      <point x="564" y="-142"/>
      <point x="514" y="-174"/>
      <point x="464" y="-166" type="curve"/>
      <point x="521" y="-190" type="line"/>
      <point x="446" y="-122" type="line" smooth="yes"/>
      <point x="417" y="-96"/>
      <point x="397" y="-87"/>
      <point x="373" y="-87" type="curve" smooth="yes"/>
      <point x="344" y="-87"/>
      <point x="321" y="-105"/>
      <point x="321" y="-138" type="curve" smooth="yes"/>
      <point x="321" y="-190"/>
      <point x="387" y="-228"/>
    </contour>
  </outline>
</glyph>
<glyph name="eng" format="1">
  <advance width="584"/>
  <unicode hex="014B"/>
  <note>
    eng
  </note>
  <outline>
    <contour>
      <point x="509" y="23" type="curve"/>
      <point x="507" y="268" type="line"/>
      <point x="507" y="382"/>
      <point x="442" y="448"/>
      <point x="359" y="448" type="curve" smooth="yes"/>
      <point x="307" y="448"/>
      <point x="256" y="423"/>
      <point x="213" y="371" type="curve"/>
      <point x="210" y="372" type="line"/>
      <point x="216" y="429" type="line"/>
      <point x="188" y="446" type="line"/>
      <point x="142" y="429"/>
      <point x="76" y="411"/>
      <point x="8" y="400" type="curve"/>
      <point x="8" y="355" type="line"/>
      <point x="31" y="352"/>
      <point x="56" y="348"/>
      <point x="75" y="341" type="curve"/>
      <point x="80" y="311"/>
      <point x="83" y="284"/>
      <point x="83" y="239" type="curve" smooth="yes"/>
      <point x="82" y="164" type="line" smooth="yes"/>
      <point x="81" y="113"/>
      <point x="78" y="71"/>
      <point x="77" y="64" type="curve"/>
      <point x="65" y="56"/>
      <point x="38" y="49"/>
      <point x="14" y="46" type="curve"/>
      <point x="18" y="-3" type="line"/>
      <point x="52" y="0"/>
      <point x="109" y="2"/>
      <point x="149" y="2" type="curve" smooth="yes"/>
      <point x="189" y="2"/>
      <point x="246" y="0"/>
      <point x="280" y="-3" type="curve"/>
      <point x="284" y="46" type="line"/>
      <point x="262" y="49"/>
      <point x="231" y="56"/>
      <point x="219" y="64" type="curve"/>
      <point x="217" y="73"/>
      <point x="214" y="113"/>
      <point x="214" y="164" type="curve" smooth="yes"/>
      <point x="214" y="311" type="line"/>
      <point x="236" y="339"/>
      <point x="266" y="354"/>
      <point x="296" y="354" type="curve" smooth="yes"/>
      <point x="340" y="354"/>
      <point x="377" y="323"/>
      <point x="377" y="248" type="curve"/>
      <point x="376" y="-11" type="line"/>
      <point x="376" y="-93"/>
      <point x="349" y="-145"/>
      <point x="288" y="-185" type="curve"/>
      <point x="312" y="-230" type="line"/>
      <point x="421" y="-189"/>
      <point x="509" y="-85"/>
    </contour>
  </outline>
</glyph>
<glyph name="Uhorn" format="1">
  <advance width="756"/>
  <unicode hex="01AF"/>
  <note>
    Uhorn
  </note>
  <outline>
    <contour>
      <point x="390" y="-10" type="curve" smooth="yes"/>
      <point x="538" y="-10"/>
      <point x="651" y="80"/>
      <point x="651" y="273" type="curve" smooth="yes"/>
      <point x="651" y="401" type="line" smooth="yes"/>
      <point x="651" y="510"/>
      <point x="653" y="581"/>
      <point x="658" y="616" type="curve"/>
      <point x="642" y="602" type="line"/>
      <point x="715" y="609"/>
      <point x="784" y="650"/>
      <point x="784" y="728" type="curve" smooth="yes"/>
      <point x="784" y="791"/>
      <point x="731" y="800"/>
      <point x="669" y="792" type="curve"/>
      <point x="667" y="732" type="line" smooth="yes"/>
      <point x="666" y="686"/>
      <point x="637" y="660"/>
      <point x="601" y="660" type="curve" smooth="yes"/>
      <point x="565" y="660"/>
      <point x="523" y="661"/>
      <point x="486" y="662" type="curve"/>
      <point x="483" y="606" type="line"/>
      <point x="514" y="606"/>
      <point x="546" y="599"/>
      <point x="557" y="591" type="curve"/>
      <point x="561" y="583"/>
      <point x="565" y="507"/>
      <point x="565" y="401" type="curve" smooth="yes"/>
      <point x="565" y="286" type="line" smooth="yes"/>
      <point x="565" y="139"/>
      <point x="504" y="84"/>
      <point x="414" y="84" type="curve" smooth="yes"/>
      <point x="305" y="84"/>
      <point x="244" y="144"/>
      <point x="245" y="283" type="curve" smooth="yes"/>
      <point x="246" y="421" type="line" smooth="yes"/>
      <point x="247" y="527"/>
      <point x="249" y="573"/>
      <point x="254" y="591" type="curve"/>
      <point x="265" y="599"/>
      <point x="297" y="606"/>
      <point x="328" y="606" type="curve"/>
      <point x="325" y="662" type="line"/>
      <point x="288" y="661"/>
      <point x="231" y="659"/>
      <point x="176" y="659" type="curve" smooth="yes"/>
      <point x="121" y="659"/>
      <point x="64" y="661"/>
      <point x="30" y="662" type="curve"/>
      <point x="27" y="606" type="line"/>
      <point x="55" y="606"/>
      <point x="87" y="599"/>
      <point x="98" y="591" type="curve"/>
      <point x="102" y="583"/>
      <point x="106" y="527"/>
      <point x="106" y="421" type="curve" smooth="yes"/>
      <point x="106" y="266" type="line" smooth="yes"/>
      <point x="106" y="88"/>
      <point x="211" y="-10"/>
    </contour>
    <contour>
      <point x="405" y="0" type="move" name="bottom"/>
    </contour>
    <contour>
      <point x="680" y="10" type="move" name="ogonek"/>
    </contour>
    <contour>
      <point x="406" y="660" type="move" name="top"/>
    </contour>
  </outline>
</glyph>
<glyph name="Oogonek" format="1">
  <advance width="791"/>
  <unicode hex="01EA"/>
  <outline>
    <contour>
      <point x="426" y="-223" type="curve" smooth="yes"/>
      <point x="473" y="-223"/>
      <point x="512" y="-205"/>
      <point x="541" y="-173" type="curve"/>
      <point x="513" y="-134" type="line"/>
      <point x="489" y="-157"/>
      <point x="467" y="-168"/>
      <point x="445" y="-168" type="curve" smooth="yes"/>
      <point x="415" y="-168"/>
      <point x="393" y="-148"/>
      <point x="393" y="-113" type="curve" smooth="yes"/>
      <point x="393" y="-75"/>
      <point x="421" y="-26"/>
      <point x="521" y="13" type="curve" smooth="yes"/>
      <point x="638" y="59"/>
      <point x="739" y="172"/>
      <point x="739" y="337" type="curve" smooth="yes"/>
      <point x="739" y="534"/>
      <point x="601" y="670"/>
      <point x="404" y="670" type="curve" smooth="yes"/>
      <point x="202" y="670"/>
      <point x="52" y="524"/>
      <point x="52" y="323" type="curve" smooth="yes"/>
      <point x="52" y="127"/>
      <point x="199" y="-10"/>
      <point x="403" y="-10" type="curve" smooth="yes"/>
      <point x="430" y="-10" type="line"/>
      <point x="465" y="25" type="line"/>
      <point x="354" y="-12"/>
      <point x="296" y="-65"/>
      <point x="296" y="-122" type="curve" smooth="yes"/>
      <point x="296" y="-181"/>
      <point x="354" y="-223"/>
    </contour>
    <contour>
      <point x="412" y="65" type="curve" smooth="yes"/>
      <point x="297" y="65"/>
      <point x="215" y="183"/>
      <point x="215" y="352" type="curve" smooth="yes"/>
      <point x="215" y="505"/>
      <point x="280" y="602"/>
      <point x="391" y="602" type="curve" smooth="yes"/>
      <point x="505" y="602"/>
      <point x="579" y="484"/>
      <point x="579" y="310" type="curve" smooth="yes"/>
      <point x="579" y="154"/>
      <point x="519" y="65"/>
    </contour>
    <contour>
      <point x="396" y="330" type="move" name="center"/>
    </contour>
    <contour>
      <point x="396" y="660" type="move" name="top"/>
    </contour>
    <contour>
      <point x="20" y="660" type="move" name="topleft"/>
    </contour>
    <contour>
      <point x="771" y="660" type="move" name="topright"/>
    </contour>
  </outline>
</glyph>
<glyph name="oogonek" format="1">
  <advance width="542"/>
  <unicode hex="01EB"/>
  <outline>
    <contour>
      <point x="291" y="-223" type="curve" smooth="yes"/>
      <point x="338" y="-223"/>
      <point x="377" y="-205"/>
      <point x="406" y="-173" type="curve"/>
      <point x="378" y="-134" type="line"/>
      <point x="354" y="-157"/>
      <point x="332" y="-168"/>
      <point x="310" y="-168" type="curve" smooth="yes"/>
      <point x="280" y="-168"/>
      <point x="258" y="-148"/>
      <point x="258" y="-113" type="curve" smooth="yes"/>
      <point x="258" y="-75"/>
      <point x="283" y="-31"/>
      <point x="382" y="19" type="curve" smooth="yes"/>
      <point x="448" y="52"/>
      <point x="504" y="129"/>
      <point x="504" y="225" type="curve" smooth="yes"/>
      <point x="504" y="356"/>
      <point x="412" y="448"/>
      <point x="279" y="448" type="curve" smooth="yes"/>
      <point x="154" y="448"/>
      <point x="38" y="363"/>
      <point x="38" y="215" type="curve" smooth="yes"/>
      <point x="38" y="84"/>
      <point x="135" y="-8"/>
      <point x="275" y="-8" type="curve" smooth="yes"/>
      <point x="308" y="-8" type="line"/>
      <point x="333" y="22" type="line"/>
      <point x="222" y="-14"/>
      <point x="161" y="-65"/>
      <point x="161" y="-122" type="curve" smooth="yes"/>
      <point x="161" y="-181"/>
      <point x="219" y="-223"/>
    </contour>
    <contour>
      <point x="285" y="57" type="curve" smooth="yes"/>
      <point x="226" y="57"/>
      <point x="182" y="137"/>
      <point x="182" y="245" type="curve" smooth="yes"/>
      <point x="182" y="333"/>
      <point x="213" y="387"/>
      <point x="263" y="387" type="curve" smooth="yes"/>
      <point x="322" y="387"/>
      <point x="362" y="309"/>
      <point x="362" y="193" type="curve" smooth="yes"/>
      <point x="362" y="107"/>
      <point x="334" y="57"/>
    </contour>
    <contour>
      <point x="271" y="220" type="move" name="center"/>
    </contour>
    <contour>
      <point x="271" y="440" type="move" name="top"/>
    </contour>
    <contour>
      <point x="522" y="440" type="move" name="topright"/>
    </contour>
  </outline>
</glyph>
<glyph name="schwa" format="1">
  <advance width="497"/>
  <unicode hex="0259"/>
  <outline>
    <contour>
      <point x="242" y="448" type="curve" smooth="yes"/>
      <point x="147" y="448"/>
      <point x="76" y="404"/>
      <point x="38" y="325" type="curve"/>
      <point x="69" y="296" type="line"/>
      <point x="104" y="336"/>
      <point x="142" y="353"/>
      <point x="196" y="353" type="curve" smooth="yes"/>
      <point x="276" y="353"/>
      <point x="328" y="291"/>
      <point x="328" y="196" type="curve" smooth="yes"/>
      <point x="328" y="175" type="line" smooth="yes"/>
      <point x="328" y="96"/>
      <point x="296" y="48"/>
      <point x="244" y="48" type="curve" smooth="yes"/>
      <point x="193" y="48"/>
      <point x="164" y="86"/>
      <point x="164" y="150" type="curve" smooth="yes"/>
      <point x="164" y="185" type="line"/>
      <point x="147" y="160" type="line"/>
      <point x="338" y="160" type="line"/>
      <point x="338" y="213" type="line"/>
      <point x="43" y="213" type="line"/>
      <point x="43" y="189" type="line" smooth="yes"/>
      <point x="43" y="69"/>
      <point x="119" y="-8"/>
      <point x="240" y="-8" type="curve" smooth="yes"/>
      <point x="361" y="-8"/>
      <point x="460" y="87"/>
      <point x="460" y="227" type="curve" smooth="yes"/>
      <point x="460" y="354"/>
      <point x="368" y="448"/>
    </contour>
  </outline>
</glyph>
<glyph name="primemod" format="1">
  <advance width="600"/>
  <unicode hex="02B9"/>
  <note>
    acutecomb
  </note>
  <outline>
    <contour>
      <point x="330" y="483" type="line"/>
      <point x="490" y="654" type="line"/>
      <point x="369" y="677" type="line"/>
      <point x="270" y="504" type="line"/>
    </contour>
    <contour>
      <point x="300" y="440" type="move" name="_top"/>
    </contour>
    <contour>
      <point x="300" y="687" type="move" name="top"/>
    </contour>
  </outline>
</glyph>
<glyph name="ringhalfright" format="1">
  <advance width="600"/>
  <unicode hex="02BE"/>
  <outline>
    <contour>
      <point x="300" y="484" type="line"/>
      <point x="364" y="484"/>
      <point x="413" y="530"/>
      <point x="413" y="590" type="curve" smooth="yes"/>
      <point x="413" y="650"/>
      <point x="364" y="696"/>
      <point x="300" y="696" type="curve"/>
      <point x="300" y="652" type="line"/>
      <point x="333" y="652"/>
      <point x="358" y="626"/>
      <point x="358" y="591" type="curve" smooth="yes"/>
      <point x="358" y="556"/>
      <point x="333" y="530"/>
      <point x="300" y="530" type="curve"/>
    </contour>
    <contour>
      <point x="300" y="440" type="move" name="_top"/>
    </contour>
    <contour>
      <point x="300" y="662" type="move" name="top"/>
    </contour>
  </outline>
</glyph>
<glyph name="firsttonechinese" format="1">
  <advance width="600"/>
  <unicode hex="02C9"/>
  <note>
    uni0304
  </note>
  <outline>
    <contour>
      <point x="144" y="615" type="line"/>
      <point x="144" y="542" type="line"/>
      <point x="456" y="542" type="line"/>
      <point x="456" y="615" type="line"/>
    </contour>
    <contour>
      <point x="300" y="440" type="move" name="_top"/>
    </contour>
    <contour>
      <point x="300" y="687" type="move" name="top"/>
    </contour>
  </outline>
</glyph>
<glyph name="circumflexcomb" format="1">
  <advance width="600"/>
  <unicode hex="0302"/>
  <note>
    uni0302
  </note>
  <outline>
    <contour>
      <point x="462" y="504" type="line"/>
      <point x="355" y="666" type="line"/>
      <point x="245" y="666" type="line"/>
      <point x="138" y="504" type="line"/>
      <point x="198" y="483" type="line"/>
      <point x="333" y="621" type="line"/>
      <point x="267" y="621" type="line"/>
      <point x="402" y="483" type="line"/>
    </contour>
    <contour>
      <point x="300" y="440" type="move" name="_top"/>
    </contour>
    <contour>
      <point x="300" y="687" type="move" name="top"/>
    </contour>
  </outline>
</glyph>
<glyph name="macroncomb" format="1">
  <advance width="600"/>
  <unicode hex="0304"/>
  <note>
    uni0304
  </note>
  <outline>
    <contour>
      <point x="144" y="615" type="line"/>
      <point x="144" y="542" type="line"/>
      <point x="456" y="542" type="line"/>
      <point x="456" y="615" type="line"/>
    </contour>
    <contour>
      <point x="300" y="440" type="move" name="_top"/>
    </contour>
    <contour>
      <point x="300" y="687" type="move" name="top"/>
    </contour>
  </outline>
</glyph>
<glyph name="dotaccentcomb" format="1">
  <advance width="600"/>
  <unicode hex="0307"/>
  <note>
    uni0307
  </note>
  <outline>
    <contour>
      <point x="301" y="504" type="curve" smooth="yes"/>
      <point x="350" y="504"/>
      <point x="378" y="539"/>
      <point x="378" y="578" type="curve" smooth="yes"/>
      <point x="378" y="617"/>
      <point x="350" y="652"/>
      <point x="301" y="652" type="curve" smooth="yes"/>
      <point x="251" y="652"/>
      <point x="222" y="617"/>
      <point x="222" y="578" type="curve" smooth="yes"/>
      <point x="222" y="539"/>
      <point x="251" y="504"/>
    </contour>
    <contour>
      <point x="300" y="440" type="move" name="_top"/>
    </contour>
    <contour>
      <point x="300" y="662" type="move" name="top"/>
    </contour>
  </outline>
</glyph>
<glyph name="dieresiscomb" format="1">
  <advance width="600"/>
  <unicode hex="0308"/>
  <note>
    uni0308
  </note>
  <outline>
    <contour>
      <point x="206" y="511" type="curve" smooth="yes"/>
      <point x="250" y="511"/>
      <point x="276" y="543"/>
      <point x="276" y="578" type="curve" smooth="yes"/>
      <point x="276" y="613"/>
      <point x="250" y="645"/>
      <point x="206" y="645" type="curve" smooth="yes"/>
      <point x="160" y="645"/>
      <point x="134" y="613"/>
      <point x="134" y="578" type="curve" smooth="yes"/>
      <point x="134" y="543"/>
      <point x="160" y="511"/>
    </contour>
    <contour>
      <point x="396" y="511" type="curve" smooth="yes"/>
      <point x="440" y="511"/>
      <point x="466" y="543"/>
      <point x="466" y="578" type="curve" smooth="yes"/>
      <point x="466" y="613"/>
      <point x="440" y="645"/>
      <point x="396" y="645" type="curve" smooth="yes"/>
      <point x="350" y="645"/>
      <point x="324" y="613"/>
      <point x="324" y="578" type="curve" smooth="yes"/>
      <point x="324" y="543"/>
      <point x="350" y="511"/>
    </contour>
    <contour>
      <point x="300" y="440" type="move" name="_top"/>
    </contour>
    <contour>
      <point x="300" y="662" type="move" name="top"/>
    </contour>
  </outline>
</glyph>
<glyph name="caroncomb" format="1">
  <advance width="600"/>
  <unicode hex="030C"/>
  <note>
    uni030C
  </note>
  <outline>
    <contour>
      <point x="462" y="656" type="line"/>
      <point x="402" y="677" type="line"/>
      <point x="267" y="539" type="line"/>
      <point x="333" y="539" type="line"/>
      <point x="198" y="677" type="line"/>
      <point x="138" y="656" type="line"/>
      <point x="245" y="494" type="line"/>
      <point x="355" y="494" type="line"/>
    </contour>
    <contour>
      <point x="300" y="440" type="move" name="_top"/>
    </contour>
    <contour>
      <point x="300" y="687" type="move" name="top"/>
    </contour>
  </outline>
</glyph>
<glyph name="dblgravecomb" format="1">
  <advance width="600"/>
  <unicode hex="030F"/>
  <outline>
    <contour>
      <point x="208" y="483" type="line"/>
      <point x="263" y="502" type="line"/>
      <point x="203" y="677" type="line"/>
      <point x="110" y="658" type="line"/>
    </contour>
    <contour>
      <point x="337" y="483" type="line"/>
      <point x="392" y="502" type="line"/>
      <point x="332" y="677" type="line"/>
      <point x="239" y="658" type="line"/>
    </contour>
    <contour>
      <point x="300" y="440" type="move" name="_top"/>
    </contour>
    <contour>
      <point x="300" y="687" type="move" name="top"/>
    </contour>
  </outline>
</glyph>
<glyph name="breveinvertedcomb" format="1">
  <advance width="600"/>
  <unicode hex="0311"/>
  <outline>
    <contour>
      <point x="204" y="483" type="line"/>
      <point x="214" y="549"/>
      <point x="250" y="584"/>
      <point x="299" y="584" type="curve" smooth="yes"/>
      <point x="346" y="584"/>
      <point x="382" y="549"/>
      <point x="394" y="483" type="curve"/>
      <point x="458" y="504" type="line"/>
      <point x="453" y="604"/>
      <point x="391" y="669"/>
      <point x="302" y="669" type="curve" smooth="yes"/>
      <point x="213" y="669"/>
      <point x="147" y="604"/>
      <point x="142" y="504" type="curve"/>
    </contour>
    <contour>
      <point x="300" y="440" type="move" name="_top"/>
    </contour>
    <contour>
      <point x="300" y="687" type="move" name="top"/>
    </contour>
  </outline>
</glyph>
<glyph name="commaturnedabovecomb" format="1">
  <advance width="600"/>
  <unicode hex="0312"/>
  <note>
    uni02BB
  </note>
  <outline>
    <contour>
      <point x="378" y="719" type="line"/>
      <point x="273" y="696"/>
      <point x="224" y="629"/>
      <point x="224" y="571" type="curve" smooth="yes"/>
      <point x="224" y="514"/>
      <point x="265" y="491"/>
      <point x="306" y="491" type="curve" smooth="yes"/>
      <point x="347" y="491"/>
      <point x="376" y="515"/>
      <point x="376" y="546" type="curve" smooth="yes"/>
      <point x="376" y="607"/>
      <point x="309" y="596"/>
      <point x="309" y="629" type="curve" smooth="yes"/>
      <point x="309" y="648"/>
      <point x="328" y="670"/>
      <point x="393" y="684" type="curve"/>
    </contour>
    <contour>
      <point x="300" y="440" type="move" name="_top"/>
    </contour>
    <contour>
      <point x="300" y="662" type="move" name="top"/>
    </contour>
  </outline>
</glyph>
<glyph name="dotbelowcomb" format="1">
  <advance width="600"/>
  <unicode hex="0323"/>
  <note>
    uni0323
  </note>
  <outline>
    <contour>
      <point x="301" y="-212" type="curve" smooth="yes"/>
      <point x="350" y="-212"/>
      <point x="378" y="-177"/>
      <point x="378" y="-138" type="curve" smooth="yes"/>
      <point x="378" y="-99"/>
      <point x="350" y="-64"/>
      <point x="301" y="-64" type="curve" smooth="yes"/>
      <point x="251" y="-64"/>
      <point x="222" y="-99"/>
      <point x="222" y="-138" type="curve" smooth="yes"/>
      <point x="222" y="-177"/>
      <point x="251" y="-212"/>
    </contour>
    <contour>
      <point x="300" y="0" type="move" name="_bottom"/>
    </contour>
    <contour>
      <point x="300" y="-220" type="move" name="bottom"/>
    </contour>
  </outline>
</glyph>
<glyph name="slashshortcomb" format="1">
  <advance width="588"/>
  <unicode hex="0337"/>
  <outline>
    <contour>
      <point x="72" y="209" type="line"/>
      <point x="361" y="407" type="line"/>
      <point x="330" y="451" type="line"/>
      <point x="41" y="253" type="line"/>
    </contour>
    <contour>
      <point x="201" y="330" type="move" name="_center"/>
    </contour>
  </outline>
</glyph>
<glyph name="slashlongcomb" format="1">
  <advance width="600"/>
  <unicode hex="0338"/>
  <outline>
    <contour>
      <point x="145" y="-70" type="line"/>
      <point x="504" y="480" type="line"/>
      <point x="455" y="510" type="line"/>
      <point x="96" y="-40" type="line"/>
    </contour>
    <contour>
      <point x="300" y="220" type="move" name="_center"/>
    </contour>
  </outline>
</glyph>
<glyph name="Sigma" format="1">
  <advance width="587"/>
  <unicode hex="03A3"/>
  <note>
    summation
  </note>
  <outline>
    <contour>
      <point x="470" y="218" type="line"/>
      <point x="463" y="174"/>
      <point x="457" y="147"/>
      <point x="450" y="117" type="curve"/>
      <point x="428" y="114"/>
      <point x="405" y="112"/>
      <point x="363" y="112" type="curve" smooth="yes"/>
      <point x="91" y="112" type="line"/>
      <point x="97" y="28" type="line"/>
      <point x="358" y="339" type="line"/>
      <point x="158" y="642" type="line"/>
      <point x="155" y="598" type="line"/>
      <point x="358" y="598" type="line" smooth="yes"/>
      <point x="400" y="598"/>
      <point x="423" y="596"/>
      <point x="445" y="593" type="curve"/>
      <point x="452" y="563"/>
      <point x="458" y="531"/>
      <point x="465" y="478" type="curve"/>
      <point x="529" y="478" type="line"/>
      <point x="531" y="662" type="line"/>
      <point x="496" y="660"/>
      <point x="453" y="660"/>
      <point x="425" y="660" type="curve" smooth="yes"/>
      <point x="109" y="660" type="line" smooth="yes"/>
      <point x="80" y="660"/>
      <point x="50" y="661"/>
      <point x="21" y="662" type="curve"/>
      <point x="21" y="610" type="line"/>
      <point x="256" y="263" type="line"/>
      <point x="270" y="348" type="line"/>
      <point x="24" y="50" type="line"/>
      <point x="24" y="-2" type="line"/>
      <point x="53" y="-1"/>
      <point x="83" y="0"/>
      <point x="112" y="0" type="curve" smooth="yes"/>
      <point x="428" y="0" type="line" smooth="yes"/>
      <point x="456" y="0"/>
      <point x="499" y="0"/>
      <point x="534" y="-2" type="curve"/>
      <point x="532" y="218" type="line"/>
    </contour>
  </outline>
</glyph>
<glyph name="quoteright" format="1">
  <advance width="298"/>
  <unicode hex="2019"/>
  <note>
    quoteright
  </note>
  <outline>
    <contour>
      <point x="54" y="309" type="line"/>
      <point x="186" y="362"/>
      <point x="250" y="457"/>
      <point x="250" y="566" type="curve" smooth="yes"/>
      <point x="250" y="662"/>
      <point x="196" y="698"/>
      <point x="146" y="698" type="curve" smooth="yes"/>
      <point x="93" y="698"/>
      <point x="54" y="661"/>
      <point x="54" y="614" type="curve" smooth="yes"/>
      <point x="54" y="534"/>
      <point x="141" y="540"/>
      <point x="141" y="468" type="curve" smooth="yes"/>
      <point x="141" y="423"/>
      <point x="113" y="384"/>
      <point x="34" y="351" type="curve"/>
    </contour>
  </outline>
</glyph>
<glyph name="quotesinglbase" format="1">
  <advance width="298"/>
  <unicode hex="201A"/>
  <note>
    quotesinglbase
  </note>
  <outline>
    <contour>
      <point x="54" y="-212" type="line"/>
      <point x="186" y="-159"/>
      <point x="250" y="-64"/>
      <point x="250" y="45" type="curve" smooth="yes"/>
      <point x="250" y="141"/>
      <point x="196" y="177"/>
      <point x="146" y="177" type="curve" smooth="yes"/>
      <point x="93" y="177"/>
      <point x="54" y="140"/>
      <point x="54" y="93" type="curve" smooth="yes"/>
      <point x="54" y="13"/>
      <point x="141" y="19"/>
      <point x="141" y="-53" type="curve" smooth="yes"/>
      <point x="141" y="-98"/>
      <point x="113" y="-137"/>
      <point x="34" y="-170" type="curve"/>
    </contour>
  </outline>
</glyph>
<glyph name="daggerdbl" format="1">
  <advance width="504"/>
  <unicode hex="2021"/>
  <note>
    daggerdbl
  </note>
  <outline>
    <contour>
      <point x="414" y="274" type="curve" smooth="yes"/>
      <point x="380" y="274"/>
      <point x="327" y="251"/>
      <point x="285" y="241" type="curve"/>
      <point x="296" y="271"/>
      <point x="308" y="301"/>
      <point x="325" y="344" type="curve"/>
      <point x="308" y="387"/>
      <point x="296" y="417"/>
      <point x="285" y="447" type="curve"/>
      <point x="327" y="437"/>
      <point x="380" y="414"/>
      <point x="414" y="414" type="curve" smooth="yes"/>
      <point x="457" y="414"/>
      <point x="476" y="440"/>
      <point x="476" y="474" type="curve" smooth="yes"/>
      <point x="476" y="508"/>
      <point x="457" y="534"/>
      <point x="414" y="534" type="curve" smooth="yes"/>
      <point x="378" y="534"/>
      <point x="322" y="509"/>
      <point x="278" y="500" type="curve"/>
      <point x="287" y="544"/>
      <point x="312" y="600"/>
      <point x="312" y="636" type="curve" smooth="yes"/>
      <point x="312" y="679"/>
      <point x="286" y="698"/>
      <point x="252" y="698" type="curve" smooth="yes"/>
      <point x="218" y="698"/>
      <point x="192" y="679"/>
      <point x="192" y="636" type="curve" smooth="yes"/>
      <point x="192" y="600"/>
      <point x="217" y="544"/>
      <point x="226" y="500" type="curve"/>
      <point x="182" y="509"/>
      <point x="126" y="534"/>
      <point x="90" y="534" type="curve" smooth="yes"/>
      <point x="47" y="534"/>
      <point x="28" y="508"/>
      <point x="28" y="474" type="curve" smooth="yes"/>
      <point x="28" y="440"/>
      <point x="47" y="414"/>
      <point x="90" y="414" type="curve" smooth="yes"/>
      <point x="124" y="414"/>
      <point x="177" y="437"/>
      <point x="219" y="447" type="curve"/>
      <point x="208" y="417"/>
      <point x="196" y="387"/>
      <point x="179" y="344" type="curve"/>
      <point x="196" y="301"/>
      <point x="208" y="271"/>
      <point x="219" y="241" type="curve"/>
      <point x="177" y="251"/>
      <point x="124" y="274"/>
      <point x="90" y="274" type="curve" smooth="yes"/>
      <point x="47" y="274"/>
      <point x="28" y="248"/>
      <point x="28" y="214" type="curve" smooth="yes"/>
      <point x="28" y="180"/>
      <point x="47" y="154"/>
      <point x="90" y="154" type="curve" smooth="yes"/>
      <point x="126" y="154"/>
      <point x="182" y="179"/>
      <point x="226" y="188" type="curve"/>
      <point x="217" y="144"/>
      <point x="192" y="88"/>
      <point x="192" y="52" type="curve" smooth="yes"/>
      <point x="192" y="9"/>
      <point x="218" y="-10"/>
      <point x="252" y="-10" type="curve" smooth="yes"/>
      <point x="286" y="-10"/>
      <point x="312" y="9"/>
      <point x="312" y="52" type="curve" smooth="yes"/>
      <point x="312" y="88"/>
      <point x="287" y="144"/>
      <point x="278" y="188" type="curve"/>
      <point x="322" y="179"/>
      <point x="378" y="154"/>
      <point x="414" y="154" type="curve" smooth="yes"/>
      <point x="457" y="154"/>
      <point x="476" y="180"/>
      <point x="476" y="214" type="curve" smooth="yes"/>
      <point x="476" y="248"/>
      <point x="457" y="274"/>
    </contour>
  </outline>
</glyph>
<glyph name="bullet" format="1">
  <advance width="420"/>
  <unicode hex="2022"/>
  <note>
    bullet
  </note>
  <outline>
    <contour>
      <point x="210" y="70" type="curve" smooth="yes"/>
      <point x="296" y="70"/>
      <point x="365" y="136"/>
      <point x="365" y="221" type="curve" smooth="yes"/>
      <point x="365" y="308"/>
      <point x="296" y="377"/>
      <point x="210" y="377" type="curve" smooth="yes"/>
      <point x="125" y="377"/>
      <point x="55" y="308"/>
      <point x="55" y="221" type="curve" smooth="yes"/>
      <point x="55" y="136"/>
      <point x="125" y="70"/>
    </contour>
  </outline>
</glyph>
<glyph name="perthousand" format="1">
  <advance width="1287"/>
  <unicode hex="2030"/>
  <note>
    perthousand
  </note>
  <outline>
    <contour>
      <point x="1060" y="-10" type="curve" smooth="yes"/>
      <point x="1160" y="-10"/>
      <point x="1243" y="66"/>
      <point x="1243" y="165" type="curve" smooth="yes"/>
      <point x="1243" y="268"/>
      <point x="1165" y="340"/>
      <point x="1060" y="340" type="curve" smooth="yes"/>
      <point x="961" y="340"/>
      <point x="877" y="263"/>
      <point x="877" y="165" type="curve" smooth="yes"/>
      <point x="877" y="62"/>
      <point x="953" y="-10"/>
    </contour>
    <contour>
      <point x="1060" y="75" type="curve" smooth="yes"/>
      <point x="1013" y="75"/>
      <point x="978" y="111"/>
      <point x="978" y="166" type="curve" smooth="yes"/>
      <point x="978" y="221"/>
      <point x="1013" y="257"/>
      <point x="1060" y="257" type="curve" smooth="yes"/>
      <point x="1108" y="257"/>
      <point x="1145" y="222"/>
      <point x="1145" y="166" type="curve" smooth="yes"/>
      <point x="1145" y="110"/>
      <point x="1108" y="75"/>
    </contour>
    <component base="percent"/>
  </outline>
</glyph>
<glyph name="second" format="1">
  <advance width="538"/>
  <unicode hex="2033"/>
  <note>
    quotedbl
  </note>
  <outline>
    <contour>
      <point x="144" y="698" type="curve" smooth="yes"/>
      <point x="95" y="698"/>
      <point x="59" y="660"/>
      <point x="59" y="595" type="curve" smooth="yes"/>
      <point x="59" y="539"/>
      <point x="101" y="405"/>
      <point x="121" y="330" type="curve"/>
      <point x="167" y="330" type="line"/>
      <point x="187" y="405"/>
      <point x="229" y="539"/>
      <point x="229" y="595" type="curve" smooth="yes"/>
      <point x="229" y="660"/>
      <point x="192" y="698"/>
    </contour>
    <contour>
      <point x="394" y="698" type="curve" smooth="yes"/>
      <point x="345" y="698"/>
      <point x="309" y="660"/>
      <point x="309" y="595" type="curve" smooth="yes"/>
      <point x="309" y="539"/>
      <point x="351" y="405"/>
      <point x="371" y="330" type="curve"/>
      <point x="417" y="330" type="line"/>
      <point x="437" y="405"/>
      <point x="479" y="539"/>
      <point x="479" y="595" type="curve" smooth="yes"/>
      <point x="479" y="660"/>
      <point x="442" y="698"/>
    </contour>
  </outline>
</glyph>
<glyph name="franc" format="1">
  <advance width="568"/>
  <unicode hex="20A3"/>
  <outline>
    <contour>
      <point x="39" y="-5" type="line"/>
      <point x="70" y="-1"/>
      <point x="143" y="0"/>
      <point x="188" y="0" type="curve" smooth="yes"/>
      <point x="233" y="0"/>
      <point x="308" y="-1"/>
      <point x="342" y="-5" type="curve"/>
      <point x="345" y="53" type="line"/>
      <point x="317" y="56"/>
      <point x="281" y="62"/>
      <point x="254" y="69" type="curve"/>
      <point x="250" y="77"/>
      <point x="246" y="133"/>
      <point x="246" y="199" type="curve" smooth="yes"/>
      <point x="246" y="461" type="line" smooth="yes"/>
      <point x="246" y="527"/>
      <point x="246" y="581"/>
      <point x="247" y="596" type="curve"/>
      <point x="263" y="600"/>
      <point x="291" y="602"/>
      <point x="316" y="602" type="curve" smooth="yes"/>
      <point x="397" y="602" type="line" smooth="yes"/>
      <point x="414" y="602"/>
      <point x="428" y="601"/>
      <point x="446" y="598" type="curve"/>
      <point x="461" y="569"/>
      <point x="471" y="538"/>
      <point x="487" y="497" type="curve"/>
      <point x="549" y="505" type="line"/>
      <point x="520" y="665" type="line"/>
      <point x="482" y="663"/>
      <point x="408" y="660"/>
      <point x="364" y="660" type="curve" smooth="yes"/>
      <point x="179" y="660" type="line" smooth="yes"/>
      <point x="134" y="660"/>
      <point x="68" y="661"/>
      <point x="34" y="663" type="curve"/>
      <point x="31" y="607" type="line"/>
      <point x="59" y="606"/>
      <point x="91" y="599"/>
      <point x="102" y="591" type="curve"/>
      <point x="106" y="583"/>
      <point x="110" y="527"/>
      <point x="110" y="421" type="curve" smooth="yes"/>
      <point x="110" y="239" type="line" smooth="yes"/>
      <point x="110" y="133"/>
      <point x="106" y="77"/>
      <point x="102" y="69" type="curve"/>
      <point x="91" y="61"/>
      <point x="61" y="54"/>
      <point x="36" y="51" type="curve"/>
    </contour>
    <contour>
      <point x="410" y="265" type="curve"/>
      <point x="469" y="265" type="line"/>
      <point x="468" y="291"/>
      <point x="466" y="321"/>
      <point x="466" y="356" type="curve" smooth="yes"/>
      <point x="466" y="391"/>
      <point x="468" y="419"/>
      <point x="469" y="446" type="curve"/>
      <point x="410" y="446" type="line"/>
      <point x="407" y="429"/>
      <point x="401" y="401"/>
      <point x="397" y="391" type="curve"/>
      <point x="388" y="390"/>
      <point x="365" y="388"/>
      <point x="337" y="388" type="curve" smooth="yes"/>
      <point x="273" y="388" type="line" smooth="yes"/>
      <point x="248" y="388"/>
      <point x="225" y="390"/>
      <point x="209" y="391" type="curve"/>
      <point x="209" y="320" type="line"/>
      <point x="225" y="321"/>
      <point x="248" y="323"/>
      <point x="273" y="323" type="curve" smooth="yes"/>
      <point x="337" y="323" type="line" smooth="yes"/>
      <point x="365" y="323"/>
      <point x="388" y="321"/>
      <point x="397" y="320" type="curve"/>
      <point x="401" y="311"/>
      <point x="407" y="282"/>
    </contour>
    <contour>
      <point x="10" y="139" type="line"/>
      <point x="440" y="139" type="line"/>
      <point x="440" y="201" type="line"/>
      <point x="10" y="201" type="line"/>
    </contour>
  </outline>
</glyph>
<glyph name="lira" format="1">
  <advance width="616"/>
  <unicode hex="20A4"/>
  <note>
    lira
  </note>
  <outline>
    <contour>
      <point x="66" y="-12" type="line"/>
      <point x="150" y="12"/>
      <point x="180" y="18"/>
      <point x="222" y="18" type="curve" smooth="yes"/>
      <point x="305" y="18"/>
      <point x="339" y="-10"/>
      <point x="435" y="-10" type="curve" smooth="yes"/>
      <point x="520" y="-10"/>
      <point x="581" y="43"/>
      <point x="616" y="146" type="curve"/>
      <point x="568" y="168" type="line"/>
      <point x="545" y="119"/>
      <point x="520" y="101"/>
      <point x="474" y="101" type="curve" smooth="yes"/>
      <point x="429" y="101"/>
      <point x="379" y="121"/>
      <point x="338" y="121" type="curve" smooth="yes"/>
      <point x="282" y="121"/>
      <point x="250" y="101"/>
      <point x="159" y="49" type="curve"/>
      <point x="161" y="34" type="line"/>
      <point x="277" y="121"/>
      <point x="303" y="171"/>
      <point x="303" y="253" type="curve" smooth="yes"/>
      <point x="303" y="337"/>
      <point x="250" y="438"/>
      <point x="250" y="508" type="curve" smooth="yes"/>
      <point x="250" y="581"/>
      <point x="301" y="619"/>
      <point x="385" y="610" type="curve"/>
      <point x="326" y="645" type="line"/>
      <point x="431" y="551" type="line" smooth="yes"/>
      <point x="456" y="528"/>
      <point x="474" y="520"/>
      <point x="502" y="520" type="curve" smooth="yes"/>
      <point x="535" y="520"/>
      <point x="558" y="543"/>
      <point x="558" y="574" type="curve" smooth="yes"/>
      <point x="558" y="631"/>
      <point x="483" y="670"/>
      <point x="375" y="670" type="curve" smooth="yes"/>
      <point x="215" y="670"/>
      <point x="101" y="586"/>
      <point x="101" y="468" type="curve" smooth="yes"/>
      <point x="101" y="395"/>
      <point x="177" y="283"/>
      <point x="177" y="181" type="curve" smooth="yes"/>
      <point x="177" y="102"/>
      <point x="145" y="67"/>
      <point x="52" y="44" type="curve"/>
    </contour>
    <contour>
      <point x="35" y="370" type="line"/>
      <point x="470" y="370" type="line"/>
      <point x="470" y="432" type="line"/>
      <point x="35" y="432" type="line"/>
    </contour>
    <contour>
      <point x="35" y="238" type="line"/>
      <point x="470" y="238" type="line"/>
      <point x="470" y="300" type="line"/>
      <point x="35" y="300" type="line"/>
    </contour>
  </outline>
</glyph>
<glyph name="naira" format="1">
  <advance width="770"/>
  <unicode hex="20A6"/>
  <outline>
    <contour>
      <point x="575" y="186" type="line"/>
      <point x="614" y="186" type="line"/>
      <point x="217" y="661" type="line"/>
      <point x="198" y="660"/>
      <point x="160" y="659"/>
      <point x="135" y="659" type="curve" smooth="yes"/>
      <point x="110" y="659"/>
      <point x="78" y="660"/>
      <point x="43" y="662" type="curve"/>
      <point x="40" y="607" type="line"/>
      <point x="68" y="606"/>
      <point x="100" y="599"/>
      <point x="111" y="591" type="curve"/>
      <point x="115" y="583"/>
      <point x="119" y="527"/>
      <point x="119" y="442" type="curve" smooth="yes"/>
      <point x="119" y="277" type="line" smooth="yes"/>
      <point x="119" y="133"/>
      <point x="115" y="77"/>
      <point x="111" y="69" type="curve"/>
      <point x="100" y="61"/>
      <point x="66" y="54"/>
      <point x="35" y="51" type="curve"/>
      <point x="38" y="-5" type="line"/>
      <point x="75" y="-1"/>
      <point x="123" y="2"/>
      <point x="155" y="2" type="curve" smooth="yes"/>
      <point x="187" y="2"/>
      <point x="244" y="-1"/>
      <point x="281" y="-5" type="curve"/>
      <point x="284" y="51" type="line"/>
      <point x="253" y="54"/>
      <point x="219" y="61"/>
      <point x="208" y="69" type="curve"/>
      <point x="204" y="77"/>
      <point x="198" y="133"/>
      <point x="199" y="277" type="curve" smooth="yes"/>
      <point x="200" y="534" type="line"/>
      <point x="148" y="534" type="line"/>
      <point x="589" y="-5" type="line"/>
      <point x="652" y="-5" type="line"/>
      <point x="652" y="47"/>
      <point x="651" y="97"/>
      <point x="651" y="158" type="curve" smooth="yes"/>
      <point x="651" y="393" type="line" smooth="yes"/>
      <point x="651" y="527"/>
      <point x="655" y="583"/>
      <point x="659" y="591" type="curve"/>
      <point x="670" y="599"/>
      <point x="704" y="605"/>
      <point x="735" y="607" type="curve"/>
      <point x="732" y="663" type="line"/>
      <point x="695" y="660"/>
      <point x="653" y="659"/>
      <point x="618" y="659" type="curve" smooth="yes"/>
      <point x="585" y="659"/>
      <point x="531" y="660"/>
      <point x="494" y="663" type="curve"/>
      <point x="491" y="607" type="line"/>
      <point x="522" y="605"/>
      <point x="556" y="599"/>
      <point x="567" y="591" type="curve"/>
      <point x="571" y="583"/>
      <point x="575" y="527"/>
      <point x="575" y="393" type="curve" smooth="yes"/>
    </contour>
    <contour>
      <point x="20" y="314" type="line"/>
      <point x="750" y="314" type="line"/>
      <point x="750" y="376" type="line"/>
      <point x="20" y="376" type="line"/>
    </contour>
  </outline>
</glyph>
<glyph name="peseta" format="1">
  <advance width="670"/>
  <unicode hex="20A7"/>
  <outline>
    <contour>
      <point x="38" y="-5" type="line"/>
      <point x="69" y="-1"/>
      <point x="142" y="0"/>
      <point x="187" y="0" type="curve" smooth="yes"/>
      <point x="232" y="0"/>
      <point x="307" y="-1"/>
      <point x="343" y="-5" type="curve"/>
      <point x="346" y="53" type="line"/>
      <point x="316" y="56"/>
      <point x="280" y="62"/>
      <point x="253" y="69" type="curve"/>
      <point x="249" y="77"/>
      <point x="245" y="133"/>
      <point x="245" y="199" type="curve" smooth="yes"/>
      <point x="245" y="416" type="line" smooth="yes"/>
      <point x="245" y="525"/>
      <point x="245" y="582"/>
      <point x="246" y="597" type="curve"/>
      <point x="260" y="601"/>
      <point x="274" y="602"/>
      <point x="296" y="602" type="curve" smooth="yes"/>
      <point x="375" y="602"/>
      <point x="425" y="546"/>
      <point x="425" y="449" type="curve" smooth="yes"/>
      <point x="425" y="366"/>
      <point x="382" y="321"/>
      <point x="312" y="321" type="curve" smooth="yes"/>
      <point x="276" y="321"/>
      <point x="249" y="327"/>
      <point x="228" y="337" type="curve"/>
      <point x="228" y="264" type="line"/>
      <point x="250" y="259"/>
      <point x="284" y="255"/>
      <point x="308" y="255" type="curve" smooth="yes"/>
      <point x="464" y="255"/>
      <point x="571" y="344"/>
      <point x="571" y="465" type="curve" smooth="yes"/>
      <point x="571" y="589"/>
      <point x="475" y="661"/>
      <point x="314" y="661" type="curve" smooth="yes"/>
      <point x="265" y="661"/>
      <point x="228" y="659"/>
      <point x="192" y="659" type="curve" smooth="yes"/>
      <point x="127" y="659"/>
      <point x="67" y="659"/>
      <point x="33" y="661" type="curve"/>
      <point x="30" y="605" type="line"/>
      <point x="58" y="604"/>
      <point x="90" y="599"/>
      <point x="101" y="591" type="curve"/>
      <point x="105" y="583"/>
      <point x="109" y="527"/>
      <point x="109" y="421" type="curve" smooth="yes"/>
      <point x="109" y="239" type="line" smooth="yes"/>
      <point x="109" y="133"/>
      <point x="105" y="77"/>
      <point x="101" y="69" type="curve"/>
      <point x="90" y="61"/>
      <point x="60" y="54"/>
      <point x="35" y="51" type="curve"/>
    </contour>
    <contour>
      <point x="10" y="429" type="line"/>
      <point x="655" y="429" type="line"/>
      <point x="655" y="491" type="line"/>
      <point x="10" y="491" type="line"/>
    </contour>
  </outline>
</glyph>
<glyph name="dong" format="1">
  <advance width="570"/>
  <unicode hex="20AB"/>
  <outline>
    <contour>
      <point x="57" y="-108" type="line"/>
      <point x="558" y="-108" type="line"/>
      <point x="558" y="-54" type="line"/>
      <point x="57" y="-54" type="line"/>
    </contour>
    <component base="dcroat"/>
  </outline>
</glyph>
<glyph name="euro" format="1">
  <advance width="739"/>
  <unicode hex="20AC"/>
  <note>
    Euro
  </note>
  <outline>
    <contour>
      <point x="469" y="-10" type="curve" smooth="yes"/>
      <point x="553" y="-10"/>
      <point x="638" y="15"/>
      <point x="685" y="44" type="curve"/>
      <point x="698" y="93"/>
      <point x="708" y="142"/>
      <point x="717" y="191" type="curve"/>
      <point x="646" y="198" type="line"/>
      <point x="633" y="165"/>
      <point x="621" y="131"/>
      <point x="604" y="96" type="curve"/>
      <point x="578" y="73"/>
      <point x="531" y="61"/>
      <point x="492" y="61" type="curve" smooth="yes"/>
      <point x="368" y="61"/>
      <point x="269" y="165"/>
      <point x="269" y="354" type="curve" smooth="yes"/>
      <point x="269" y="494"/>
      <point x="341" y="602"/>
      <point x="481" y="602" type="curve" smooth="yes"/>
      <point x="519" y="602"/>
      <point x="558" y="593"/>
      <point x="586" y="577" type="curve"/>
      <point x="601" y="540"/>
      <point x="613" y="501"/>
      <point x="625" y="463" type="curve"/>
      <point x="689" y="467" type="line"/>
      <point x="681" y="633" type="line"/>
      <point x="633" y="655"/>
      <point x="558" y="670"/>
      <point x="493" y="670" type="curve" smooth="yes"/>
      <point x="262" y="670"/>
      <point x="104" y="527"/>
      <point x="104" y="320" type="curve" smooth="yes"/>
      <point x="104" y="107"/>
      <point x="256" y="-10"/>
    </contour>
    <contour>
      <point x="15" y="370" type="line"/>
      <point x="500" y="370" type="line"/>
      <point x="500" y="432" type="line"/>
      <point x="15" y="432" type="line"/>
    </contour>
    <contour>
      <point x="15" y="238" type="line"/>
      <point x="500" y="238" type="line"/>
      <point x="500" y="300" type="line"/>
      <point x="15" y="300" type="line"/>
    </contour>
  </outline>
</glyph>
<glyph name="kip" format="1">
  <advance width="714"/>
  <unicode hex="20AD"/>
  <outline>
    <contour>
      <point x="402" y="-5" type="line"/>
      <point x="433" y="-2"/>
      <point x="507" y="2"/>
      <point x="561" y="2" type="curve" smooth="yes"/>
      <point x="615" y="2"/>
      <point x="681" y="1"/>
      <point x="717" y="-2" type="curve"/>
      <point x="717" y="53" type="line"/>
      <point x="698" y="55"/>
      <point x="678" y="59"/>
      <point x="662" y="63" type="curve"/>
      <point x="649" y="75"/>
      <point x="626" y="95"/>
      <point x="580" y="152" type="curve" smooth="yes"/>
      <point x="411" y="360" type="line"/>
      <point x="386" y="360" type="line"/>
      <point x="619" y="594" type="line"/>
      <point x="641" y="599"/>
      <point x="668" y="603"/>
      <point x="692" y="605" type="curve"/>
      <point x="689" y="661" type="line"/>
      <point x="661" y="660"/>
      <point x="600" y="659"/>
      <point x="565" y="659" type="curve" smooth="yes"/>
      <point x="530" y="659"/>
      <point x="474" y="659"/>
      <point x="441" y="660" type="curve"/>
      <point x="440" y="604" type="line"/>
      <point x="456" y="603"/>
      <point x="491" y="600"/>
      <point x="511" y="595" type="curve"/>
      <point x="267" y="324" type="line"/>
      <point x="420" y="117" type="line" smooth="yes"/>
      <point x="437" y="94"/>
      <point x="450" y="79"/>
      <point x="460" y="62" type="curve"/>
      <point x="447" y="58"/>
      <point x="419" y="53"/>
      <point x="399" y="51" type="curve"/>
    </contour>
    <contour>
      <point x="36" y="-5" type="line"/>
      <point x="69" y="-1"/>
      <point x="124" y="2"/>
      <point x="178" y="2" type="curve" smooth="yes"/>
      <point x="232" y="2"/>
      <point x="284" y="-1"/>
      <point x="312" y="-5" type="curve"/>
      <point x="315" y="51" type="line"/>
      <point x="292" y="54"/>
      <point x="263" y="61"/>
      <point x="252" y="69" type="curve"/>
      <point x="249" y="77"/>
      <point x="247" y="133"/>
      <point x="247" y="239" type="curve" smooth="yes"/>
      <point x="247" y="421" type="line" smooth="yes"/>
      <point x="247" y="527"/>
      <point x="251" y="583"/>
      <point x="255" y="591" type="curve"/>
      <point x="266" y="599"/>
      <point x="298" y="606"/>
      <point x="326" y="607" type="curve"/>
      <point x="323" y="663" type="line"/>
      <point x="289" y="661"/>
      <point x="232" y="658"/>
      <point x="178" y="658" type="curve" smooth="yes"/>
      <point x="124" y="658"/>
      <point x="67" y="661"/>
      <point x="33" y="663" type="curve"/>
      <point x="30" y="607" type="line"/>
      <point x="58" y="606"/>
      <point x="90" y="599"/>
      <point x="101" y="591" type="curve"/>
      <point x="105" y="583"/>
      <point x="109" y="527"/>
      <point x="109" y="421" type="curve" smooth="yes"/>
      <point x="109" y="239" type="line" smooth="yes"/>
      <point x="109" y="133"/>
      <point x="106" y="77"/>
      <point x="103" y="69" type="curve"/>
      <point x="91" y="61"/>
      <point x="60" y="54"/>
      <point x="33" y="51" type="curve"/>
    </contour>
    <contour>
      <point x="10" y="314" type="line"/>
      <point x="619" y="314" type="line"/>
      <point x="619" y="376" type="line"/>
      <point x="10" y="376" type="line"/>
    </contour>
  </outline>
</glyph>
<glyph name="guarani" format="1">
  <advance width="731"/>
  <unicode hex="20B2"/>
  <outline>
    <contour>
      <point x="420" y="-10" type="curve" smooth="yes"/>
      <point x="495" y="-10"/>
      <point x="586" y="16"/>
      <point x="649" y="58" type="curve"/>
      <point x="647" y="99"/>
      <point x="646" y="129"/>
      <point x="646" y="161" type="curve" smooth="yes"/>
      <point x="646" y="197"/>
      <point x="646" y="233"/>
      <point x="649" y="241" type="curve"/>
      <point x="658" y="249"/>
      <point x="680" y="256"/>
      <point x="700" y="259" type="curve"/>
      <point x="697" y="313" type="line"/>
      <point x="673" y="311"/>
      <point x="620" y="309"/>
      <point x="569" y="309" type="curve" smooth="yes"/>
      <point x="517" y="309"/>
      <point x="491" y="309"/>
      <point x="479" y="309" type="curve"/>
      <point x="479" y="255" type="line"/>
      <point x="489" y="252"/>
      <point x="498" y="248"/>
      <point x="502" y="244" type="curve"/>
      <point x="506" y="235"/>
      <point x="512" y="197"/>
      <point x="512" y="121" type="curve" smooth="yes"/>
      <point x="512" y="25" type="line"/>
      <point x="533" y="85" type="line"/>
      <point x="505" y="67"/>
      <point x="469" y="59"/>
      <point x="443" y="59" type="curve" smooth="yes"/>
      <point x="317" y="59"/>
      <point x="216" y="165"/>
      <point x="216" y="355" type="curve" smooth="yes"/>
      <point x="216" y="494"/>
      <point x="292" y="602"/>
      <point x="432" y="602" type="curve" smooth="yes"/>
      <point x="462" y="602"/>
      <point x="504" y="595"/>
      <point x="536" y="577" type="curve"/>
      <point x="551" y="543"/>
      <point x="560" y="510"/>
      <point x="571" y="475" type="curve"/>
      <point x="636" y="478" type="line"/>
      <point x="630" y="633" type="line"/>
      <point x="583" y="655"/>
      <point x="508" y="670"/>
      <point x="444" y="670" type="curve" smooth="yes"/>
      <point x="214" y="670"/>
      <point x="52" y="527"/>
      <point x="52" y="318" type="curve" smooth="yes"/>
      <point x="52" y="107"/>
      <point x="206" y="-10"/>
    </contour>
    <contour>
      <point x="375" y="-130" type="line"/>
      <point x="446" y="-130" type="line"/>
      <point x="446" y="790" type="line"/>
      <point x="375" y="790" type="line"/>
    </contour>
  </outline>
</glyph>
<glyph name="rupeeIndian" format="1">
  <advance width="600"/>
  <unicode hex="20B9"/>
  <outline>
    <contour>
      <point x="468" y="-13" type="curve" smooth="yes"/>
      <point x="489" y="-13"/>
      <point x="511" y="-11"/>
      <point x="533" y="-7" type="curve"/>
      <point x="534" y="41" type="line"/>
      <point x="473" y="52"/>
      <point x="420" y="91"/>
      <point x="363" y="162" type="curve" smooth="yes"/>
      <point x="214" y="345" type="line"/>
      <point x="100" y="320" type="line"/>
      <point x="175" y="181" type="line" smooth="yes"/>
      <point x="249" y="43"/>
      <point x="332" y="-13"/>
    </contour>
    <contour>
      <point x="201" y="636" type="curve"/>
      <point x="184" y="598" type="line"/>
      <point x="250" y="598"/>
      <point x="300" y="563"/>
      <point x="300" y="486" type="curve" smooth="yes"/>
      <point x="300" y="404"/>
      <point x="240" y="366"/>
      <point x="169" y="366" type="curve" smooth="yes"/>
      <point x="66" y="366" type="line"/>
      <point x="66" y="304" type="line"/>
      <point x="188" y="304" type="line" smooth="yes"/>
      <point x="336" y="304"/>
      <point x="445" y="379"/>
      <point x="445" y="480" type="curve" smooth="yes"/>
      <point x="445" y="588"/>
      <point x="355" y="636"/>
    </contour>
    <contour>
      <point x="66" y="466" type="line"/>
      <point x="532" y="466" type="line"/>
      <point x="532" y="528" type="line"/>
      <point x="66" y="528" type="line"/>
    </contour>
    <contour>
      <point x="66" y="598" type="line"/>
      <point x="532" y="598" type="line"/>
      <point x="532" y="660" type="line"/>
      <point x="66" y="660" type="line"/>
    </contour>
  </outline>
</glyph>
<glyph name="manat" format="1">
  <advance width="776"/>
  <unicode hex="20BC"/>
  <outline>
    <contour>
      <point x="746" y="-1" type="curve"/>
      <point x="749" y="55" type="line"/>
      <point x="721" y="55"/>
      <point x="689" y="62"/>
      <point x="678" y="70" type="curve"/>
      <point x="674" y="78"/>
      <point x="670" y="134"/>
      <point x="670" y="240" type="curve" smooth="yes"/>
      <point x="670" y="385" type="line" smooth="yes"/>
      <point x="670" y="563"/>
      <point x="555" y="671"/>
      <point x="386" y="671" type="curve" smooth="yes"/>
      <point x="228" y="671"/>
      <point x="105" y="571"/>
      <point x="105" y="378" type="curve" smooth="yes"/>
      <point x="105" y="260" type="line" smooth="yes"/>
      <point x="105" y="154"/>
      <point x="101" y="78"/>
      <point x="97" y="70" type="curve"/>
      <point x="86" y="62"/>
      <point x="54" y="55"/>
      <point x="23" y="55" type="curve"/>
      <point x="26" y="-1" type="line"/>
      <point x="63" y="0"/>
      <point x="117" y="1"/>
      <point x="148" y="1" type="curve" smooth="yes"/>
      <point x="179" y="1"/>
      <point x="233" y="0"/>
      <point x="270" y="-1" type="curve"/>
      <point x="273" y="55" type="line"/>
      <point x="242" y="55"/>
      <point x="210" y="62"/>
      <point x="199" y="70" type="curve"/>
      <point x="195" y="78"/>
      <point x="191" y="154"/>
      <point x="191" y="260" type="curve" smooth="yes"/>
      <point x="191" y="365" type="line" smooth="yes"/>
      <point x="191" y="512"/>
      <point x="262" y="577"/>
      <point x="362" y="577" type="curve" smooth="yes"/>
      <point x="461" y="577"/>
      <point x="532" y="507"/>
      <point x="531" y="368" type="curve" smooth="yes"/>
      <point x="530" y="240" type="line" smooth="yes"/>
      <point x="529" y="134"/>
      <point x="527" y="88"/>
      <point x="522" y="70" type="curve"/>
      <point x="511" y="62"/>
      <point x="479" y="55"/>
      <point x="448" y="55" type="curve"/>
      <point x="451" y="-1" type="line"/>
      <point x="488" y="0"/>
      <point x="545" y="2"/>
      <point x="600" y="2" type="curve" smooth="yes"/>
      <point x="655" y="2"/>
      <point x="712" y="0"/>
    </contour>
    <contour>
      <point x="325" y="200" type="line"/>
      <point x="396" y="200" type="line"/>
      <point x="396" y="790" type="line"/>
      <point x="325" y="790" type="line"/>
    </contour>
  </outline>
</glyph>
<glyph name="emptyset" format="1">
  <advance width="600"/>
  <unicode hex="2205"/>
  <outline>
    <contour>
      <point x="27" y="14" type="line"/>
      <point x="78" y="-20" type="line"/>
      <point x="157" y="82" type="line"/>
      <point x="200" y="59"/>
      <point x="249" y="46"/>
      <point x="301" y="46" type="curve" smooth="yes"/>
      <point x="463" y="46"/>
      <point x="596" y="173"/>
      <point x="596" y="328" type="curve" smooth="yes"/>
      <point x="596" y="410"/>
      <point x="560" y="481"/>
      <point x="506" y="532" type="curve"/>
      <point x="585" y="633" type="line"/>
      <point x="535" y="671" type="line"/>
      <point x="456" y="570" type="line"/>
      <point x="410" y="597"/>
      <point x="356" y="612"/>
      <point x="301" y="612" type="curve" smooth="yes"/>
      <point x="131" y="612"/>
      <point x="4" y="478"/>
      <point x="4" y="328" type="curve" smooth="yes"/>
      <point x="4" y="241"/>
      <point x="44" y="166"/>
      <point x="106" y="116" type="curve"/>
    </contour>
    <contour>
      <point x="149" y="172" type="line"/>
      <point x="106" y="210"/>
      <point x="81" y="266"/>
      <point x="81" y="328" type="curve" smooth="yes"/>
      <point x="81" y="450"/>
      <point x="177" y="541"/>
      <point x="301" y="541" type="curve" smooth="yes"/>
      <point x="342" y="541"/>
      <point x="380" y="530"/>
      <point x="412" y="512" type="curve"/>
    </contour>
    <contour>
      <point x="301" y="115" type="curve" smooth="yes"/>
      <point x="264" y="115"/>
      <point x="230" y="123"/>
      <point x="200" y="137" type="curve"/>
      <point x="462" y="475" type="line"/>
      <point x="498" y="436"/>
      <point x="520" y="385"/>
      <point x="520" y="328" type="curve" smooth="yes"/>
      <point x="520" y="203"/>
      <point x="419" y="115"/>
    </contour>
  </outline>
</glyph>
<glyph name="product" format="1">
  <advance width="730"/>
  <unicode hex="220F"/>
  <outline>
    <contour>
      <point x="621" y="239" type="curve" smooth="yes"/>
      <point x="621" y="421" type="line" smooth="yes"/>
      <point x="621" y="527"/>
      <point x="625" y="583"/>
      <point x="629" y="591" type="curve"/>
      <point x="640" y="599"/>
      <point x="672" y="606"/>
      <point x="700" y="607" type="curve"/>
      <point x="697" y="663" type="line"/>
      <point x="663" y="661"/>
      <point x="606" y="660"/>
      <point x="552" y="660" type="curve" smooth="yes"/>
      <point x="178" y="660" type="line" smooth="yes"/>
      <point x="124" y="660"/>
      <point x="67" y="661"/>
      <point x="33" y="663" type="curve"/>
      <point x="30" y="607" type="line"/>
      <point x="58" y="606"/>
      <point x="90" y="599"/>
      <point x="101" y="591" type="curve"/>
      <point x="105" y="583"/>
      <point x="109" y="527"/>
      <point x="109" y="421" type="curve" smooth="yes"/>
      <point x="109" y="239" type="line" smooth="yes"/>
      <point x="109" y="133"/>
      <point x="105" y="77"/>
      <point x="101" y="69" type="curve"/>
      <point x="90" y="61"/>
      <point x="58" y="54"/>
      <point x="30" y="51" type="curve"/>
      <point x="33" y="-5" type="line"/>
      <point x="67" y="-1"/>
      <point x="124" y="2"/>
      <point x="178" y="2" type="curve" smooth="yes"/>
      <point x="232" y="2"/>
      <point x="287" y="-1"/>
      <point x="321" y="-5" type="curve"/>
      <point x="324" y="51" type="line"/>
      <point x="296" y="54"/>
      <point x="266" y="61"/>
      <point x="255" y="69" type="curve"/>
      <point x="251" y="77"/>
      <point x="247" y="133"/>
      <point x="247" y="239" type="curve" smooth="yes"/>
      <point x="247" y="421" type="line" smooth="yes"/>
      <point x="247" y="517"/>
      <point x="250" y="571"/>
      <point x="254" y="587" type="curve"/>
      <point x="283" y="589"/>
      <point x="322" y="590"/>
      <point x="365" y="590" type="curve" smooth="yes"/>
      <point x="408" y="590"/>
      <point x="447" y="589"/>
      <point x="476" y="587" type="curve"/>
      <point x="480" y="571"/>
      <point x="483" y="517"/>
      <point x="483" y="421" type="curve" smooth="yes"/>
      <point x="483" y="239" type="line" smooth="yes"/>
      <point x="483" y="133"/>
      <point x="479" y="77"/>
      <point x="475" y="69" type="curve"/>
      <point x="464" y="61"/>
      <point x="434" y="54"/>
      <point x="406" y="51" type="curve"/>
      <point x="409" y="-5" type="line"/>
      <point x="443" y="-1"/>
      <point x="498" y="2"/>
      <point x="552" y="2" type="curve" smooth="yes"/>
      <point x="606" y="2"/>
      <point x="663" y="-1"/>
      <point x="697" y="-5" type="curve"/>
      <point x="700" y="51" type="line"/>
      <point x="672" y="54"/>
      <point x="640" y="61"/>
      <point x="629" y="69" type="curve"/>
      <point x="625" y="77"/>
      <point x="621" y="133"/>
    </contour>
  </outline>
</glyph>
<glyph name="minus" format="1">
  <advance width="600"/>
  <unicode hex="2212"/>
  <outline>
    <contour>
      <point x="544" y="330" type="line"/>
      <point x="56" y="330" type="line"/>
      <point x="56" y="242" type="line"/>
      <point x="544" y="242" type="line"/>
    </contour>
  </outline>
</glyph>
<glyph name="divisionslash" format="1">
  <advance width="600"/>
  <unicode hex="2215"/>
  <note>
    slash
  </note>
  <outline>
    <contour>
      <point x="142" y="0" type="line"/>
      <point x="239" y="0" type="line"/>
      <point x="457" y="660" type="line"/>
      <point x="360" y="660" type="line"/>
    </contour>
  </outline>
</glyph>
<glyph name="bulletoperator" format="1">
  <advance width="600"/>
  <unicode hex="2219"/>
  <note>
    periodcentered
  </note>
  <outline>
    <contour>
      <point x="300" y="130" type="curve" smooth="yes"/>
      <point x="353" y="130"/>
      <point x="395" y="170"/>
      <point x="395" y="222" type="curve" smooth="yes"/>
      <point x="395" y="275"/>
      <point x="353" y="317"/>
      <point x="300" y="317" type="curve" smooth="yes"/>
      <point x="248" y="317"/>
      <point x="205" y="275"/>
      <point x="205" y="222" type="curve" smooth="yes"/>
      <point x="205" y="170"/>
      <point x="248" y="130"/>
    </contour>
  </outline>
</glyph>
<glyph name="lozenge" format="1">
  <advance width="600"/>
  <unicode hex="25CA"/>
  <outline>
    <contour>
      <point x="554" y="279" type="line"/>
      <point x="347" y="758" type="line"/>
      <point x="253" y="758" type="line"/>
      <point x="46" y="279" type="line"/>
      <point x="253" y="-200" type="line"/>
      <point x="347" y="-200" type="line"/>
    </contour>
    <contour>
      <point x="453" y="279" type="line"/>
      <point x="300" y="-89" type="line"/>
      <point x="147" y="279" type="line"/>
      <point x="300" y="647" type="line"/>
    </contour>
  </outline>
</glyph>
<glyph name="rightanglebracket-math" format="1">
  <advance width="600"/>
  <unicode hex="27E9"/>
  <outline>
    <contour>
      <point x="424" y="274" type="line"/>
      <point x="274" y="728" type="line"/>
      <point x="177" y="728" type="line"/>
      <point x="327" y="274" type="line"/>
      <point x="177" y="-180" type="line"/>
      <point x="274" y="-180" type="line"/>
    </contour>
  </outline>
</glyph>
<glyph name="acutecomb_dotaccentcomb.case" format="1">
  <advance width="600"/>
  <outline>
    <contour>
      <point x="281" y="846" type="curve" smooth="yes"/>
      <point x="324" y="846"/>
      <point x="349" y="877"/>
      <point x="349" y="911" type="curve" smooth="yes"/>
      <point x="349" y="945"/>
      <point x="324" y="976"/>
      <point x="281" y="976" type="curve" smooth="yes"/>
      <point x="236" y="976"/>
      <point x="211" y="945"/>
      <point x="211" y="911" type="curve" smooth="yes"/>
      <point x="211" y="877"/>
      <point x="236" y="846"/>
    </contour>
    <contour>
      <point x="332" y="703" type="line"/>
      <point x="484" y="834" type="line"/>
      <point x="364" y="857" type="line"/>
      <point x="268" y="724" type="line"/>
    </contour>
    <contour>
      <point x="300" y="660" type="move" name="_top"/>
    </contour>
  </outline>
</glyph>
<glyph name="acutecomb_dotaccentcomb" format="1">
  <advance width="600"/>
  <outline>
    <contour>
      <point x="330" y="483" type="line"/>
      <point x="490" y="654" type="line"/>
      <point x="369" y="677" type="line"/>
      <point x="270" y="504" type="line"/>
    </contour>
    <contour>
      <point x="281" y="660" type="curve" smooth="yes"/>
      <point x="324" y="660"/>
      <point x="349" y="691"/>
      <point x="349" y="725" type="curve" smooth="yes"/>
      <point x="349" y="759"/>
      <point x="324" y="790"/>
      <point x="281" y="790" type="curve" smooth="yes"/>
      <point x="236" y="790"/>
      <point x="211" y="759"/>
      <point x="211" y="725" type="curve" smooth="yes"/>
      <point x="211" y="691"/>
      <point x="236" y="660"/>
    </contour>
    <contour>
      <point x="300" y="440" type="move" name="_top"/>
    </contour>
  </outline>
</glyph>
<glyph name="caroncomb_dotaccentcomb" format="1">
  <advance width="600"/>
  <outline>
    <contour>
      <point x="462" y="656" type="line"/>
      <point x="402" y="677" type="line"/>
      <point x="267" y="539" type="line"/>
      <point x="333" y="539" type="line"/>
      <point x="198" y="677" type="line"/>
      <point x="138" y="656" type="line"/>
      <point x="245" y="494" type="line"/>
      <point x="355" y="494" type="line"/>
    </contour>
    <contour>
      <point x="301" y="660" type="curve" smooth="yes"/>
      <point x="344" y="660"/>
      <point x="369" y="691"/>
      <point x="369" y="725" type="curve" smooth="yes"/>
      <point x="369" y="759"/>
      <point x="344" y="790"/>
      <point x="301" y="790" type="curve" smooth="yes"/>
      <point x="256" y="790"/>
      <point x="231" y="759"/>
      <point x="231" y="725" type="curve" smooth="yes"/>
      <point x="231" y="691"/>
      <point x="256" y="660"/>
    </contour>
    <contour>
      <point x="300" y="440" type="move" name="_top"/>
    </contour>
  </outline>
</glyph>
<glyph name="circumflexcomb.case" format="1">
  <advance width="600"/>
  <note>
    uni0302.cap
  </note>
  <outline>
    <contour>
      <point x="492" y="741" type="line"/>
      <point x="355" y="843" type="line"/>
      <point x="245" y="843" type="line"/>
      <point x="108" y="741" type="line"/>
      <point x="158" y="710" type="line"/>
      <point x="333" y="793" type="line"/>
      <point x="267" y="793" type="line"/>
      <point x="442" y="710" type="line"/>
    </contour>
    <contour>
      <point x="300" y="660" type="move" name="_top"/>
    </contour>
    <contour>
      <point x="300" y="867" type="move" name="top"/>
    </contour>
  </outline>
</glyph>
<glyph name="circumflexcomb_hookabovecomb" format="1">
  <advance width="600"/>
  <outline>
    <contour>
      <point x="462" y="504" type="line"/>
      <point x="355" y="666" type="line"/>
      <point x="245" y="666" type="line"/>
      <point x="138" y="504" type="line"/>
      <point x="198" y="483" type="line"/>
      <point x="333" y="621" type="line"/>
      <point x="267" y="621" type="line"/>
      <point x="402" y="483" type="line"/>
    </contour>
    <contour>
      <point x="447" y="790" type="curve" smooth="yes"/>
      <point x="383" y="790"/>
      <point x="341" y="762"/>
      <point x="341" y="731" type="curve" smooth="yes"/>
      <point x="341" y="714"/>
      <point x="354" y="703"/>
      <point x="373" y="703" type="curve" smooth="yes"/>
      <point x="390" y="703"/>
      <point x="400" y="709"/>
      <point x="412" y="721" type="curve" smooth="yes"/>
      <point x="453" y="765" type="line"/>
      <point x="411" y="749" type="line"/>
      <point x="447" y="758"/>
      <point x="467" y="754"/>
      <point x="467" y="729" type="curve" smooth="yes"/>
      <point x="467" y="702"/>
      <point x="423" y="678"/>
      <point x="423" y="629" type="curve" smooth="yes"/>
      <point x="423" y="612" type="line"/>
      <point x="469" y="612" type="line"/>
      <point x="469" y="657"/>
      <point x="558" y="662"/>
      <point x="558" y="723" type="curve" smooth="yes"/>
      <point x="558" y="765"/>
      <point x="515" y="790"/>
    </contour>
    <contour>
      <point x="300" y="440" type="move" name="_top"/>
    </contour>
  </outline>
</glyph>
<glyph name="circumflexcomb_tildecomb" format="1">
  <advance width="600"/>
  <outline>
    <contour>
      <point x="198" y="483" type="line"/>
      <point x="333" y="594" type="line"/>
      <point x="267" y="594" type="line"/>
      <point x="402" y="483" type="line"/>
      <point x="462" y="504" type="line"/>
      <point x="355" y="635" type="line"/>
      <point x="245" y="635" type="line"/>
      <point x="138" y="504" type="line"/>
    </contour>
    <contour>
      <point x="363" y="662" type="curve" smooth="yes"/>
      <point x="412" y="662"/>
      <point x="450" y="700"/>
      <point x="469" y="766" type="curve"/>
      <point x="429" y="789" type="line"/>
      <point x="412" y="760"/>
      <point x="396" y="747"/>
      <point x="374" y="747" type="curve" smooth="yes"/>
      <point x="339" y="747"/>
      <point x="281" y="790"/>
      <point x="237" y="790" type="curve" smooth="yes"/>
      <point x="188" y="790"/>
      <point x="150" y="752"/>
      <point x="131" y="686" type="curve"/>
      <point x="171" y="663" type="line"/>
      <point x="187" y="692"/>
      <point x="204" y="705"/>
      <point x="226" y="705" type="curve" smooth="yes"/>
      <point x="261" y="705"/>
      <point x="319" y="662"/>
    </contour>
    <contour>
      <point x="300" y="440" type="move" name="_top"/>
    </contour>
  </outline>
</glyph>
<glyph name="dblgravecomb.case" format="1">
  <advance width="600"/>
  <outline>
    <contour>
      <point x="347" y="710" type="line"/>
      <point x="402" y="729" type="line"/>
      <point x="360" y="852" type="line"/>
      <point x="267" y="833" type="line"/>
    </contour>
    <contour>
      <point x="198" y="710" type="line"/>
      <point x="253" y="729" type="line"/>
      <point x="211" y="852" type="line"/>
      <point x="118" y="833" type="line"/>
    </contour>
    <contour>
      <point x="300" y="660" type="move" name="_top"/>
    </contour>
    <contour>
      <point x="300" y="867" type="move" name="top"/>
    </contour>
  </outline>
</glyph>
<glyph name="dieresiscomb.case" format="1">
  <advance width="600"/>
  <note>
    uni0308.cap
  </note>
  <outline>
    <contour>
      <point x="186" y="716" type="curve" smooth="yes"/>
      <point x="230" y="716"/>
      <point x="256" y="748"/>
      <point x="256" y="783" type="curve" smooth="yes"/>
      <point x="256" y="818"/>
      <point x="230" y="850"/>
      <point x="186" y="850" type="curve" smooth="yes"/>
      <point x="140" y="850"/>
      <point x="114" y="818"/>
      <point x="114" y="783" type="curve" smooth="yes"/>
      <point x="114" y="748"/>
      <point x="140" y="716"/>
    </contour>
    <contour>
      <point x="416" y="716" type="curve" smooth="yes"/>
      <point x="460" y="716"/>
      <point x="486" y="748"/>
      <point x="486" y="783" type="curve" smooth="yes"/>
      <point x="486" y="818"/>
      <point x="460" y="850"/>
      <point x="416" y="850" type="curve" smooth="yes"/>
      <point x="370" y="850"/>
      <point x="344" y="818"/>
      <point x="344" y="783" type="curve" smooth="yes"/>
      <point x="344" y="748"/>
      <point x="370" y="716"/>
    </contour>
    <contour>
      <point x="300" y="660" type="move" name="_top"/>
    </contour>
    <contour>
      <point x="300" y="842" type="move" name="top"/>
    </contour>
  </outline>
</glyph>
<glyph name="dotaccentcomb.case" format="1">
  <advance width="600"/>
  <note>
    uni0307.cap
  </note>
  <outline>
    <contour>
      <point x="301" y="709" type="curve" smooth="yes"/>
      <point x="350" y="709"/>
      <point x="378" y="744"/>
      <point x="378" y="783" type="curve" smooth="yes"/>
      <point x="378" y="822"/>
      <point x="350" y="857"/>
      <point x="301" y="857" type="curve" smooth="yes"/>
      <point x="251" y="857"/>
      <point x="222" y="822"/>
      <point x="222" y="783" type="curve" smooth="yes"/>
      <point x="222" y="744"/>
      <point x="251" y="709"/>
    </contour>
    <contour>
      <point x="300" y="660" type="move" name="_top"/>
    </contour>
    <contour>
      <point x="300" y="842" type="move" name="top"/>
    </contour>
  </outline>
</glyph>
<glyph name="dotaccentcomb.i" format="1">
  <advance width="600"/>
  <note>
    uni0307
  </note>
  <outline>
    <contour>
      <point x="301" y="523" type="curve" smooth="yes"/>
      <point x="358" y="523"/>
      <point x="390" y="563"/>
      <point x="390" y="608" type="curve" smooth="yes"/>
      <point x="390" y="653"/>
      <point x="358" y="693"/>
      <point x="301" y="693" type="curve" smooth="yes"/>
      <point x="244" y="693"/>
      <point x="210" y="653"/>
      <point x="210" y="608" type="curve" smooth="yes"/>
      <point x="210" y="563"/>
      <point x="244" y="523"/>
    </contour>
    <contour>
      <point x="300" y="440" type="move" name="_top"/>
    </contour>
    <contour>
      <point x="300" y="662" type="move" name="top"/>
    </contour>
  </outline>
</glyph>
<glyph name="dotaccentcomb_macroncomb.case" format="1">
  <advance width="600"/>
  <outline>
    <contour>
      <point x="114" y="889" type="line"/>
      <point x="486" y="889" type="line"/>
      <point x="486" y="962" type="line"/>
      <point x="114" y="962" type="line"/>
    </contour>
    <contour>
      <point x="301" y="716" type="curve" smooth="yes"/>
      <point x="345" y="716"/>
      <point x="371" y="748"/>
      <point x="371" y="783" type="curve" smooth="yes"/>
      <point x="371" y="818"/>
      <point x="345" y="850"/>
      <point x="301" y="850" type="curve" smooth="yes"/>
      <point x="255" y="850"/>
      <point x="229" y="818"/>
      <point x="229" y="783" type="curve" smooth="yes"/>
      <point x="229" y="748"/>
      <point x="255" y="716"/>
    </contour>
    <contour>
      <point x="300" y="660" type="move" name="_top"/>
    </contour>
  </outline>
</glyph>
<glyph name="dotaccentcomb_macroncomb" format="1">
  <advance width="600"/>
  <outline>
    <contour>
      <point x="301" y="511" type="curve" smooth="yes"/>
      <point x="345" y="511"/>
      <point x="371" y="543"/>
      <point x="371" y="578" type="curve" smooth="yes"/>
      <point x="371" y="613"/>
      <point x="345" y="645"/>
      <point x="301" y="645" type="curve" smooth="yes"/>
      <point x="255" y="645"/>
      <point x="229" y="613"/>
      <point x="229" y="578" type="curve" smooth="yes"/>
      <point x="229" y="543"/>
      <point x="255" y="511"/>
    </contour>
    <contour>
      <point x="144" y="757" type="line"/>
      <point x="144" y="684" type="line"/>
      <point x="456" y="684" type="line"/>
      <point x="456" y="757" type="line"/>
    </contour>
    <contour>
      <point x="300" y="440" type="move" name="_top"/>
    </contour>
  </outline>
</glyph>
<glyph name="dotbelowcomb.case" format="1">
  <advance width="600"/>
  <note>
    uni0323
  </note>
  <outline>
    <contour>
      <point x="301" y="-212" type="curve" smooth="yes"/>
      <point x="350" y="-212"/>
      <point x="378" y="-177"/>
      <point x="378" y="-138" type="curve" smooth="yes"/>
      <point x="378" y="-99"/>
      <point x="350" y="-64"/>
      <point x="301" y="-64" type="curve" smooth="yes"/>
      <point x="251" y="-64"/>
      <point x="222" y="-99"/>
      <point x="222" y="-138" type="curve" smooth="yes"/>
      <point x="222" y="-177"/>
      <point x="251" y="-212"/>
    </contour>
    <contour>
      <point x="300" y="0" type="move" name="_bottom"/>
    </contour>
    <contour>
      <point x="300" y="-220" type="move" name="bottom"/>
    </contour>
  </outline>
</glyph>
<glyph name="eight.tosf" format="1">
  <advance width="600"/>
  <note>
    eight.onum
  </note>
  <outline>
    <contour>
      <point x="297" y="-10" type="curve" smooth="yes"/>
      <point x="451" y="-10"/>
      <point x="557" y="69"/>
      <point x="557" y="185" type="curve" smooth="yes"/>
      <point x="557" y="265"/>
      <point x="507" y="322"/>
      <point x="355" y="383" type="curve" smooth="yes"/>
      <point x="242" y="429"/>
      <point x="212" y="461"/>
      <point x="212" y="520" type="curve" smooth="yes"/>
      <point x="212" y="578"/>
      <point x="249" y="611"/>
      <point x="305" y="611" type="curve" smooth="yes"/>
      <point x="368" y="611"/>
      <point x="405" y="566"/>
      <point x="405" y="488" type="curve" smooth="yes"/>
      <point x="405" y="434"/>
      <point x="392" y="395"/>
      <point x="354" y="344" type="curve"/>
      <point x="368" y="330" type="line"/>
      <point x="475" y="357"/>
      <point x="533" y="416"/>
      <point x="533" y="497" type="curve" smooth="yes"/>
      <point x="533" y="598"/>
      <point x="451" y="670"/>
      <point x="317" y="670" type="curve" smooth="yes"/>
      <point x="177" y="670"/>
      <point x="79" y="592"/>
      <point x="79" y="486" type="curve" smooth="yes"/>
      <point x="79" y="392"/>
      <point x="133" y="334"/>
      <point x="284" y="274" type="curve" smooth="yes"/>
      <point x="395" y="230"/>
      <point x="421" y="200"/>
      <point x="421" y="144" type="curve" smooth="yes"/>
      <point x="421" y="88"/>
      <point x="380" y="54"/>
      <point x="314" y="54" type="curve" smooth="yes"/>
      <point x="238" y="54"/>
      <point x="189" y="100"/>
      <point x="189" y="172" type="curve" smooth="yes"/>
      <point x="189" y="223"/>
      <point x="207" y="266"/>
      <point x="256" y="312" type="curve"/>
      <point x="239" y="336" type="line"/>
      <point x="122" y="311"/>
      <point x="53" y="252"/>
      <point x="53" y="167" type="curve" smooth="yes"/>
      <point x="53" y="64"/>
      <point x="152" y="-10"/>
    </contour>
  </outline>
</glyph>
<glyph name="f_f_i" format="1">
  <advance width="912"/>
  <note>
    f_f_i
  </note>
  <outline>
    <contour>
      <point x="638" y="-3" type="line"/>
      <point x="670" y="0"/>
      <point x="723" y="2"/>
      <point x="764" y="2" type="curve" smooth="yes"/>
      <point x="805" y="2"/>
      <point x="862" y="0"/>
      <point x="898" y="-3" type="curve"/>
      <point x="902" y="46" type="line"/>
      <point x="877" y="49"/>
      <point x="847" y="56"/>
      <point x="835" y="64" type="curve"/>
      <point x="833" y="73"/>
      <point x="830" y="113"/>
      <point x="830" y="164" type="curve" smooth="yes"/>
      <point x="830" y="291" type="line" smooth="yes"/>
      <point x="830" y="350"/>
      <point x="832" y="392"/>
      <point x="836" y="443" type="curve"/>
      <point x="806" y="440"/>
      <point x="775" y="438"/>
      <point x="745" y="438" type="curve" smooth="yes"/>
      <point x="139" y="438" type="line"/>
      <point x="80" y="442" type="line"/>
      <point x="55" y="432"/>
      <point x="31" y="425"/>
      <point x="6" y="421" type="curve"/>
      <point x="6" y="374" type="line"/>
      <point x="689" y="374" type="line"/>
      <point x="694" y="339"/>
      <point x="697" y="313"/>
      <point x="697" y="272" type="curve" smooth="yes"/>
      <point x="696" y="164" type="line" smooth="yes"/>
      <point x="696" y="113"/>
      <point x="692" y="71"/>
      <point x="691" y="64" type="curve"/>
      <point x="681" y="56"/>
      <point x="659" y="49"/>
      <point x="635" y="46" type="curve"/>
    </contour>
    <contour>
      <point x="281" y="-5" type="curve"/>
      <point x="282" y="45" type="line"/>
      <point x="263" y="48"/>
      <point x="235" y="56"/>
      <point x="219" y="63" type="curve"/>
      <point x="217" y="73"/>
      <point x="216" y="113"/>
      <point x="214" y="235" type="curve" smooth="yes"/>
      <point x="212" y="374" type="line"/>
      <point x="212" y="438" type="line"/>
      <point x="212" y="474" type="line" smooth="yes"/>
      <point x="212" y="561"/>
      <point x="252" y="612"/>
      <point x="321" y="612" type="curve" smooth="yes"/>
      <point x="363" y="612"/>
      <point x="412" y="592"/>
      <point x="428" y="515" type="curve"/>
      <point x="473" y="599" type="line"/>
      <point x="447" y="644"/>
      <point x="387" y="668"/>
      <point x="324" y="668" type="curve" smooth="yes"/>
      <point x="182" y="668"/>
      <point x="87" y="573"/>
      <point x="80" y="442" type="curve"/>
      <point x="80" y="374" type="line"/>
      <point x="82" y="204" type="line" smooth="yes"/>
      <point x="83" y="113"/>
      <point x="78" y="71"/>
      <point x="77" y="64" type="curve"/>
      <point x="65" y="56"/>
      <point x="38" y="49"/>
      <point x="14" y="46" type="curve"/>
      <point x="18" y="-3" type="line"/>
      <point x="50" y="0"/>
      <point x="105" y="2"/>
      <point x="158" y="2" type="curve" smooth="yes"/>
      <point x="206" y="2"/>
      <point x="246" y="-1"/>
    </contour>
    <contour>
      <point x="590" y="-5" type="curve"/>
      <point x="591" y="45" type="line"/>
      <point x="574" y="48"/>
      <point x="549" y="56"/>
      <point x="534" y="63" type="curve"/>
      <point x="532" y="73"/>
      <point x="531" y="113"/>
      <point x="529" y="235" type="curve" smooth="yes"/>
      <point x="527" y="374" type="line"/>
      <point x="527" y="438" type="line"/>
      <point x="527" y="484" type="line" smooth="yes"/>
      <point x="527" y="596"/>
      <point x="587" y="653"/>
      <point x="679" y="640" type="curve"/>
      <point x="619" y="673" type="line"/>
      <point x="726" y="579" type="line" smooth="yes"/>
      <point x="752" y="556"/>
      <point x="770" y="548"/>
      <point x="798" y="548" type="curve" smooth="yes"/>
      <point x="827" y="548"/>
      <point x="853" y="566"/>
      <point x="853" y="601" type="curve" smooth="yes"/>
      <point x="853" y="657"/>
      <point x="780" y="698"/>
      <point x="671" y="698" type="curve" smooth="yes"/>
      <point x="494" y="698"/>
      <point x="395" y="593"/>
      <point x="395" y="460" type="curve" smooth="yes"/>
      <point x="395" y="374" type="line"/>
      <point x="397" y="204" type="line" smooth="yes"/>
      <point x="398" y="113"/>
      <point x="393" y="71"/>
      <point x="392" y="64" type="curve"/>
      <point x="380" y="56"/>
      <point x="353" y="49"/>
      <point x="329" y="46" type="curve"/>
      <point x="333" y="-3" type="line"/>
      <point x="365" y="0"/>
      <point x="420" y="2"/>
      <point x="473" y="2" type="curve" smooth="yes"/>
      <point x="521" y="2"/>
      <point x="558" y="-1"/>
    </contour>
  </outline>
</glyph>
<glyph name="five.osf" format="1">
  <advance width="472"/>
  <note>
    five.onum
  </note>
  <outline>
    <contour>
      <point x="164" y="-228" type="curve" smooth="yes"/>
      <point x="319" y="-228"/>
      <point x="433" y="-131"/>
      <point x="433" y="-16" type="curve" smooth="yes"/>
      <point x="433" y="82"/>
      <point x="358" y="151"/>
      <point x="227" y="179" type="curve" smooth="yes"/>
      <point x="187" y="188"/>
      <point x="146" y="193"/>
      <point x="107" y="198" type="curve"/>
      <point x="139" y="155" type="line"/>
      <point x="173" y="328" type="line"/>
      <point x="393" y="328" type="line"/>
      <point x="393" y="440" type="line"/>
      <point x="121" y="440" type="line"/>
      <point x="60" y="88" type="line"/>
      <point x="99" y="83"/>
      <point x="131" y="79"/>
      <point x="161" y="72" type="curve" smooth="yes"/>
      <point x="253" y="51"/>
      <point x="293" y="16"/>
      <point x="293" y="-48" type="curve" smooth="yes"/>
      <point x="293" y="-125"/>
      <point x="227" y="-179"/>
      <point x="149" y="-161" type="curve"/>
      <point x="180" y="-182" type="line"/>
      <point x="114" y="-121" type="line" smooth="yes"/>
      <point x="89" y="-97"/>
      <point x="74" y="-92"/>
      <point x="54" y="-92" type="curve" smooth="yes"/>
      <point x="26" y="-92"/>
      <point x="6" y="-113"/>
      <point x="6" y="-142" type="curve" smooth="yes"/>
      <point x="6" y="-191"/>
      <point x="69" y="-228"/>
    </contour>
  </outline>
</glyph>
<glyph name="five.tf" format="1">
  <advance width="600"/>
  <note>
    five
  </note>
  <outline>
    <contour>
      <point x="232" y="-10" type="curve" smooth="yes"/>
      <point x="411" y="-10"/>
      <point x="521" y="87"/>
      <point x="521" y="203" type="curve" smooth="yes"/>
      <point x="521" y="302"/>
      <point x="446" y="371"/>
      <point x="301" y="399" type="curve" smooth="yes"/>
      <point x="258" y="407"/>
      <point x="215" y="413"/>
      <point x="163" y="418" type="curve"/>
      <point x="192" y="375" type="line"/>
      <point x="226" y="548" type="line"/>
      <point x="481" y="548" type="line"/>
      <point x="481" y="660" type="line"/>
      <point x="174" y="660" type="line"/>
      <point x="113" y="308" type="line"/>
      <point x="164" y="303"/>
      <point x="199" y="298"/>
      <point x="231" y="292" type="curve" smooth="yes"/>
      <point x="339" y="271"/>
      <point x="381" y="236"/>
      <point x="381" y="171" type="curve" smooth="yes"/>
      <point x="381" y="93"/>
      <point x="315" y="39"/>
      <point x="213" y="59" type="curve"/>
      <point x="252" y="40" type="line"/>
      <point x="175" y="106" type="line" smooth="yes"/>
      <point x="145" y="131"/>
      <point x="129" y="138"/>
      <point x="105" y="138" type="curve" smooth="yes"/>
      <point x="73" y="138"/>
      <point x="50" y="115"/>
      <point x="50" y="84" type="curve" smooth="yes"/>
      <point x="50" y="30"/>
      <point x="123" y="-10"/>
    </contour>
  </outline>
</glyph>
<glyph name="five.tosf" format="1">
  <advance width="600"/>
  <note>
    five.onum
  </note>
  <outline>
    <contour>
      <point x="224" y="-228" type="curve" smooth="yes"/>
      <point x="390" y="-228"/>
      <point x="512" y="-131"/>
      <point x="512" y="-16" type="curve" smooth="yes"/>
      <point x="512" y="82"/>
      <point x="432" y="151"/>
      <point x="292" y="179" type="curve" smooth="yes"/>
      <point x="249" y="188"/>
      <point x="205" y="193"/>
      <point x="163" y="198" type="curve"/>
      <point x="192" y="155" type="line"/>
      <point x="226" y="328" type="line"/>
      <point x="472" y="328" type="line"/>
      <point x="472" y="440" type="line"/>
      <point x="174" y="440" type="line"/>
      <point x="113" y="88" type="line"/>
      <point x="154" y="83"/>
      <point x="189" y="79"/>
      <point x="221" y="72" type="curve" smooth="yes"/>
      <point x="325" y="50"/>
      <point x="372" y="16"/>
      <point x="372" y="-48" type="curve" smooth="yes"/>
      <point x="372" y="-125"/>
      <point x="282" y="-179"/>
      <point x="198" y="-161" type="curve"/>
      <point x="229" y="-182" type="line"/>
      <point x="163" y="-121" type="line" smooth="yes"/>
      <point x="138" y="-97"/>
      <point x="123" y="-92"/>
      <point x="103" y="-92" type="curve" smooth="yes"/>
      <point x="75" y="-92"/>
      <point x="55" y="-113"/>
      <point x="55" y="-142" type="curve" smooth="yes"/>
      <point x="55" y="-191"/>
      <point x="118" y="-228"/>
    </contour>
  </outline>
</glyph>
<glyph name="four.osf" format="1">
  <advance width="574"/>
  <note>
    four.onum
  </note>
  <outline>
    <contour>
      <point x="448" y="-220" type="line"/>
      <point x="447" y="263" type="line"/>
      <point x="447" y="327"/>
      <point x="449" y="390"/>
      <point x="452" y="444" type="curve"/>
      <point x="376" y="444" type="line"/>
      <point x="26" y="47" type="line"/>
      <point x="36" y="0" type="line"/>
      <point x="540" y="0" type="line"/>
      <point x="545" y="87" type="line"/>
      <point x="221" y="87" type="line" smooth="yes"/>
      <point x="196" y="87"/>
      <point x="170" y="89"/>
      <point x="145" y="91" type="curve"/>
      <point x="137" y="64" type="line"/>
      <point x="333" y="310" type="line"/>
      <point x="314" y="315" type="line"/>
      <point x="314" y="-220" type="line"/>
    </contour>
  </outline>
</glyph>
<glyph name="four.tosf" format="1">
  <advance width="600"/>
  <note>
    four.onum
  </note>
  <outline>
    <contour>
      <point x="461" y="-220" type="line"/>
      <point x="460" y="263" type="line"/>
      <point x="460" y="327"/>
      <point x="462" y="390"/>
      <point x="465" y="444" type="curve"/>
      <point x="389" y="444" type="line"/>
      <point x="39" y="47" type="line"/>
      <point x="49" y="0" type="line"/>
      <point x="553" y="0" type="line"/>
      <point x="558" y="87" type="line"/>
      <point x="234" y="87" type="line" smooth="yes"/>
      <point x="209" y="87"/>
      <point x="183" y="89"/>
      <point x="158" y="91" type="curve"/>
      <point x="150" y="64" type="line"/>
      <point x="346" y="310" type="line"/>
      <point x="327" y="315" type="line"/>
      <point x="327" y="-220" type="line"/>
    </contour>
  </outline>
</glyph>
<glyph name="hookabovecomb.case" format="1">
  <advance width="600"/>
  <note>
    hookabovecomb.cap
  </note>
  <outline>
    <contour>
      <point x="301" y="891" type="curve" smooth="yes"/>
      <point x="237" y="891"/>
      <point x="195" y="863"/>
      <point x="195" y="832" type="curve" smooth="yes"/>
      <point x="195" y="815"/>
      <point x="208" y="804"/>
      <point x="227" y="804" type="curve" smooth="yes"/>
      <point x="244" y="804"/>
      <point x="254" y="810"/>
      <point x="266" y="822" type="curve" smooth="yes"/>
      <point x="307" y="866" type="line"/>
      <point x="265" y="850" type="line"/>
      <point x="301" y="859"/>
      <point x="321" y="855"/>
      <point x="321" y="830" type="curve" smooth="yes"/>
      <point x="321" y="803"/>
      <point x="277" y="779"/>
      <point x="277" y="730" type="curve" smooth="yes"/>
      <point x="277" y="713" type="line"/>
      <point x="323" y="713" type="line"/>
      <point x="323" y="758"/>
      <point x="412" y="763"/>
      <point x="412" y="824" type="curve" smooth="yes"/>
      <point x="412" y="866"/>
      <point x="369" y="891"/>
    </contour>
    <contour>
      <point x="300" y="660" type="move" name="_top"/>
    </contour>
    <contour>
      <point x="300" y="867" type="move" name="top"/>
    </contour>
  </outline>
</glyph>
<glyph name="hungarumlautcomb.case" format="1">
  <advance width="600"/>
  <note>
    uni030B.cap
  </note>
  <outline>
    <contour>
      <point x="402" y="710" type="line"/>
      <point x="482" y="833" type="line"/>
      <point x="389" y="852" type="line"/>
      <point x="347" y="729" type="line"/>
    </contour>
    <contour>
      <point x="253" y="710" type="line"/>
      <point x="333" y="833" type="line"/>
      <point x="240" y="852" type="line"/>
      <point x="198" y="729" type="line"/>
    </contour>
    <contour>
      <point x="300" y="660" type="move" name="_top"/>
    </contour>
    <contour>
      <point x="300" y="867" type="move" name="top"/>
    </contour>
  </outline>
</glyph>
<glyph name="macronbelowcomb.case" format="1">
  <advance width="600"/>
  <outline>
    <contour>
      <point x="144" y="-102" type="line"/>
      <point x="144" y="-175" type="line"/>
      <point x="456" y="-175" type="line"/>
      <point x="456" y="-102" type="line"/>
    </contour>
    <contour>
      <point x="300" y="0" type="move" name="_bottom"/>
    </contour>
    <contour>
      <point x="300" y="-220" type="move" name="bottom"/>
    </contour>
  </outline>
</glyph>
<glyph name="macroncomb.case" format="1">
  <advance width="600"/>
  <note>
    uni0304.cap
  </note>
  <outline>
    <contour>
      <point x="144" y="818" type="line"/>
      <point x="144" y="745" type="line"/>
      <point x="456" y="745" type="line"/>
      <point x="456" y="818" type="line"/>
    </contour>
    <contour>
      <point x="300" y="660" type="move" name="_top"/>
    </contour>
    <contour>
      <point x="300" y="867" type="move" name="top"/>
    </contour>
  </outline>
</glyph>
<glyph name="macroncomb_acutecomb.case" format="1">
  <advance width="600"/>
  <outline>
    <contour>
      <point x="320" y="841" type="line"/>
      <point x="446" y="953" type="line"/>
      <point x="325" y="976" type="line"/>
      <point x="260" y="862" type="line"/>
    </contour>
    <contour>
      <point x="114" y="730" type="line"/>
      <point x="486" y="730" type="line"/>
      <point x="486" y="803" type="line"/>
      <point x="114" y="803" type="line"/>
    </contour>
    <contour>
      <point x="300" y="660" type="move" name="_top"/>
    </contour>
  </outline>
</glyph>
<glyph name="macroncomb_acutecomb" format="1">
  <advance width="600"/>
  <outline>
    <contour>
      <point x="144" y="605" type="line"/>
      <point x="144" y="532" type="line"/>
      <point x="456" y="532" type="line"/>
      <point x="456" y="605" type="line"/>
    </contour>
    <contour>
      <point x="330" y="635" type="line"/>
      <point x="461" y="767" type="line"/>
      <point x="340" y="790" type="line"/>
      <point x="270" y="656" type="line"/>
    </contour>
    <contour>
      <point x="300" y="440" type="move" name="_top"/>
    </contour>
  </outline>
</glyph>
<glyph name="macroncomb_dieresiscomb" format="1">
  <advance width="600"/>
  <outline>
    <contour>
      <point x="206" y="778" type="curve" smooth="yes"/>
      <point x="160" y="778"/>
      <point x="134" y="746"/>
      <point x="134" y="711" type="curve" smooth="yes"/>
      <point x="134" y="676"/>
      <point x="160" y="644"/>
      <point x="206" y="644" type="curve" smooth="yes"/>
      <point x="250" y="644"/>
      <point x="276" y="676"/>
      <point x="276" y="711" type="curve" smooth="yes"/>
      <point x="276" y="746"/>
      <point x="250" y="778"/>
    </contour>
    <contour>
      <point x="396" y="778" type="curve" smooth="yes"/>
      <point x="350" y="778"/>
      <point x="324" y="746"/>
      <point x="324" y="711" type="curve" smooth="yes"/>
      <point x="324" y="676"/>
      <point x="350" y="644"/>
      <point x="396" y="644" type="curve" smooth="yes"/>
      <point x="440" y="644"/>
      <point x="466" y="676"/>
      <point x="466" y="711" type="curve" smooth="yes"/>
      <point x="466" y="746"/>
      <point x="440" y="778"/>
    </contour>
    <contour>
      <point x="144" y="532" type="line"/>
      <point x="456" y="532" type="line"/>
      <point x="456" y="605" type="line"/>
      <point x="144" y="605" type="line"/>
    </contour>
    <contour>
      <point x="300" y="440" type="move" name="_top"/>
    </contour>
  </outline>
</glyph>
<glyph name="macroncomb_gravecomb.case" format="1">
  <advance width="600"/>
  <outline>
    <contour>
      <point x="486" y="803" type="line"/>
      <point x="114" y="803" type="line"/>
      <point x="114" y="730" type="line"/>
      <point x="486" y="730" type="line"/>
    </contour>
    <contour>
      <point x="280" y="841" type="line"/>
      <point x="340" y="862" type="line"/>
      <point x="275" y="976" type="line"/>
      <point x="154" y="953" type="line"/>
    </contour>
    <contour>
      <point x="300" y="660" type="move" name="_top"/>
    </contour>
  </outline>
</glyph>
<glyph name="nine.osf" format="1">
  <advance width="554"/>
  <note>
    nine.onum
  </note>
  <outline>
    <contour>
      <point x="389" y="162" type="curve"/>
      <point x="388" y="217" type="line"/>
      <point x="366" y="169"/>
      <point x="322" y="136"/>
      <point x="273" y="136" type="curve" smooth="yes"/>
      <point x="210" y="136"/>
      <point x="170" y="187"/>
      <point x="170" y="268" type="curve" smooth="yes"/>
      <point x="170" y="339"/>
      <point x="209" y="391"/>
      <point x="261" y="391" type="curve" smooth="yes"/>
      <point x="324" y="391"/>
      <point x="370" y="311"/>
      <point x="370" y="202" type="curve" smooth="yes"/>
      <point x="370" y="5"/>
      <point x="275" y="-114"/>
      <point x="75" y="-174" type="curve"/>
      <point x="96" y="-237" type="line"/>
      <point x="350" y="-195"/>
      <point x="512" y="-8"/>
      <point x="512" y="192" type="curve" smooth="yes"/>
      <point x="512" y="348"/>
      <point x="409" y="453"/>
      <point x="270" y="453" type="curve" smooth="yes"/>
      <point x="139" y="453"/>
      <point x="34" y="355"/>
      <point x="34" y="230" type="curve" smooth="yes"/>
      <point x="34" y="121"/>
      <point x="120" y="40"/>
      <point x="219" y="40" type="curve" smooth="yes"/>
      <point x="287" y="40"/>
      <point x="349" y="87"/>
    </contour>
  </outline>
</glyph>
<glyph name="nine.tosf" format="1">
  <advance width="600"/>
  <note>
    nine.onum
  </note>
  <outline>
    <contour>
      <point x="421" y="162" type="curve"/>
      <point x="420" y="217" type="line"/>
      <point x="397" y="169"/>
      <point x="350" y="135"/>
      <point x="296" y="135" type="curve" smooth="yes"/>
      <point x="224" y="135"/>
      <point x="184" y="186"/>
      <point x="184" y="268" type="curve" smooth="yes"/>
      <point x="184" y="337"/>
      <point x="223" y="392"/>
      <point x="283" y="392" type="curve" smooth="yes"/>
      <point x="356" y="392"/>
      <point x="402" y="310"/>
      <point x="402" y="202" type="curve" smooth="yes"/>
      <point x="402" y="5"/>
      <point x="302" y="-114"/>
      <point x="92" y="-174" type="curve"/>
      <point x="113" y="-237" type="line"/>
      <point x="381" y="-195"/>
      <point x="544" y="-8"/>
      <point x="544" y="192" type="curve" smooth="yes"/>
      <point x="544" y="348"/>
      <point x="442" y="453"/>
      <point x="293" y="453" type="curve" smooth="yes"/>
      <point x="153" y="453"/>
      <point x="48" y="355"/>
      <point x="48" y="230" type="curve" smooth="yes"/>
      <point x="48" y="121"/>
      <point x="134" y="40"/>
      <point x="249" y="40" type="curve" smooth="yes"/>
      <point x="316" y="40"/>
      <point x="382" y="87"/>
    </contour>
  </outline>
</glyph>
<glyph name="ogonekcomb.case" format="1">
  <advance width="600"/>
  <note>
    uni0328
  </note>
  <outline>
    <contour>
      <point x="259" y="-223" type="curve" smooth="yes"/>
      <point x="306" y="-223"/>
      <point x="345" y="-205"/>
      <point x="374" y="-173" type="curve"/>
      <point x="346" y="-134" type="line"/>
      <point x="322" y="-157"/>
      <point x="300" y="-168"/>
      <point x="278" y="-168" type="curve" smooth="yes"/>
      <point x="248" y="-168"/>
      <point x="226" y="-148"/>
      <point x="226" y="-113" type="curve" smooth="yes"/>
      <point x="226" y="-75"/>
      <point x="255" y="-37"/>
      <point x="313" y="0" type="curve"/>
      <point x="301" y="25" type="line"/>
      <point x="190" y="-12"/>
      <point x="129" y="-65"/>
      <point x="129" y="-122" type="curve" smooth="yes"/>
      <point x="129" y="-181"/>
      <point x="187" y="-223"/>
    </contour>
    <contour>
      <point x="313" y="0" type="move" name="_ogonek"/>
    </contour>
  </outline>
</glyph>
<glyph name="one.tf" format="1">
  <advance width="600"/>
  <note>
    one
  </note>
  <outline>
    <contour>
      <point x="387" y="239" type="curve" smooth="yes"/>
      <point x="387" y="419" type="line" smooth="yes"/>
      <point x="387" y="501"/>
      <point x="388" y="600"/>
      <point x="395" y="673" type="curve"/>
      <point x="115" y="574" type="line"/>
      <point x="120" y="513" type="line"/>
      <point x="159" y="522"/>
      <point x="222" y="530"/>
      <point x="243" y="532" type="curve"/>
      <point x="246" y="508"/>
      <point x="249" y="450"/>
      <point x="249" y="395" type="curve" smooth="yes"/>
      <point x="249" y="239" type="line" smooth="yes"/>
      <point x="249" y="133"/>
      <point x="245" y="77"/>
      <point x="241" y="69" type="curve"/>
      <point x="223" y="61"/>
      <point x="174" y="56"/>
      <point x="129" y="53" type="curve"/>
      <point x="133" y="-5" type="line"/>
      <point x="188" y="-1"/>
      <point x="264" y="2"/>
      <point x="318" y="2" type="curve" smooth="yes"/>
      <point x="372" y="2"/>
      <point x="448" y="-1"/>
      <point x="503" y="-5" type="curve"/>
      <point x="507" y="53" type="line"/>
      <point x="462" y="56"/>
      <point x="413" y="61"/>
      <point x="395" y="69" type="curve"/>
      <point x="391" y="77"/>
      <point x="387" y="133"/>
    </contour>
  </outline>
</glyph>
<glyph name="periodcentered.loclCAT" format="1">
  <advance width="600"/>
  <outline>
    <contour>
      <point x="301" y="204" type="curve" smooth="yes"/>
      <point x="350" y="204"/>
      <point x="378" y="239"/>
      <point x="378" y="278" type="curve" smooth="yes"/>
      <point x="378" y="317"/>
      <point x="350" y="352"/>
      <point x="301" y="352" type="curve" smooth="yes"/>
      <point x="251" y="352"/>
      <point x="222" y="317"/>
      <point x="222" y="278" type="curve" smooth="yes"/>
      <point x="222" y="239"/>
      <point x="251" y="204"/>
    </contour>
    <contour>
      <point x="300" y="278" type="move" name="_dotacc"/>
    </contour>
  </outline>
</glyph>
<glyph name="seven.osf" format="1">
  <advance width="481"/>
  <note>
    seven.onum
  </note>
  <outline>
    <contour>
      <point x="227" y="-220" type="line"/>
      <point x="458" y="390" type="line"/>
      <point x="454" y="441" type="line"/>
      <point x="426" y="441"/>
      <point x="396" y="440"/>
      <point x="369" y="440" type="curve" smooth="yes"/>
      <point x="191" y="440" type="line" smooth="yes"/>
      <point x="152" y="440"/>
      <point x="78" y="442"/>
      <point x="45" y="443" type="curve"/>
      <point x="29" y="252" type="line"/>
      <point x="91" y="246" type="line"/>
      <point x="96" y="273"/>
      <point x="102" y="301"/>
      <point x="109" y="328" type="curve"/>
      <point x="125" y="330"/>
      <point x="148" y="331"/>
      <point x="164" y="331" type="curve" smooth="yes"/>
      <point x="377" y="331" type="line"/>
      <point x="377" y="368" type="line"/>
      <point x="118" y="-180" type="line"/>
      <point x="118" y="-220" type="line"/>
    </contour>
  </outline>
</glyph>
<glyph name="seven.tf" format="1">
  <advance width="600"/>
  <note>
    seven
  </note>
  <outline>
    <contour>
      <point x="285" y="0" type="line"/>
      <point x="541" y="610" type="line"/>
      <point x="537" y="661" type="line"/>
      <point x="509" y="661"/>
      <point x="479" y="660"/>
      <point x="452" y="660" type="curve" smooth="yes"/>
      <point x="214" y="660" type="line" smooth="yes"/>
      <point x="175" y="660"/>
      <point x="101" y="662"/>
      <point x="68" y="663" type="curve"/>
      <point x="46" y="466" type="line"/>
      <point x="108" y="460" type="line"/>
      <point x="115" y="485"/>
      <point x="124" y="517"/>
      <point x="132" y="542" type="curve"/>
      <point x="148" y="544"/>
      <point x="171" y="545"/>
      <point x="187" y="545" type="curve" smooth="yes"/>
      <point x="460" y="545" type="line"/>
      <point x="460" y="588" type="line"/>
      <point x="171" y="40" type="line"/>
      <point x="171" y="0" type="line"/>
    </contour>
  </outline>
</glyph>
<glyph name="seven.tosf" format="1">
  <advance width="600"/>
  <note>
    seven.onum
  </note>
  <outline>
    <contour>
      <point x="287" y="-220" type="line"/>
      <point x="533" y="390" type="line"/>
      <point x="529" y="441" type="line"/>
      <point x="501" y="441"/>
      <point x="471" y="440"/>
      <point x="444" y="440" type="curve" smooth="yes"/>
      <point x="236" y="440" type="line" smooth="yes"/>
      <point x="197" y="440"/>
      <point x="123" y="442"/>
      <point x="90" y="443" type="curve"/>
      <point x="74" y="252" type="line"/>
      <point x="136" y="246" type="line"/>
      <point x="141" y="273"/>
      <point x="147" y="301"/>
      <point x="154" y="328" type="curve"/>
      <point x="170" y="330"/>
      <point x="193" y="331"/>
      <point x="209" y="331" type="curve" smooth="yes"/>
      <point x="452" y="331" type="line"/>
      <point x="454" y="368" type="line"/>
      <point x="183" y="-180" type="line"/>
      <point x="183" y="-220" type="line"/>
    </contour>
  </outline>
</glyph>
<glyph name="six.osf" format="1">
  <advance width="554"/>
  <note>
    six.onum
  </note>
  <outline>
    <contour>
      <point x="165" y="281" type="curve"/>
      <point x="166" y="226" type="line"/>
      <point x="188" y="274"/>
      <point x="232" y="307"/>
      <point x="281" y="307" type="curve" smooth="yes"/>
      <point x="344" y="307"/>
      <point x="384" y="256"/>
      <point x="384" y="175" type="curve" smooth="yes"/>
      <point x="384" y="104"/>
      <point x="345" y="52"/>
      <point x="293" y="52" type="curve" smooth="yes"/>
      <point x="230" y="52"/>
      <point x="184" y="132"/>
      <point x="184" y="241" type="curve" smooth="yes"/>
      <point x="184" y="438"/>
      <point x="279" y="557"/>
      <point x="479" y="617" type="curve"/>
      <point x="458" y="680" type="line"/>
      <point x="204" y="638"/>
      <point x="42" y="451"/>
      <point x="42" y="251" type="curve" smooth="yes"/>
      <point x="42" y="95"/>
      <point x="145" y="-10"/>
      <point x="284" y="-10" type="curve" smooth="yes"/>
      <point x="415" y="-10"/>
      <point x="520" y="88"/>
      <point x="520" y="213" type="curve" smooth="yes"/>
      <point x="520" y="322"/>
      <point x="434" y="403"/>
      <point x="335" y="403" type="curve" smooth="yes"/>
      <point x="267" y="403"/>
      <point x="205" y="356"/>
    </contour>
  </outline>
</glyph>
<glyph name="six.tosf" format="1">
  <advance width="600"/>
  <note>
    six.onum
  </note>
  <outline>
    <contour>
      <point x="179" y="281" type="curve"/>
      <point x="180" y="226" type="line"/>
      <point x="203" y="274"/>
      <point x="250" y="308"/>
      <point x="304" y="308" type="curve" smooth="yes"/>
      <point x="376" y="308"/>
      <point x="416" y="257"/>
      <point x="416" y="175" type="curve" smooth="yes"/>
      <point x="416" y="106"/>
      <point x="377" y="51"/>
      <point x="317" y="51" type="curve" smooth="yes"/>
      <point x="244" y="51"/>
      <point x="198" y="133"/>
      <point x="198" y="241" type="curve" smooth="yes"/>
      <point x="198" y="438"/>
      <point x="298" y="557"/>
      <point x="508" y="617" type="curve"/>
      <point x="487" y="680" type="line"/>
      <point x="219" y="638"/>
      <point x="56" y="451"/>
      <point x="56" y="251" type="curve" smooth="yes"/>
      <point x="56" y="95"/>
      <point x="158" y="-10"/>
      <point x="307" y="-10" type="curve" smooth="yes"/>
      <point x="447" y="-10"/>
      <point x="552" y="88"/>
      <point x="552" y="213" type="curve" smooth="yes"/>
      <point x="552" y="322"/>
      <point x="466" y="403"/>
      <point x="351" y="403" type="curve" smooth="yes"/>
      <point x="284" y="403"/>
      <point x="218" y="356"/>
    </contour>
  </outline>
</glyph>
<glyph name="slashlongcomb.case" format="1">
  <advance width="600"/>
  <outline>
    <contour>
      <point x="90" y="-77" type="line"/>
      <point x="571" y="700" type="line"/>
      <point x="509" y="737" type="line"/>
      <point x="28" y="-40" type="line"/>
    </contour>
    <contour>
      <point x="300" y="330" type="move" name="_center"/>
    </contour>
  </outline>
</glyph>
<glyph name="slashshortcomb.case" format="1">
  <advance width="588"/>
  <outline>
    <contour>
      <point x="36" y="174" type="line"/>
      <point x="408" y="432" type="line"/>
      <point x="370" y="486" type="line"/>
      <point x="-2" y="228" type="line"/>
    </contour>
    <contour>
      <point x="203" y="330" type="move" name="_center"/>
    </contour>
  </outline>
</glyph>
<glyph name="strokeshortcomb.case" format="1">
  <advance width="600"/>
  <outline>
    <contour>
      <point x="63" y="372" type="line"/>
      <point x="453" y="372" type="line"/>
      <point x="453" y="440" type="line"/>
      <point x="63" y="440" type="line"/>
    </contour>
    <contour>
      <point x="258" y="406" type="move" name="_stroke"/>
    </contour>
  </outline>
</glyph>
<glyph name="tildecomb.case" format="1">
  <advance width="600"/>
  <note>
    tildecomb.cap
  </note>
  <outline>
    <contour>
      <point x="473" y="849" type="line"/>
      <point x="452" y="819"/>
      <point x="430" y="805"/>
      <point x="401" y="805" type="curve" smooth="yes"/>
      <point x="355" y="805"/>
      <point x="279" y="850"/>
      <point x="221" y="850" type="curve" smooth="yes"/>
      <point x="158" y="850"/>
      <point x="107" y="810"/>
      <point x="82" y="741" type="curve"/>
      <point x="127" y="715" type="line"/>
      <point x="148" y="745"/>
      <point x="170" y="759"/>
      <point x="199" y="759" type="curve" smooth="yes"/>
      <point x="245" y="759"/>
      <point x="321" y="714"/>
      <point x="379" y="714" type="curve" smooth="yes"/>
      <point x="442" y="714"/>
      <point x="493" y="754"/>
      <point x="518" y="823" type="curve"/>
    </contour>
    <contour>
      <point x="300" y="660" type="move" name="_top"/>
    </contour>
    <contour>
      <point x="300" y="867" type="move" name="top"/>
    </contour>
  </outline>
</glyph>
<glyph name="tildecomb_dieresiscomb" format="1">
  <advance width="600"/>
  <outline>
    <contour>
      <point x="363" y="507" type="curve" smooth="yes"/>
      <point x="412" y="507"/>
      <point x="450" y="545"/>
      <point x="469" y="611" type="curve"/>
      <point x="429" y="634" type="line"/>
      <point x="412" y="605"/>
      <point x="396" y="592"/>
      <point x="374" y="592" type="curve" smooth="yes"/>
      <point x="339" y="592"/>
      <point x="281" y="635"/>
      <point x="237" y="635" type="curve" smooth="yes"/>
      <point x="188" y="635"/>
      <point x="150" y="597"/>
      <point x="131" y="531" type="curve"/>
      <point x="171" y="508" type="line"/>
      <point x="187" y="537"/>
      <point x="204" y="550"/>
      <point x="226" y="550" type="curve" smooth="yes"/>
      <point x="261" y="550"/>
      <point x="319" y="507"/>
    </contour>
    <contour>
      <point x="206" y="660" type="curve" smooth="yes"/>
      <point x="249" y="660"/>
      <point x="274" y="691"/>
      <point x="274" y="725" type="curve" smooth="yes"/>
      <point x="274" y="759"/>
      <point x="249" y="790"/>
      <point x="206" y="790" type="curve" smooth="yes"/>
      <point x="161" y="790"/>
      <point x="136" y="759"/>
      <point x="136" y="725" type="curve" smooth="yes"/>
      <point x="136" y="691"/>
      <point x="161" y="660"/>
    </contour>
    <contour>
      <point x="396" y="660" type="curve" smooth="yes"/>
      <point x="439" y="660"/>
      <point x="464" y="691"/>
      <point x="464" y="725" type="curve" smooth="yes"/>
      <point x="464" y="759"/>
      <point x="439" y="790"/>
      <point x="396" y="790" type="curve" smooth="yes"/>
      <point x="351" y="790"/>
      <point x="326" y="759"/>
      <point x="326" y="725" type="curve" smooth="yes"/>
      <point x="326" y="691"/>
      <point x="351" y="660"/>
    </contour>
    <contour>
      <point x="300" y="440" type="move" name="_top"/>
    </contour>
  </outline>
</glyph>
